<svg xmlns="http://www.w3.org/2000/svg" xmlns:xlink="http://www.w3.org/1999/xlink" fill="none" version="1.1" width="248" height="155" viewBox="0 0 248 155"><defs><clipPath id="master_svg0_24_0063"><rect x="0" y="0" width="248" height="155" rx="0"/></clipPath></defs><g><g clip-path="url(#master_svg0_24_0063)"><g><g><path d="M147.7506875,150.56454687500002L149.8956875,150.534546875L152.01068750000002,150.428546875L154.1096875,150.247546875L156.1796875,150.00454687500002L158.2336875,149.702546875L160.2716875,149.323546875L162.7066875,148.77854687500002L165.0956875,148.143546875L167.4536875,147.416546875L169.7656875,146.599546875L172.0486875,145.70554687499998L174.3156875,144.70654687500002L176.5216875,143.647546875L178.6816875,142.497046875L180.8116875,141.255846875L182.9116875,139.938946875L184.9506875,138.54634687499998L186.9436875,137.093246875L188.8756875,135.549346875L190.7776875,133.944846875L192.6336875,132.26464687499998L194.4136875,130.50874687499999L196.1486875,128.707546875L197.8376875,126.830546875L199.4656875,124.893046875L201.0326875,122.879846875L202.5236875,120.821246875L203.9686875,118.702146875L205.3376875,116.537646875L206.6466875,114.297346875L207.9096875,112.011746875L209.0806875,109.680646875L210.1766875,107.304246875L211.2106875,104.882346875L212.1696875,102.39984687500001L213.0516875,99.872046875L213.8586875,97.329046875L214.5886875,94.740746875L215.2426875,92.106946875L215.8056875,89.427746875L216.2926875,86.703146875L216.6886875,83.978546875L217.0076875,81.223646875L217.2356875,78.423346875L217.3726875,75.577646875L217.4186875,72.701646875L217.3726875,70.50684687500001L217.2816875,68.448246875L217.1146875,66.556146875L216.9016875,64.785146875L216.6276875,63.135246875L216.2626875,61.424846875L215.8516875,59.835446875L215.3946875,58.367146875L214.8926875,57.020046875L214.3456875,55.763646875L213.7066875,54.492146875L213.0216875,53.326646875L212.2916875,52.236816875L211.5156875,51.237796875L210.7086875,50.314446875L209.8266875,49.436526875L208.8986875,48.619146875L207.9396875,47.862306875L206.9206875,47.181156875L205.8556875,46.545406875L204.7756875,45.985346875L203.6336875,45.455566875L202.4476875,44.986326875L201.2146875,44.562496875L199.9366875,44.199216875L198.3236875,43.805666875L196.6506875,43.472657875L194.9006875,43.200193875L193.0596875,42.988280875L190.6256875,42.806638875L188.0696875,42.700684475L185.3916875,42.685546875L182.7136875,42.746092775L177.0696875,43.018556875L172.7176875,43.351561875L154.2466875,44.940916875L149.46968750000002,45.258786875L143.0646875,45.500976875L139.8536875,45.546386875L130.4516875,45.395016875L114.8105875,44.910646875L103.7494875,44.668456875L94.37718749999999,44.638186875L86.9371875,44.819826875L83.22478749999999,44.986326875L79.57328749999999,45.213376875L75.9977875,45.516116875L70.67258749999999,46.121586875L65.6060875,46.893556875L63.0804875,47.377926875L60.6460875,47.907716875L58.303087500000004,48.482906875L56.0360875,49.118646874999996L53.7690875,49.845216875L51.6085875,50.632326875000004L49.539387500000004,51.464846875L47.5766875,52.373046875L46.0095875,53.175246875L44.5336875,54.007846875L43.118787499999996,54.900846875L41.7798875,55.824246875L40.5017875,56.808146875L39.2694475,57.852546875L38.1131175,58.957546875L37.0328775,60.107946874999996L36.0287075,61.333946874999995L35.1006075,62.590346875L34.3855175,63.695346875L33.7312775,64.830546875L33.1226975,66.026346875L32.5749675,67.267546875L32.0880875,68.56934687500001L31.6468675,69.916546875L31.2969265,71.248546875L30.9926315,72.656246875L30.7644105,74.109346875L30.5818345,75.653346875L30.4753321,77.257846875L30.4296875,78.937946875L30.4753321,80.587846875L30.5970505,82.22264687500001L30.7796265,83.842246875L31.0382765,85.446746875L31.3729995,87.036146875L31.7837975,88.595246875L32.3619575,90.457046875L33.0314075,92.28854687500001L33.7921375,94.120146875L34.6441675,95.921346875L35.6026975,97.70754687499999L36.6220775,99.448246875L37.7327575,101.17384687500001L38.9195075,102.869146875L40.197537499999996,104.564446875L41.5668875,106.244646875L42.9665875,107.849146875L44.4576875,109.438446875L46.0095875,111.027846875L47.637587499999995,112.586946875L49.356787499999996,114.130846875L51.5324875,115.992646875L53.7994875,117.809046875L56.172987500000005,119.610346875L58.6377875,121.366146875L61.1329875,123.061546875L63.7194875,124.711446875L66.36688749999999,126.315946875L69.0902875,127.890146875L71.8441875,129.403846875L74.6436875,130.872046875L77.5040875,132.294946875L83.31608750000001,135.004346875L89.2345875,137.501946875L92.2166875,138.682646875L96.2333875,140.166046875L100.2348875,141.558546875L104.2362875,142.860546875L108.2529875,144.071546875L112.2239875,145.17654687499999L116.1189875,146.175546875L120.0443875,147.098546875L123.8632875,147.900546875L127.5604875,148.597546875L130.3599875,149.05154687499999L135.6846875,149.792546875L140.7816875,150.292546875L143.2166875,150.44354687499998L147.7506875,150.56454687500002Z" fill-rule="evenodd" fill="#F6F7FF" fill-opacity="1" style="mix-blend-mode:passthrough"/></g><g><path d="M91.0759821875,29.16845703125L172.80949218749998,35.34423703125L173.4484921875,35.43505703125L174.0418921875,35.601557031249996L174.60479218749998,35.82861703125L175.1372921875,36.13134703125L175.6089921875,36.49462703125L176.0501921875,36.90331703125L176.4305921875,37.37255703125L176.7500921875,37.87206703125L177.0087921875,38.41699703125L177.2064921875,38.99218703125L177.32829218749998,39.59765703125L177.3586921875,40.23335703125L177.3586921875,126.87595703125L177.32829218749998,127.81445703125L177.2369921875,128.73775703125L177.0847921875,129.63045703125L176.8717921875,130.49345703125L176.59799218749998,131.35645703125L175.91329218750002,132.99145703124998L175.4872921875,133.76345703125L174.4982921875,135.21645703125L173.9505921875,135.88245703125L172.7029921875,137.12345703124998L171.3183921875,138.18345703125L170.5728921875,138.65245703124998L168.9905921875,139.43945703125002L168.15379218750002,139.75745703125L166.4192921875,140.24145703124998L165.5215921875,140.39345703125L164.5934921875,140.48345703125L163.6501921875,140.51445703125L162.8438921875,140.49945703125002L161.2310921875,140.30245703125001L86.5419921875,127.05755703125L91.0759821875,29.16845703125Z" fill-rule="evenodd" fill="#FFFFFF" fill-opacity="1" style="mix-blend-mode:passthrough"/><path d="M89.5632321875,27.45942703125L84.9535021875,126.98405703125L84.8888621875,128.37945703125L160.9957921875,141.87545703125L162.73229218749998,142.08745703124998L163.6607921875,142.10445703125L164.69659218750002,142.07145703125002L165.7314921875,141.97045703125002L166.7662921875,141.79545703125L168.65099218749998,141.26945703125L169.6285921875,140.89845703125002L171.3524921875,140.04045703125L172.2270921875,139.49045703125L173.75139218750002,138.32345703125L175.1283921875,136.95345703125L175.7723921875,136.17045703125L176.84369218749998,134.59645703125L177.3468921875,133.68445703125002L178.0920921875,131.90545703125L178.4031921875,130.92545703125L178.6425921875,129.95545703125L178.8139921875,128.94975703125L178.9158921875,127.91855703125L178.9488921875,126.90175703125L178.9488921875,40.19535703125L178.9108921875,39.40185703125L178.7446921875,38.575097031249996L178.48349218750002,37.81561703125L178.1436921875,37.09964703125L177.72209218749998,36.44052703125L177.2140921875,35.81379703125L176.6365921875,35.27890703125L176.0197921875,34.803787031249996L175.2982921875,34.39363703125L174.5555921875,34.09410703125L173.7765921875,33.87551703125L172.9814921875,33.76250703125L89.5632321875,27.45942703125ZM88.1951221875,125.73575703125L161.46629218750002,138.72845703125L162.9553921875,138.91045703125002L163.6394921875,138.92345703125L164.4905921875,138.89645703125L165.3116921875,138.81545703125L166.0722921875,138.68745703125L167.65649218750002,138.24545703125L168.3525921875,137.98045703125L169.79329218750001,137.26445703125L170.4096921875,136.87645703125L171.6545921875,135.92345703125L172.7727921875,134.81045703125L173.2242921875,134.26145703125002L174.1308921875,132.92945703125L174.4795921875,132.29745703125002L175.1037921875,130.80745703125L175.34039218750002,130.06245703125L175.5269921875,129.30645703125L175.6599921875,128.52575703125L175.7405921875,127.71035703125L175.7684921875,126.85005703125L175.7684921875,40.27145703125L175.7455921875,39.79345703125L175.6683921875,39.40925703125L175.53399218750002,39.01836703125L175.3564921875,38.64448703125L175.1390921875,38.304617031250004L174.8863921875,37.99283703125L174.5813921875,37.71036703125L174.2548921875,37.45890703125L173.91139218749998,37.26358703125L173.5280921875,37.10901703125L173.1203921875,36.99459703125L172.63749218750002,36.925967031249996L92.5887221875,30.87748703125L88.1951221875,125.73575703125Z" fill-rule="evenodd" fill="#000000" fill-opacity="1"/></g><g><g><path d="M105.4534912109375,133.44532817382813L156.4532912109375,135.86722817382812L157.4725912109375,135.8823281738281L158.4767912109375,135.82182817382812L159.4505912109375,135.71582817382813L160.4090912109375,135.54932817382814L161.3523912109375,135.3223281738281L162.4934912109375,134.9439281738281L163.6041912109375,134.48982817382813L164.6539912109375,133.9600281738281L165.6581912109375,133.33942817382814L166.6318912109375,132.65822817382812L167.5295912109375,131.90142817382812L168.3663912109375,131.08402817382813L169.14229121093751,130.19092817382813L169.8573912109375,129.25252817382813L170.4963912109375,128.25342817382813L171.0441912109375,127.20902817382813L171.53109121093752,126.10402817382813L171.8505912109375,125.19582817382812L172.1091912109375,124.27252817382812L172.3221912109375,123.31882817382812L172.45909121093752,122.33502817382812L172.5503912109375,121.32082817382812L172.5503912109375,120.18562817382812L172.4895912109375,119.06542817382812L164.2583912109375,37.100128173828125L107.0662612109375,40.27883817382813L105.4534912109375,133.44532817382813Z" fill-rule="evenodd" fill="#F2F2F2" fill-opacity="0.67578125" style="mix-blend-mode:passthrough"/></g></g><g><path d="M163.71072968750002,110.2558328125L163.71072968750002,112.4507328125L163.6650296875,113.6313328125L163.52812968749998,114.7666328125L163.2999296875,115.8715328125L162.98042968750002,116.9462328125L162.58482968750002,117.9911328125L162.1132296875,118.9901328125L161.5806296875,119.9281328125L160.9568296875,120.8361328125L160.2722296875,121.6991328125L159.52662968750002,122.5011328125L158.7355296875,123.2281328125L157.8682296875,123.9091328125L156.9554296875,124.5301328125L155.9968296875,125.0751328125L155.0079296875,125.5291328125L153.9428296875,125.9371328125L152.8778296875,126.2401328125L151.76712968750002,126.4671328125L150.6260296875,126.6031328125L149.4393296875,126.6491328125L148.6025296875,126.6341328125L146.9288296875,126.4371328125L71.7529296875,113.1015328125L73.7764896875,25.9443328125L73.9286296875,24.4912128125L74.2937896875,23.1440428125L74.6589396875,22.2963828125L75.1001696875,21.4941428125L75.6174696875,20.7524428125L76.2108396875,20.0561528125L76.8650796875,19.4355428125L77.5801696875,18.8754928125L78.3561196875,18.3911128125L79.1777196875,17.9975588125L80.06016968750001,17.6796888125L80.7296096875,17.4980468125L82.1446296875,17.3012704125L83.0422296875,17.2861328125L160.9720296875,20.5102528125L161.5654296875,20.5708028125L162.1132296875,20.7070328125L162.6457296875,20.9038128125L163.1478296875,21.1762728125L163.5890296875,21.4941428125L163.99982968749998,21.8725628125L164.3649296875,22.2963828125L164.6692296875,22.7656228125L164.91272968750002,23.2651328125L165.0800296875,23.7949228125L165.2017296875,24.3701128125L165.2322296875,24.9604428125L164.9583296875,73.1709328125" fill-rule="evenodd" fill="#FFFFFF" fill-opacity="1" style="mix-blend-mode:passthrough"/><path d="M163.6417296875,24.9968728125L163.36812968750002,73.1618328125L166.54852968749998,73.1799328125L166.8226296875,24.9240128125L166.78342968750002,24.1633028125L166.6197296875,23.3898428125L166.39362968749998,22.6741028125L166.05622968749998,21.9817828125L165.6403296875,21.3403928125L165.14462968750001,20.7651128125L164.5961296875,20.2597828125L163.9952296875,19.8268728125L163.3038296875,19.4517328125L162.58212968750001,19.1850228125L161.8394296875,19.0003028125L161.08572968750002,18.9234028125L83.0617296875,15.6953828125L82.0212296875,15.7129328125L80.4106096875,15.9369128125L79.5817296875,16.1618128125L78.5632096875,16.5286958125L77.5892296875,16.9952428125L76.6662996875,17.5713648125L75.8252996875,18.2300368125L75.0552396875,18.9605128125L74.3572096875,19.779612812499998L73.7475296875,20.6537628125L73.2287396875,21.5970428125L72.7885696875,22.6188228125L72.3603896875,24.198532812499998L72.1882166875,25.8429128125L70.1314896875,114.4289328125L146.69692968750002,128.0111328125L148.4950296875,128.2221328125L149.4553296875,128.2401328125L150.7509296875,128.1901328125L152.02112968749998,128.0381328125L153.25502968749998,127.7861328125L154.4461296875,127.4471328125L155.62512968750002,126.9951328125L156.7229296875,126.4911328125L157.7967296875,125.8811328125L158.8075296875,125.1931328125L159.7659296875,124.4411328125L160.6486296875,123.6301328125L161.4793296875,122.7361328125L162.2366296875,121.7821328125L162.9300296875,120.7721328125L163.52572968750002,119.7221328125L164.0496296875,118.6131328125L164.48812968750002,117.4551328125L164.8435296875,116.2597328125L165.0989296875,115.0230328125L165.2515296875,113.7575328125L165.3009296875,112.4814328125L165.3009296875,110.2558328125L162.12052968749998,110.2558328125L162.12052968749998,112.4200328125L162.0785296875,113.5051328125L161.95732968750002,114.5101328125L161.7563296875,115.4834328125L161.47272968750002,116.4374328125L161.1200296875,117.3681328125L160.7006296875,118.2571328125L160.2312296875,119.0841328125L159.67712968749998,119.8911328125L159.06512968750002,120.6621328125L158.4046296875,121.3731328125L157.7051296875,122.0151328125L156.92902968750002,122.6251328125L156.1140296875,123.1791328125L155.2708296875,123.6581328125L154.3906296875,124.0621328125L153.4396296875,124.4271328125L152.5006296875,124.6941328125L151.5132296875,124.8961328125L150.5012296875,125.0171328125L149.4232296875,125.0581328125L148.7100296875,125.0451328125L147.1607296875,124.8631328125L73.3743696875,111.7741328125L75.3647596875,26.045752812499998L75.4968796875,24.7838928125L75.7989996875,23.6692628125L76.0891496875,22.995732812500002L76.45280968750001,22.3345128125L76.8777196875,21.725282812499998L77.3664396875,21.1517928125L77.9048596875,20.6410528125L78.4940396875,20.1796128125L79.1230096875,19.7869828125L79.7922196875,19.4664228125L80.5386196875,19.1975628125L81.04861968750001,19.0591828125L82.2679296875,18.8896128125L83.0227296875,18.8768828125L160.8584296875,22.0971028125L161.2914296875,22.141292812499998L161.6442296875,22.2290428125L161.9875296875,22.3558828125L162.30032968749998,22.525662812500002L162.5819296875,22.7285028125L162.8549296875,22.9800228125L163.0896296875,23.2523628125L163.2822296875,23.5494628125L163.4317296875,23.856182812500002L163.5403296875,24.1999828125L163.6201296875,24.5769328125L163.6417296875,24.9968728125Z" fill-rule="evenodd" fill="#000000" fill-opacity="1"/></g><g><g><path d="M94.2861234375,34.9658203125L148.9830234375,37.8872103125L148.8917234375,38.7197303125L148.7396234375,39.5219703125L148.4962234375,40.2939503125L148.1919234375,41.0205103125L147.8115234375,41.7168003125L147.3855234375,42.367670312499996L146.8834234375,42.9580103125L146.3357234375,43.5180703125L145.7423234375,44.0175803125L145.1033234375,44.4414103125L144.4186234375,44.8198203125L143.7035234375,45.1225203125L142.9580234375,45.3647203125L142.1821234375,45.5161203125L141.3757234375,45.5918203125L140.5389234375,45.5918203125L85.8115234375,42.6855503125L85.8875970375,41.8681603125L86.0549554375,41.0961903125L86.2831764375,40.3393603125L86.5874704375,39.5976603125L86.9526234375,38.8862303125L87.3938534375,38.2353503125L87.8959434375,37.6147503125L88.4741034375,37.0395503125L89.0979034375,36.5249003125L89.7521434375,36.0859403125L90.4368034375,35.7226563125L91.1671034375,35.4199223125L91.9278434375,35.1928713125L92.6885834375,35.0415039125L93.4797534375,34.9658203125L94.2861234375,34.9658203125Z" fill="#FFFFFF" fill-opacity="1" style="mix-blend-mode:passthrough"/><path d="M94.3285634375,33.3756203125L93.4797534375,33.3756203125L93.40386343750001,33.3756203125L92.4571134375,33.4661903125L91.54444343750001,33.6477903125L90.6338334375,33.9195703125L89.7581434375,34.2825743125L88.9343034375,34.7197013125L88.1465834375,35.2482243125L87.4050234375,35.8600283125L86.7136024375,36.5479003125L86.1153124375,37.2874303125L85.5820824375,38.0740203125L85.1419094375,38.9316003125L84.7828534375,39.8067803125L84.5142434375,40.6975603125L84.3131434375,41.6251403125L84.0748334375,44.1857603125L140.4967234375,47.1820203125L141.4501234375,47.1820203125L142.4091234375,47.0920203125L143.35742343750002,46.9070203125L144.2602234375,46.6137203125L145.11512343750002,46.2518203125L145.9287234375,45.8021203125L146.6969234375,45.2926203125L147.4187234375,44.6850003125L148.0589234375,44.0303503125L148.6614234375,43.321960312499996L149.17672343750002,42.5347003125L149.6268234375,41.7106803125L149.9909234375,40.8413503125L150.28442343749998,39.9105903125L150.4657234375,38.9549003125L150.7471234375,36.388960312500004L94.3285634375,33.3756203125ZM93.5556334375,36.5560203125L92.9200434375,36.6168203125L92.3112434375,36.7379503125L91.7003834375,36.9202703125L91.1154634375,37.1627403125L90.5699834375,37.4521703125L90.0492134375,37.8015803125L89.5431734375,38.2190703125L89.0782834375,38.6815903125L88.6724034375,39.1832803125L88.3231734375,39.6984403125L88.0330334375,40.2637203125L87.7835034375,40.8719303125L87.6867734375,41.1926903125L140.5810234375,44.0016003125L141.3012234375,44.0016003125L141.95502343750002,43.9402403125L142.5586234375,43.8224803125L143.1469234375,43.6313903125L143.7221234375,43.3878603125L144.2779234375,43.0807003125L144.7877234375,42.7425703125L145.2526234375,42.3511403125L145.7079234375,41.8856403125L146.1095234375,41.4134203125L146.44632343749998,40.8988603125L146.7569234375,40.3303303125L147.0014234375,39.7465603125L147.1170234375,39.3800003125L94.2436934375,36.5560203125L93.5556334375,36.5560203125Z" fill-rule="evenodd" fill="#000000" fill-opacity="1"/></g></g><g><g><path d="M93.19060341796875,56.0361328125L147.88750341796876,58.9575128125L147.81150341796877,59.7900328125L147.64410341796875,60.5922828125L147.41590341796876,61.3642528125L147.09640341796876,62.0908228125L146.71600341796875,62.7871028125L146.29000341796876,63.437982812499996L145.80310341796874,64.0283228125L145.24020341796876,64.5883828125L144.64680341796875,65.0878928125L144.00780341796874,65.51171281250001L143.32310341796875,65.8901328125L142.60800341796875,66.1928328125L141.86250341796875,66.4350328125L141.08660341796875,66.5864328125L140.28020341796875,66.6621328125L139.44340341796874,66.6621328125L84.71600341796875,63.7558628125L84.80729731796875,62.9384728125L84.95944441796875,62.1665028125L85.18766541796874,61.4096728125L85.49195941796874,60.6679628125L85.87232341796874,59.9565428125L86.29833341796875,59.3056628125L86.80042341796874,58.6850628125L87.37858341796876,58.1098628125L88.00239341796875,57.5952128125L88.65662341796875,57.1562528125L89.34128341796875,56.7929688125L90.07158341796875,56.4902348125L90.83232341796875,56.2631838125L91.59306341796875,56.1118164125L92.38423341796874,56.0361328125L93.19060341796875,56.0361328125Z" fill="#EFF0F9" fill-opacity="1" style="mix-blend-mode:passthrough"/></g></g><g><g><path d="M90.9984425,74.33645629882812L145.7105625,77.24270629882812L145.6192625,78.09036629882813L145.4519625,78.89260629882813L145.2237625,79.64944629882812L144.9194625,80.39113629882813L144.5390625,81.08743629882812L144.0978625,81.73830629882812L143.6109625,82.32864629882812L143.0632625,82.88869629882812L142.45466249999998,83.37307629882812L141.8156625,83.81204629882812L141.1461625,84.19045629882812L140.4158625,84.49315629882813L139.6703625,84.72025629882813L138.8943625,84.88675629882812L138.1032625,84.96245629882813L137.2664625,84.96245629882813L82.5390625,82.05617629882812L82.6151361,81.23879629882812L82.7672835,80.46682629882812L82.9955045,79.70998629882813L83.2997985,78.96829629882812L83.6801625,78.25686629882813L84.1213925,77.60598629882813L84.6234825,76.98538629882813L85.1864325,76.41018629882812L85.8102325,75.89553629882812L86.4644625,75.45657629882813L87.1643425,75.09329229882813L87.8946425,74.79055829882813L88.6401625,74.56350729882813L89.4161225,74.41213989882813L90.1920625,74.33645629882812L90.9984425,74.33645629882812Z" fill="#EFF0F9" fill-opacity="1" style="mix-blend-mode:passthrough"/></g></g><g><path d="M117.3820453125,8.85498046875L118.2036453125,8.90039046875L118.9795453125,9.03662146875L119.7098453125,9.24853446875L120.4249453125,9.53613246875L121.0487453125,9.89941046875L121.6269453125,10.32324046875L122.1442453125,10.80762046875L122.57024531249999,11.33740046875L122.9201453125,11.91260046875L123.1179453125,12.36670046875L123.36134531249999,13.33545046875L123.3918453125,13.85010046875L123.3157453125,14.60693046875L134.6507453125,15.00049046875L135.3353453125,15.07617046875L135.9744453125,15.22754046875L136.5677453125,15.45459046875L137.13074531249998,15.757320468749999L137.6327453125,16.13574046875L138.0892453125,16.55957046875L138.5000453125,17.04394046875L138.8347453125,17.57373046875L139.0934453125,18.16406046875L139.2912453125,18.76953046875L139.3977453125,19.40528046875L139.4129453125,20.23778046875L139.3520453125,20.90378046875L139.1999453125,21.53958046875L138.9564453125,22.129880468750002L138.6521453125,22.68998046875L138.2870453125,23.204580468750002L137.8458453125,23.65868046875L137.3589453125,24.05228046875L136.8264453125,24.38528046875L136.2482453125,24.65768046875L135.6244453125,24.83938046875L134.9854453125,24.96048046875L134.3007453125,24.97558046875L100.4936553125,23.779780468749998L99.8089853125,23.70408046875L99.1851853125,23.55278046875L98.57660531249999,23.32568046875L98.0136553125,23.02298046875L97.5115653125,22.64448046875L97.0551253125,22.22068046875L96.6443283125,21.73628046875L96.3096033125,21.206580468749998L96.0509503125,20.616180468750002L95.8531613125,20.01078046875L95.7466563125,19.37498046875L95.7314453125,18.557620468750002L95.8075189125,17.87646046875L95.9596663125,17.24072046875L96.1878873125,16.65039046875L96.4921813125,16.09033046875L96.8573253125,15.57568046875L97.2985553125,15.12158046875L97.7854353125,14.72803046875L98.3179453125,14.395020468750001L98.9113153125,14.122560468749999L99.5199053125,13.94092046875L100.1589253125,13.834960468750001L100.8435853125,13.80469046875L111.3721453125,14.18310046875L111.4026453125,13.33545046875L111.4939453125,12.83594046875L111.84384531250001,11.91260046875L112.1785453125,11.33740046875L112.6197453125,10.80762046875L113.1218453125,10.32324046875L113.7000453125,9.89941046875L114.3390453125,9.53613246875L115.0389453125,9.24853446875L115.7692453125,9.03662146875L116.5451453125,8.90039046875L117.3820453125,8.85498046875Z" fill-rule="evenodd" fill="#5D19D2" fill-opacity="1" style="mix-blend-mode:passthrough"/></g><g><g><path d="M146.80734204101563,125.12014921875L65.72804204101563,120.45804921875L64.64784204101562,120.35204921875L63.613242041015624,120.17044921875001L62.609032041015624,119.91304921875L61.650512041015624,119.58004921874999L60.72241204101562,119.17134921875L59.824742041015625,118.68704921875L58.987932041015625,118.15724921875L58.18155204101562,117.55174921875L57.43603204101562,116.88574921875L56.73615204101562,116.17434921875L56.09713204101563,115.41744921875L55.51897204101562,114.60004921875L55.001672041015624,113.75244921875L54.56044204101563,112.85934921875L54.180078041015626,111.93604921875L53.860568041015625,110.95214921875L53.63234704101563,109.96824921875L53.48020004101563,108.95404921875L53.419342041015625,107.90964921875L53.419342041015625,106.83494921875L53.510631341015625,105.91161921875L53.738852041015626,104.42822921875L54.012715041015625,103.12645921875L54.34744104101563,101.99120921875L54.712592041015625,101.00731921875L55.108182041015624,100.14452921875L55.549402041015625,99.40282921875L56.005842041015626,98.76708921875L56.50793204101562,98.23730921875L57.02523204101563,97.78319921875L57.57296204101563,97.40478521875L58.16633204101562,97.10205121875L58.79014204101563,96.87500021875L59.45958204101562,96.72363281875L60.189892041015625,96.64794921875L60.981062041015626,96.64794921875L142.06034204101564,101.32519921875L141.28434204101563,101.32519921875L140.55404204101563,101.40087921875L139.88464204101564,101.55224921875L139.24554204101563,101.77929921875L138.66744204101562,102.06688921875L138.10444204101563,102.44530921875L137.58714204101562,102.89940921875L137.1003420410156,103.44433921875L136.6286420410156,104.08006921875L136.20264204101562,104.82177921875L135.79184204101563,105.66942921875L135.42674204101564,106.66844921875L135.10724204101564,107.80374921875L134.81814204101562,109.10544921875L134.5899420410156,110.57374921875L134.49864204101561,111.64844921875L134.49864204101561,112.69284921875L134.57464204101564,113.72214921875L134.74204204101562,114.72114921875L134.98544204101563,115.70504921874999L135.28974204101564,116.65864921875L135.67014204101562,117.58204921875L136.12654204101563,118.47504921875L136.64384204101563,119.32274921875L137.22204204101564,120.12494921875L137.86104204101562,120.89694921875L138.5609420410156,121.60844921875L139.32164204101562,122.25924921875L140.12804204101562,122.86474921875L140.98004204101562,123.39454921875L141.8777420410156,123.87894921875L142.82104204101563,124.27244921875L143.7948420410156,124.60544921875L144.81414204101563,124.86274921875L145.87924204101563,125.04444921875L146.80734204101563,125.12014921875Z" fill="#FFFFFF" fill-opacity="1" style="mix-blend-mode:passthrough"/><path d="M145.14294204101563,123.30574921875001L146.07794204101563,123.46514921875L146.93654204101563,123.53514921875L146.7160420410156,126.70764921874999L65.60474204101563,122.04374921875001L64.43244204101562,121.92874921875L63.27785204101563,121.72604921875L62.149932041015624,121.43704921875L61.068202041015624,121.06124921874999L60.02328204101563,120.60104921875L59.02089204101563,120.06014921875L58.08379204101563,119.46694921875L57.172612041015626,118.78274921875L56.33838204101563,118.03744921875L55.56013204101563,117.24644921875L54.838192041015624,116.39134921875001L54.189628041015624,115.47444921875L53.60737004101563,114.52034921875L53.110759041015626,113.51514921875L52.686495041015625,112.48524921875L52.32697204101562,111.37814921875L52.06907204101562,110.26634921875L51.896892041015626,109.11864921875L51.82914204101562,107.95594921874999L51.82914204101562,106.75654921875L51.93238204101562,105.71233921875L52.17376204101563,104.14341921875L52.46958104101562,102.73729921875L52.83760704101562,101.48910921875L53.242384041015626,100.39844921875L53.698084041015626,99.40453921875L54.21774304101562,98.53099921875L54.77720204101563,97.75176921875L55.403962041015625,97.09042821875L56.045462041015625,96.52730121875L56.75607204101563,96.03635321875L57.530662041015624,95.64116921875L58.341042041015626,95.34620921875L59.20136204101563,95.15167921875L60.107712041015624,95.05774921875L61.026882041015625,95.05774921875L142.15194204101562,99.73763921875L142.06034204101564,102.91539921875L141.36654204101563,102.91539921875L140.81224204101562,102.97282921875001L140.32774204101563,103.08238921875L139.86814204101563,103.24568921875L139.4685420410156,103.44447921875L139.07664204101565,103.70792921875L138.70874204101563,104.03082921875L138.33434204101565,104.44991921875L137.96124204101562,104.95282921875L137.60934204101562,105.56541921875L137.25784204101564,106.29073921875L136.94104204101563,107.15754921875L136.6499420410156,108.19174921875L136.38154204101562,109.40024921875L136.16974204101564,110.76334921875L136.08884204101562,111.71584921875L136.08884204101562,112.63414921875L136.1551420410156,113.53174921875001L136.30034204101563,114.39834921875L136.51644204101564,115.27194921875L136.78494204101563,116.11324921875L137.11564204101563,116.91614921875001L137.51524204101563,117.69794921875L137.96954204101564,118.44244921875L138.48104204101563,119.15204921875L139.04254204101562,119.83034921875L139.64664204101564,120.44454921875L140.31694204101564,121.01804921875001L141.02704204101562,121.55114921875L141.77824204101563,122.01824921875L142.56314204101562,122.44184921875001L143.38504204101562,122.78474921875L144.24744204101563,123.07964921875L145.14294204101563,123.30574921875001ZM137.74884204101562,123.00644921874999L137.47524204101563,122.77224921875L136.67964204101563,121.96354921875L135.96314204101563,121.09794921875L135.31824204101562,120.20314921875L134.73794204101563,119.25224921875L134.22454204101564,118.24784921875L133.7946420410156,117.20414921875L133.45444204101562,116.13824921875L133.18374204101562,115.04394921875L132.99424204101564,113.91254921875L132.90844204101563,112.75154921875L132.90844204101563,111.58104921875L133.01004204101562,110.38404921875L133.25464204101564,108.81064921875L133.56444204101564,107.41564921875L133.91234204101562,106.17938921875L134.32584204101562,105.04815921875L134.79594204101562,104.07810921875L135.29614204101563,103.20732921875L135.77954204101565,102.55571921875L60.935232041015624,98.23814921875L60.272072041015626,98.23814921875L59.71781204101563,98.29558921875L59.239232041015626,98.40378921875L58.80201204101562,98.56293921875L58.389842041015626,98.77321921875L58.004992041015626,99.03909921875L57.61189204101562,99.38417921875L57.234482041015625,99.78240921875L56.881062041015625,100.27465921875L56.51827204101563,100.88451921875L56.18280204101563,101.61618921875L55.85727204101563,102.49330921875L55.555852041015626,103.51561921875L55.303942041015624,104.71302921875L55.08888204101562,106.11089921875L55.00954204101563,106.91334921875L55.00954204101563,107.86334921875L55.063502041015624,108.78954921875L55.195622041015625,109.67014921875L55.394162041015626,110.52614921874999L55.673662041015625,111.38684921875L56.01013204101562,112.20354921875L56.395972041015625,112.98454921875L56.848312041015625,113.72574921875L57.356082041015625,114.44364921875L57.912152041015624,115.10224921875L58.533682041015624,115.73404921875L59.190492041015624,116.32074921875L59.89207204101562,116.84754921875L60.628582041015626,117.31384921875L61.42155204101562,117.74174921875L62.232802041015624,118.09894921875L63.068142041015626,118.38914921874999L63.94854204101563,118.61474921875L64.86324204101562,118.77534921875L65.85134204101563,118.87224921875L137.74884204101562,123.00644921874999Z" fill-rule="evenodd" fill="#000000" fill-opacity="1"/></g></g><g><g><path d="M165.50587329101563,140.65042265625L77.74757329101563,135.98832265625L76.66737329101562,135.88232265625L75.63277329101562,135.70072265625L74.64378329101562,135.44332265625L73.67004329101563,135.11032265625L72.74194329101563,134.68652265625L71.84427329101563,134.21732265625L71.00746329101563,133.68752265625L70.20108329101562,133.08202265625L69.45556329101562,132.41602265625L68.75568329101563,131.70462265625L68.13187329101562,130.94772265625L67.53850329101563,130.13042265625L67.02120329101562,129.28272265625L66.57997329101562,128.38962265625L66.19960929101562,127.45122265625L65.89531529101562,126.48242265625L65.65187829101562,125.49852265625L65.49973129101562,124.48442265625L65.43887329101562,123.43992265625L65.43887329101562,122.36522265625L65.53016259101562,121.42676265625L65.75838329101562,119.95850265625L66.03224629101562,118.65674265625L66.36697229101563,117.52149265625L66.73212329101563,116.53760265625L67.12771329101562,115.67481265625L67.56893329101563,114.93310265625L68.02537329101563,114.29736265625L68.52746329101562,113.75244265625L69.04476329101563,113.29834265625L69.59249329101563,112.93505865625L70.18586329101562,112.63232465625L70.80967329101563,112.40527365625L71.49433329101562,112.25390625625L72.20942329101563,112.17822265625L73.00059329101562,112.17822265625L160.75907329101562,116.84034265625L159.98317329101565,116.84034265625L159.25287329101562,116.91602265625L158.58347329101562,117.08252265625L157.95957329101563,117.29444265625L157.36627329101563,117.59717265625L156.8032732910156,117.97559265625L156.28597329101564,118.42969265625L155.79917329101562,118.95948265625L155.32747329101562,119.59521265625L154.90147329101563,120.33691265625L154.49067329101564,121.19971265625L154.12547329101562,122.18362265625L153.80597329101562,123.33402265625L153.51687329101563,124.62062265624999L153.28867329101564,126.10402265625L153.19737329101562,127.17872265625L153.19737329101562,128.22312265624998L153.27347329101562,129.23732265625L153.44087329101563,130.23632265625L153.68427329101564,131.23532265625L153.98857329101563,132.18892265624999L154.3689732910156,133.11232265625L154.82537329101564,134.00532265625L155.34267329101561,134.85302265625L155.92087329101562,135.65532265625L156.5598732910156,136.41212265625L157.25977329101562,137.12352265625L158.0204732910156,137.78952265625L158.82687329101563,138.37992265625L159.67887329101563,138.92482265625L160.57657329101562,139.39402265625L161.51987329101564,139.80272265625L162.49357329101562,140.13572265625L163.5129732910156,140.37792265625L164.5779732910156,140.55952265625L165.50587329101563,140.65042265625Z" fill="#5D19D2" fill-opacity="1" style="mix-blend-mode:passthrough"/><path d="M163.83077329101565,138.81902265625L164.78937329101564,138.98242265625L165.6608732910156,139.06772265625L165.42177329101563,142.23832265625L77.62777329101563,137.57432265625L76.45187329101563,137.45902265625L75.29448329101562,137.25582265625L74.18563329101562,136.96732265625L73.08103329101563,136.58952265625L72.04283329101563,136.11542265625L71.04927329101562,135.59602265625L70.10332329101563,134.99722265625L69.19213329101562,134.31302265624998L68.35790329101563,133.56772265625L67.57305329101563,132.76992265625L66.87371329101562,131.92142265625L66.21425829101562,131.01302265625L65.62690129101563,130.05062265625L65.12828329101562,129.04142265625L64.70173929101563,127.98902265625L64.36347329101562,126.91202265625L64.09033329101563,125.80812265624999L63.916423291015626,124.64892265625L63.84867329101562,123.48622265624999L63.84867329101562,122.28812265625L63.95184329101563,121.22750265625L64.19355329101562,119.67249265625L64.48911329101563,118.26758265625L64.85713829101563,117.01939265625L65.26191529101563,115.92873265625L65.71761329101562,114.93483265625L66.23727129101563,114.06128265625L66.79019329101563,113.29115265625L67.41508329101562,112.61295565625L68.07636329101562,112.03246565625L68.78907329101563,111.55975565625L69.55019329101563,111.17144265625L70.36416329101563,110.87517265625L71.23820329101562,110.68193265625L72.12551329101562,110.58802265625L73.04279329101563,110.58802265625L160.84347329101564,115.25238265625L160.75907329101562,118.43053265625L160.06537329101562,118.43053265625L159.52807329101563,118.48621265625L159.03187329101564,118.60963265625L158.57997329101562,118.76316265625L158.17407329101565,118.97022265625L157.77537329101563,119.23821265625L157.3990732910156,119.56852265625L157.02647329101563,119.97400265625L156.65997329101563,120.46796265625L156.31087329101564,121.07577265625L155.95687329101563,121.81940265625L155.63967329101564,122.67392265625L155.34887329101562,123.72122265625L155.08037329101563,124.91622265625L154.86857329101562,126.29242265625L154.78757329101563,127.24612265625L154.78757329101563,128.16362265625L154.8537732910156,129.04602265625L154.99957329101562,129.91632265625L155.21607329101562,130.80492265625L155.48367329101563,131.64352265625L155.81447329101564,132.44652265625L156.21397329101563,133.22822265625L156.66837329101563,133.97272265625L157.17527329101563,134.67602265625L157.73587329101562,135.34002265625L158.3517732910156,135.96612265625L159.01577329101562,136.54742265625L159.72577329101563,137.06722265625L160.47707329101564,137.54772265625L161.2618732910156,137.95792265625L162.0940732910156,138.31852265625L162.93567329101563,138.60632265625L163.83077329101565,138.81902265625ZM156.50927329101563,138.58002265625L156.16767329101563,138.28092265625L155.38387329101562,137.48422265625L154.66647329101562,136.63452265625L154.01697329101563,135.73342265625L153.4366732910156,134.78252265625L152.92337329101562,133.77812265625L152.49347329101562,132.73442265625L152.1524732910156,131.66582265625L151.88207329101562,130.55632265625L151.69317329101563,129.42852265625L151.6071732910156,128.28272265625L151.6071732910156,127.11132265625L151.70877329101563,125.91562265625L151.95347329101563,124.32502265625L152.26317329101562,122.94672265625L152.6112732910156,121.69329265625L153.02447329101562,120.58004265625L153.49197329101563,119.59801265625L153.9948732910156,118.72247265625L154.4581732910156,118.09804265625L72.95838329101562,113.76842265625L72.29334329101563,113.76842265625L71.75045329101563,113.82587265625L71.25517329101562,113.93537265625L70.82154329101563,114.09321265625L70.39591329101563,114.31036265625L70.01316329101563,114.56422265625L69.63983329101562,114.89193265625L69.26055329101563,115.30357265625L68.90060329101563,115.80493265625L68.53780329101562,116.41479265625L68.20233329101562,117.14647265625L67.87680329101562,118.02359265625L67.57538329101563,119.04590265625001L67.32321329101562,120.24451265625L67.10848329101563,121.62602265625L67.02907329101562,122.44242265625L67.02907329101562,123.39362265625L67.08303329101562,124.31982265625L67.21342329101563,125.18892265625L67.42715329101563,126.05282265625L67.69748329101563,126.91332265625L68.03167329101562,127.73792265624999L68.41550329101563,128.51482265625L68.86275329101562,129.24772265625L69.39003329101563,129.97402265624999L69.93831329101562,130.63922265625L70.55321329101562,131.26432265625L71.21002329101563,131.85102265625L71.91160329101562,132.37782265625L72.63926329101562,132.83852265625L73.44106329101562,133.25762265625L74.25904329101563,133.63112265625L75.10193329101563,133.91942265625L75.97097329101562,134.14552265625L76.88277329101562,134.30562265625L77.86747329101563,134.40222265625L156.50927329101563,138.58002265625Z" fill-rule="evenodd" fill="#000000" fill-opacity="1"/></g></g><g><path d="M178.6051203125,91.15335703125L178.5747203125,92.06155703125L178.3465203125,93.81735703125L178.1487203125,94.66505703125L177.6010203125,96.34525703125L176.8250203125,97.91945703125L176.3686203125,98.67625703125L175.3035203125,100.08395703125001L174.6949203125,100.73485703125L174.0559203125,101.35545703125L172.6714203125,102.43015703125L171.9259203125,102.89945703125L170.3587203125,103.67135703125L168.7156203125,104.24655703125L167.8788203125,104.44335703125L166.14432031249999,104.67035703125L165.2618203125,104.70065703125L164.3642203125,104.67035703125L162.6449203125,104.44335703125L161.7928903125,104.24655703125L160.1496903125,103.67135703125L158.5825903125,102.89945703125L157.8522703125,102.43015703125L156.4677403125,101.35545703125L155.8135003125,100.73485703125L154.6571803125,99.38765703125L154.1398803125,98.67625703125L153.2726503125,97.14745703125L152.6184053125,95.51265703125L152.3597623125,94.66505703125L152.0098163125,92.93945703125L151.9337423125,92.06155703125L151.9033203125,91.15335703125L152.0098163125,89.36715703125L152.1619633125,88.50435703125L152.6184053125,86.79394703125L153.2726503125,85.17431703125L154.1398803125,83.63036703125L155.2049103125,82.22265703125L155.8135003125,81.57177703125L156.4677403125,80.95116703125L157.8522703125,79.87646703125L158.5825903125,79.40721703125L160.1496903125,78.63524703125L161.7928903125,78.06005903125L162.6449203125,77.86328303125L164.3642203125,77.63623233125L165.2618203125,77.60595703125L166.14432031249999,77.63623233125L167.8788203125,77.86328303125L168.7156203125,78.06005903125L170.3587203125,78.63524703125L171.9259203125,79.40721703125L172.6714203125,79.87646703125L174.0559203125,80.95116703125L174.6949203125,81.57177703125L175.3035203125,82.22265703125L176.3686203125,83.63036703125L176.8250203125,84.38720703125L177.6010203125,85.96142703125L178.1487203125,87.64155703125L178.3465203125,88.50435703125L178.5747203125,90.26025703125L178.6051203125,91.15335703125Z" fill-rule="evenodd" fill="#FFFFFF" fill-opacity="1" style="mix-blend-mode:passthrough"/></g><g><g><path d="M180.5532921875,102.53611176757812L183.1245921875,105.23051176757812L183.4288921875,105.66941176757813L183.6722921875,106.12351176757812L183.8396921875,106.59281176757813L183.9613921875,107.07721176757812L184.0070921875,107.56151176757812L183.9918921875,108.03081176757811L183.9005921875,108.51521176757812L183.7635921875,108.96931176757812L183.5505921875,109.40821176757812L183.2767921875,109.83201176757812L182.92679218749998,110.24071176757812L182.53119218749998,110.60401176757813L182.1051921875,110.87651176757812L181.6791921875,111.10351176757813L181.2227921875,111.23981176757812L180.7510921875,111.33061176757812L180.2794921875,111.34571176757812L179.8077921875,111.30031176757812L179.3208921875,111.17921176757812L178.8492921875,111.01271176757812L178.4080921875,110.77051176757813L177.9667921875,110.45271176757812L177.5255921875,110.05911176757812L173.9348921875,106.36571176757812L173.6762921875,106.16901176757813L173.4784921875,106.09331176757813L173.2654921875,106.10841176757813L171.9873921875,106.74421176757812L170.9984921875,107.18311176757813L170.0246921875,107.54641176757812L169.05099218750001,107.83401176757812L168.0772921875,108.04591176757813L166.0840921875,108.31841176757813L165.0951921875,108.34861176757812L164.1213921875,108.31841176757813L163.1628921875,108.22761176757813L161.9608921875,108.03081176757811L160.7893921875,107.75831176757812L159.6482921875,107.37991176757812L158.5376221875,106.92581176757812L157.4573821875,106.38091176757813L156.4379821875,105.76031176757812L155.4490321875,105.06401176757812L154.5057221875,104.27691176757813L153.6384821875,103.41411176757812L152.8321021875,102.49071176757812L152.0713621875,101.49171176757812L151.3867021875,100.41701176757812L150.8998321875,99.52391176757813L150.4738221875,98.58551176757813L150.0934491875,97.60161176757812L149.7587231875,96.57231176757813L149.4848601875,95.49761176757812L149.2870711875,94.39261176757813L149.1653547875,93.30281176757812L149.1044921875,92.22801176757812L149.1349234875,91.15331176757812L149.2414281875,90.07861176757812L149.4087861875,89.03421176757813L149.6370071875,88.00491176757812L149.9413021875,86.99071176757812L150.3216721875,86.00691176757812L150.7476821875,85.05325176757813L151.2345521875,84.12991176757812L151.7822821875,83.22170176757812L152.3908721875,82.35891176757812L153.0451121875,81.55667176757812L153.7449821875,80.76955176757812L154.5057221875,80.04299176757813L155.3121021875,79.36184176757813L156.1641321875,78.72610176757813L157.0618021875,78.15090176757812L158.0051021875,77.63626176757812L158.9788521875,77.18216176757812L159.9981921875,76.78860176757813L161.0480921875,76.47073476757812L162.1434921875,76.21340876757813L163.2845921875,76.03176576757812L164.4104921875,75.94094936757813L165.5211921875,75.92581176757812L166.6165921875,75.98635766757812L167.7120921875,76.13772476757812L168.7770921875,76.36477576757812L169.8268921875,76.65237276757813L170.8462921875,77.01565176757812L171.8352921875,77.43948176757813L172.7937921875,77.93900176757812L173.7066921875,78.49905176757812L174.5891921875,79.11966176757812L175.4411921875,79.80081176757812L176.2323921875,80.52737176757813L176.9778921875,81.31448176757813L177.6777921875,82.14700176757813L178.3167921875,83.02493176757812L178.8948921875,83.94827176757812L179.4121921875,84.93215176757812L179.8686921875,85.94631176757812L180.2489921875,86.99071176757812L180.5685921875,88.06541176757813L180.8119921875,89.18561176757812L180.9792921875,90.35111176757812L181.0553921875,91.53181176757812L181.0553921875,92.68211176757812L180.9945921875,93.80231176757812L180.8423921875,94.90721176757813L180.6141921875,95.99711176757813L180.3098921875,97.05671176757812L179.9446921875,98.11621176757812L179.4882921875,99.16071176757812L178.7883921875,100.50781176757812L178.7275921875,100.76521176757812L180.5532921875,102.53611176757812ZM165.0646921875,103.36871176757813L166.0080921875,103.32331176757813L166.8904921875,103.20221176757812L167.7576921875,103.02051176757813L168.6097921875,102.77831176757812L169.4313921875,102.46051176757813L170.2072921875,102.08201176757812L170.9527921875,101.65821176757812L171.6526921875,101.17381176757813L172.3221921875,100.62891176757813L172.9459921875,100.03861176757812L173.5240921875,99.41801176757812L174.0565921875,98.73681176757813L174.5282921875,98.01031176757812L174.9542921875,97.26861176757812L175.3194921875,96.48151176757813L175.6237921875,95.64891176757813L175.8519921875,94.80131176757813L176.0345921875,93.92341176757813L176.1257921875,93.03031176757813L176.1714921875,92.09181176757812L176.1257921875,91.15331176757812L176.0040921875,90.26031176757813L175.8367921875,89.38231176757813L175.5780921875,88.53471176757813L175.2585921875,87.71731176757812L174.8934921875,86.93021176757813L174.4673921875,86.17341176757813L173.9805921875,85.46194176757812L173.4480921875,84.78078176757812L172.8546921875,84.16018176757812L172.2308921875,83.56985176757813L171.5613921875,83.04006176757812L170.8462921875,82.55569176757812L170.1007921875,82.13186176757813L169.3096921875,81.76858176757813L168.4880921875,81.46585176757813L167.6512921875,81.22366176757812L166.7839921875,81.04202176757812L165.9015921875,80.95120176757813L164.9734921875,80.92092176757812L164.0605921875,80.96634176757813L163.1780921875,81.07229176757812L162.3260921875,81.26907176757813L161.5044921875,81.52639176757812L160.6980921875,81.84427176757812L159.9221921875,82.22269176757813L159.1918921875,82.64651176757812L158.4919721875,83.14602176757812L157.8377521875,83.69095176757813L157.2291621875,84.28127176757812L156.6509921875,84.91702176757812L156.1336821875,85.61330176757812L155.6620321875,86.33991176757813L155.2512421875,87.09671176757813L154.8860921875,87.88381176757812L154.5970021875,88.73151176757813L154.3535721875,89.57911176757813L154.1862121875,90.45701176757812L154.0797121875,91.36521176757813L154.0492821875,92.30371176757812L154.0949221875,93.21191176757813L154.2014221875,94.08991176757813L154.3840021875,94.93751176757813L154.6426521875,95.77001176757813L154.9469521875,96.58741176757812L155.3273221875,97.35941176757812L155.7533321875,98.11621176757812L156.2402021875,98.81251176757813L156.7727221875,99.49371176757813L157.3508621875,100.11431176757813L157.9746821875,100.70461176757813L158.6289021875,101.23441176757812L159.3439921875,101.71881176757813L160.0742921875,102.14261176757813L160.8502921875,102.50591176757813L161.6413921875,102.80861176757813L162.4629921875,103.05081176757812L163.3150921875,103.23241176757813L164.1822921875,103.33841176757812L165.0646921875,103.36871176757813Z" fill="#5D19D2" fill-opacity="1" style="mix-blend-mode:passthrough"/></g><g><path d="M156.2099609375,92.00099989257812L156.2556125375,91.19875989257812L156.3468969375,90.44191989257813L156.4990439375,89.73049989257812L156.7120539375,89.03420989257812L156.9859269375,88.35305989257813L157.6553609375,87.11184989257812L158.0661709375,86.53664989257813L158.6595509375,85.84035989257812L159.3137709375,85.20461989257812L160.0288709375,84.64455989257813L160.7896109375,84.17531989257813L161.5655509375,83.78176689257812L162.3871509375,83.47903289257812L163.0261609375,83.31253189257812L163.6499609375,83.19143119257812L164.9280009375,83.13088989257812L164.9584309375,85.58303989257813L164.1976909375,85.67385989257812L163.4978209375,85.82521989257812L162.8588009375,86.03713989257812L162.2806409375,86.27932989257812L161.2156109375,86.91506989257813L160.7591709375,87.29348989257812L160.3483809375,87.71730989257813L159.8767209375,88.32277989257813L159.4659109375,88.97365989257813L159.1464109375,89.68508989257812L158.9029809375,90.42678989257813L158.7356209375,91.19875989257812L158.6595509375,92.00099989257812L156.2099609375,92.00099989257812Z" fill="#5D19D2" fill-opacity="1" style="mix-blend-mode:passthrough"/></g></g></g></g></g></svg>