<svg xmlns="http://www.w3.org/2000/svg" xmlns:xlink="http://www.w3.org/1999/xlink" fill="none" version="1.1" width="50" height="50" viewBox="0 0 50 50"><defs><clipPath id="master_svg0_40_3359"><rect x="0" y="0" width="50" height="50" rx="0"/></clipPath></defs><g><g clip-path="url(#master_svg0_40_3359)"><g><g></g><g transform="matrix(-1,0,0,1,84,0)"><g transform="matrix(-1,0,0,-1,151.3330078125,91.99999809265137)"><path d="M104.83320390624999,45.999999046325684C107.13440390625,45.999999046325684,108.99980390625001,47.86547904632568,108.99980390625001,50.16666904632568L109.00000390625,75.99999904632568L100.45800390625,75.99999904632568C98.73210390625,75.99999904632568,97.33300390625,77.39909904632569,97.33300390625,79.12499904632568L97.33300390625,87.66669904632568L79.83317390625,87.66669904632568C77.53198390625,87.66669904632568,75.66650390625,85.80119904632568,75.66650390625,83.49999904632568L75.66650390625,50.16666904632568C75.66650390625,47.86547904632568,77.53198390625,45.999999046325684,79.83317390625,45.999999046325684L104.83320390624999,45.999999046325684Z" fill-rule="evenodd" fill="#5D19D2" fill-opacity="1" style="mix-blend-mode:passthrough"/></g><g transform="matrix(-1,0,0,-1,104,28.33349609375)"><path d="M52,24.166748046875C52.636023,24.031858046875,53.2192,23.715198046875003,53.6787,23.255218046875L61.08847,15.845448046875C61.54844,15.385938046875,61.86511,14.802768046875,62,14.166748046875L53,14.166748046875C52.447715,14.166748046875,52,14.614463046875,52,15.166748046875L52,24.166748046875Z" fill="#5D19D2" fill-opacity="1" style="mix-blend-mode:passthrough"/></g></g></g></g><g><path d="M26.8,25.696469999999998L29.7808,28.8505C30.0246,29.10847,30.3552,29.25339,30.7,29.25339C31.418,29.25339,32,28.637529999999998,32,27.87783C32,27.51301,31.863,27.16312,31.6192,26.905160000000002L26.41967,21.40335L26.41967,21.40335C26.175440000000002,21.144925,25.84478,21,25.5,21C25.14102,21,24.81602,21.153965,24.580759999999998,21.402894L24.580759999999998,21.402894L19.380761,26.905160000000002C19.136964,27.16313,19,27.51301,19,27.87783C19,28.637529999999998,19.58203,29.25339,20.3,29.25339C20.64478,29.25339,20.97544,29.10847,21.21924,28.8505L24.2,25.696469999999998L24.2002,34.6244C24.2002,35.384100000000004,24.78203,36,25.5,36C26.21797,36,26.7998,35.384100000000004,26.7998,34.6244L26.8,25.696469999999998Z" fill-rule="evenodd" fill="#FFFFFF" fill-opacity="1" style="mix-blend-mode:passthrough"/></g></g></svg>