<svg xmlns="http://www.w3.org/2000/svg" xmlns:xlink="http://www.w3.org/1999/xlink" fill="none" version="1.1" width="24" height="24" viewBox="0 0 24 24"><defs><clipPath id="master_svg0_24_01358"><rect x="0" y="0" width="24" height="24" rx="0"/></clipPath></defs><g clip-path="url(#master_svg0_24_01358)"><g><g></g><g><path d="M4.762563,3.7625599999999997Q5.27513,3.25,6,3.25L9.44852,3.25L9.519400000000001,3.187467Q10.581959999999999,2.25,12,2.25Q13.41653,2.25,14.4807,3.187583L14.5516,3.25L18,3.25Q18.724899999999998,3.25,19.2374,3.7625599999999997Q19.75,4.27513,19.75,5L19.75,20Q19.75,20.7249,19.2374,21.2374Q18.724899999999998,21.75,18,21.75L6,21.75Q5.27513,21.75,4.762563,21.2374Q4.25,20.7249,4.25,20L4.25,5Q4.25,4.27513,4.762563,3.7625599999999997ZM9.75,6L9.75,6.25L14.25,6.25L14.25,6Q14.25,5.068020000000001,13.59099,4.40901Q12.93198,3.75,12,3.75Q11.06802,3.75,10.40901,4.40901Q9.75,5.068020000000001,9.75,6ZM8.25,7L8.25,6Q8.25,5.52323,8.368179999999999,5.06206L8.44814,4.75L5.75,4.75L5.75,20.25L18.25,20.25L18.25,4.75L15.5519,4.75L15.6318,5.06206Q15.75,5.52322,15.75,6L15.75,7Q15.75,7.31066,15.5303,7.53033Q15.3107,7.75,15,7.75L9,7.75Q8.68934,7.75,8.46967,7.53033Q8.25,7.31066,8.25,7ZM15,11.75L9,11.75Q8.68934,11.75,8.46967,11.53033Q8.25,11.31066,8.25,11Q8.25,10.68934,8.46967,10.46967Q8.68934,10.25,9,10.25L15,10.25Q15.3107,10.25,15.5303,10.46967Q15.75,10.68934,15.75,11Q15.75,11.31066,15.5303,11.53033Q15.3107,11.75,15,11.75ZM12,15.75L9,15.75Q8.68934,15.75,8.46967,15.5303Q8.25,15.3107,8.25,15Q8.25,14.6893,8.46967,14.4697Q8.68934,14.25,9,14.25L12,14.25Q12.31066,14.25,12.53033,14.4697Q12.75,14.6893,12.75,15Q12.75,15.3107,12.53033,15.5303Q12.31066,15.75,12,15.75Z" fill-rule="evenodd" fill="#000000" fill-opacity="1"/></g></g></g></svg>