<svg xmlns="http://www.w3.org/2000/svg" xmlns:xlink="http://www.w3.org/1999/xlink" fill="none" version="1.1" width="24" height="24" viewBox="0 0 24 24"><defs><clipPath id="master_svg0_9_4405"><rect x="5" y="5" width="14" height="14" rx="0"/></clipPath></defs><g><g style="opacity:0.05000000074505806;"><rect x="0" y="0" width="24" height="24" rx="12" fill="#5D19D2" fill-opacity="1" style="mix-blend-mode:passthrough"/></g><g clip-path="url(#master_svg0_9_4405)"><g><g></g><g><path d="M7.333334709472656,11.000028085937501C7.332074709472656,9.0445680859375,8.717314709472657,7.3626980859375,10.636784709472657,6.9892180859375C12.556244709472656,6.6157420859375,14.471054709472655,7.6554980859375,15.203084709472657,9.468778085937501C15.325334709472656,9.7651780859375,15.663884709472656,9.9073580859375,15.961114709472657,9.7871280859375C16.25836470947266,9.6668880859375,16.402764709472656,9.3293080859375,16.284564709472654,9.031278085937501C15.143614709472656,6.1864480859375,11.818994709472657,4.9192020859375,9.073904709472657,6.2827810859375C6.328812709472656,7.6463580859375,5.329953709472656,11.0612280859375,6.907502709472656,13.6891880859375L6.452502709472657,15.2344380859375C6.391578709472657,15.4409880859375,6.448431709472656,15.6643080859375,6.600700709472656,15.8165880859375C6.752969709472656,15.9688880859375,6.976293709472657,16.0256880859375,7.182834709472656,15.9647880859375L8.728674709472656,15.5097780859375C9.350384709472657,15.8816880859375,10.042714709472657,16.1200880859375,10.761584709472658,16.2097880859375C11.081334709472657,16.2496880859375,11.372924709472656,16.022888085937502,11.412874709472657,15.7031480859375C11.452824709472656,15.3833980859375,11.226004709472656,15.0918080859375,10.906254709472655,15.0518580859375C10.308204709472657,14.9774080859375,9.734284709472657,14.7705480859375,9.226254709472656,14.4463580859375C9.023404709472656,14.3165580859375,8.774334709472656,14.2808180859375,8.543164709472656,14.3483580859375L7.871164709472656,14.5461080859375L8.068914709472656,13.8741080859375C8.138914709472656,13.6361080859375,8.096334709472657,13.3876080859375,7.970914709472656,13.1916080859375C7.5532547094726565,12.5370480859375,7.331984709472656,11.7764780859375,7.333334709472656,11.000028085937501ZM16.666664709472656,13.625028085937501C16.666564709472656,12.344298085937499,15.500944709472657,11.3799180859375,14.242844709472656,11.619638085937499C12.984754709472657,11.8593680859375,12.255464709472657,13.1848180859375,12.726324709472657,14.3758480859375C13.197194709472656,15.5668780859375,14.635674709472656,16.035288085937502,15.717584709472657,15.3499380859375C15.875134709472656,15.2497180859375,16.064934709472656,15.2132180859375,16.248464709472657,15.2478580859375C16.213564709472656,15.0644480859375,16.249864709472654,14.8746580859375,16.34996470947266,14.7170280859375C16.557364709472658,14.3906280859375,16.667264709472654,14.0117680859375,16.666664709472656,13.625028085937501ZM14.625004709472655,10.416688085937501C17.06466470947266,10.416508085937501,18.611864709472655,13.031428085937499,17.437264709472657,15.1696880859375L17.66246470947266,15.9344880859375C17.723064709472656,16.1402880859375,17.666364709472656,16.3628880859375,17.51456470947266,16.5145880859375C17.362864709472657,16.6663880859375,17.140264709472657,16.723088085937498,16.934464709472657,16.6624880859375L16.170264709472654,16.4372880859375C14.333784709472656,17.445688085937498,12.039264709472656,16.4519880859375,11.518414709472657,14.4226280859375C10.997554709472656,12.3932780859375,12.529884709472658,10.4173580859375,14.625004709472655,10.416688085937501Z" fill-rule="evenodd" fill="#5D19D2" fill-opacity="1" style="mix-blend-mode:passthrough"/></g></g></g></g></svg>