<svg xmlns="http://www.w3.org/2000/svg" xmlns:xlink="http://www.w3.org/1999/xlink" fill="none" version="1.1" width="40" height="40" viewBox="0 0 40 40"><g><g><path d="M12.9948,0C17.4852,0,22.5148,0,27.0052,0C34.1849,0,40,5.81511,40,12.9948C40,17.4852,40,22.5148,40,27.0052C40,34.1849,34.1849,40,27.0052,40C22.5148,40,17.4852,40,12.9948,40C5.81511,40,0,34.1849,0,27.0052C0,22.5148,0,17.4852,0,12.9948C0,5.81511,5.81511,0,12.9948,0" fill="#F8F5FE" fill-opacity="1"/></g><g><g><path d="M18,11Q18,10.9015086,18.019215,10.80491Q18.038429999999998,10.708311,18.076121,10.617317Q18.113812,10.526322,18.16853,10.44443Q18.223249,10.362537,18.292893,10.292893Q18.362537,10.223249,18.44443,10.16853Q18.526322,10.113812,18.617317,10.076121Q18.708311,10.03843,18.80491,10.019214999999999Q18.9015086,10,19,10Q19.0984914,10,19.19509,10.019214999999999Q19.291689,10.03843,19.382683,10.076121Q19.473678,10.113812,19.55557,10.16853Q19.637463,10.223249,19.707107,10.292893Q19.776751,10.362537,19.83147,10.44443Q19.886188,10.526322,19.923879,10.617317Q19.961570000000002,10.708311,19.980785,10.80491Q20,10.9015086,20,11L20,29.5Q20,29.5985,19.980785,29.6951Q19.961570000000002,29.7917,19.923879,29.8827Q19.886188,29.9737,19.83147,30.0556Q19.776751,30.1375,19.707107,30.2071Q19.637463,30.2767,19.55557,30.3315Q19.473678,30.3862,19.382683,30.4239Q19.291689,30.4616,19.19509,30.4808Q19.0984914,30.5,19,30.5Q18.9015086,30.5,18.80491,30.4808Q18.708311,30.4616,18.617317,30.4239Q18.526322,30.3862,18.44443,30.3315Q18.362537,30.2767,18.292893,30.2071Q18.223249,30.1375,18.16853,30.0556Q18.113812,29.9737,18.076121,29.8827Q18.038429999999998,29.7917,18.019215,29.6951Q18,29.5985,18,29.5L18,11Z" fill-rule="evenodd" fill="#000000" fill-opacity="1"/></g><g transform="matrix(0,1,-1,0,36.062255859375,6.062255859375)"><path d="M16,21.062255859375L16,23.124755859375Q16,23.223245859374998,15.980785000000001,23.319845859375Q15.96157,23.416445859375,15.923879,23.507435859375Q15.886188,23.598435859375,15.83147,23.680325859375Q15.776751,23.762215859375,15.707107,23.831865859375Q15.637463,23.901505859375,15.55557,23.956225859375Q15.473678,24.010945859375,15.382683,24.048635859375Q15.291689,24.086325859375002,15.19509,24.105545859375Q15.0984914,24.124755859375,15,24.124755859375Q14.9015086,24.124755859375,14.80491,24.105545859375Q14.708311,24.086325859375002,14.617317,24.048635859375Q14.526322,24.010945859375,14.44443,23.956225859375Q14.362537,23.901505859375,14.292893,23.831865859375Q14.223249,23.762215859375,14.16853,23.680325859375Q14.113812,23.598435859375,14.076121,23.507435859375Q14.03843,23.416445859375,14.019214999999999,23.319845859375Q14,23.223245859374998,14,23.124755859375L14.000002,21.062255859375Q14.000003,20.963764459375,14.019217,20.867165859375Q14.038432,20.770566859375,14.076123,20.679572859375Q14.113814,20.588577859375,14.168533,20.506685859375Q14.223252,20.424792859375,14.292896,20.355148859375Q14.36254,20.285504859375,14.444432,20.230785859375Q14.526325,20.176067859375,14.617319,20.138376859375Q14.708313,20.100685859374998,14.804912,20.081470859375Q14.901511,20.062255859375,15.00000241399,20.062255859375Q15.0984938,20.062255859375,15.195093,20.081470859375Q15.291692,20.100685859374998,15.382686,20.138376859375Q15.47368,20.176067859375,15.555573,20.230785859375Q15.637465,20.285504859375,15.707108999999999,20.355148859375Q15.776753,20.424792859375,15.831472,20.506685859375Q15.886191,20.588577859375,15.923882,20.679572859375Q15.961573,20.770566859375,15.980788,20.867165859375Q16,20.963764459375,16,21.062255859375Z" fill-rule="evenodd" fill="#000000" fill-opacity="1"/></g><g transform="matrix(0,1,-1,0,32.125,2.125)"><path d="M16,17.125L16,19.1875Q16,19.285989999999998,15.980785000000001,19.38259Q15.96157,19.47919,15.923879,19.57018Q15.886188,19.66118,15.83147,19.74307Q15.776751,19.82496,15.707107,19.89461Q15.637463,19.96425,15.55557,20.01897Q15.473678,20.07369,15.382683,20.11138Q15.291689,20.149070000000002,15.19509,20.16829Q15.0984914,20.1875,15,20.1875Q14.9015086,20.1875,14.80491,20.16829Q14.708311,20.149070000000002,14.617317,20.11138Q14.526322,20.07369,14.44443,20.01897Q14.362537,19.96425,14.292893,19.89461Q14.223249,19.82496,14.16853,19.74307Q14.113812,19.66118,14.076121,19.57018Q14.03843,19.47919,14.019214999999999,19.38259Q14,19.285989999999998,14,19.1875L14.000002,17.125Q14.000003,17.0265086,14.019217,16.92991Q14.038432,16.833311,14.076123,16.742317Q14.113814,16.651322,14.168533,16.56943Q14.223252,16.487537,14.292896,16.417893Q14.36254,16.348249,14.444432,16.29353Q14.526325,16.238812,14.617319,16.201121Q14.708313,16.163429999999998,14.804912,16.144215Q14.901511,16.125,15.00000241399,16.125Q15.0984938,16.125,15.195093,16.144215Q15.291692,16.163429999999998,15.382686,16.201121Q15.47368,16.238812,15.555573,16.29353Q15.637465,16.348249,15.707108999999999,16.417893Q15.776753,16.487537,15.831472,16.56943Q15.886191,16.651322,15.923882,16.742317Q15.961573,16.833311,15.980788,16.92991Q16,17.0265086,16,17.125Z" fill-rule="evenodd" fill="#000000" fill-opacity="1"/></g><g><rect x="9" y="11" width="23" height="19" rx="5" fill-opacity="0" stroke-opacity="1" stroke="#000000" fill="none" stroke-width="2"/></g></g></g></svg>