<svg xmlns="http://www.w3.org/2000/svg" xmlns:xlink="http://www.w3.org/1999/xlink" fill="none" version="1.1" width="34" height="34" viewBox="0 0 34 34"><defs><linearGradient x1="0.5" y1="0" x2="0.5" y2="1" id="master_svg0_43_00611"><stop offset="0%" stop-color="#5D19D2" stop-opacity="1"/><stop offset="100%" stop-color="#5D19D2" stop-opacity="0"/></linearGradient><mask id="master_svg1_43_01295" style="mask-type:alpha" maskUnits="objectBoundingBox"><g><ellipse cx="17.000000476837158" cy="17.000000476837158" rx="14.384615898132324" ry="14.384615898132324" fill="#FFFFFF" fill-opacity="1"/></g></mask></defs><g><g><g><path d="M34,17Q34,20.2426,32.8064,23.2576Q31.5104,26.5312,29.0208,29.0208Q26.5312,31.5104,23.2576,32.8064Q20.2426,34,17,34Q13.7574,34,10.7424,32.8064Q7.46877,31.5104,4.97918,29.0208Q2.48959,26.5312,1.1936,23.2576Q0,20.2426,0,17Q0,13.7574,1.1936,10.7424Q2.48959,7.46878,4.97918,4.97918Q7.46878,2.48959,10.7424,1.1936Q13.7574,0,17,0Q20.2426,0,23.2576,1.1936Q26.5312,2.48959,29.0208,4.97918Q31.5104,7.46877,32.8064,10.7424Q34,13.7574,34,17ZM32.6923,17C32.6923,25.6666,25.6666,32.6923,17,32.6923C8.33338,32.6923,1.30769,25.6666,1.30769,17C1.30769,8.33338,8.33338,1.30769,17,1.30769C25.6666,1.30769,32.6923,8.33338,32.6923,17Z" fill-rule="evenodd" fill="url(#master_svg0_43_00611)" fill-opacity="1"/></g></g><g mask="url(#master_svg1_43_01295)"><g><rect x="2.615384578704834" y="2.615384578704834" width="28.76923179626465" height="28.76923179626465" rx="0" fill="#5D19D2" fill-opacity="1" style="mix-blend-mode:passthrough"/></g><g><path d="M24.846192527770995,18.532114578704835C24.846192527770995,14.441144578704833,21.472092527770997,11.115384578704834,17.326922527770996,11.115384578704834C13.181702527770996,11.115384578704834,9.807692527770996,14.443404578704834,9.807692527770996,18.532114578704835C9.807692527770996,21.835184578704833,12.008832527770997,24.637984578704835,15.038562527770996,25.595684578704834C13.489272527770996,26.408384578704833,12.433452527770996,28.013584578704833,12.433452527770996,29.860984578704834L12.433452527770996,31.384584578704835L22.220392527770997,31.384584578704835L22.222692527770995,30.773384578704835C22.224992527770993,30.345484578704834,22.224992527770993,30.218684578704835,22.222692527770995,30.091884578704835L22.222692527770995,29.860984578704834C22.222692527770995,28.013584578704833,21.164592527770996,26.406184578704835,19.617582527770995,25.595684578704834C22.644992527770995,24.637984578704835,24.846192527770995,21.835184578704833,24.846192527770995,18.532114578704835ZM20.976392527770997,22.684184578704834C20.850092527770997,22.684184578704834,20.721592527770994,22.645684578704834,20.611392527770995,22.566484578704834C20.333692527770996,22.367284578704833,20.271692527770995,21.984684578704837,20.473692527770996,21.710684578704836C23.025992527770995,18.242334578704835,20.618292527770997,15.518784578704835,20.514992527770996,15.403324578704833C20.285492527770998,15.152024578704834,20.308492527770994,14.762624578704834,20.563192527770994,14.536224578704834C20.817992527770997,14.309834578704834,21.212792527770993,14.332474578704833,21.442292527770995,14.583774578704833C21.474392527770995,14.619994578704834,24.616592527770997,18.167614578704836,21.483592527770995,22.428384578704836C21.359692527770996,22.595884578704833,21.169192527770996,22.684184578704834,20.976392527770997,22.684184578704834Z" fill="#FFFFFF" fill-opacity="1" style="mix-blend-mode:passthrough"/></g></g></g></svg>