<svg xmlns="http://www.w3.org/2000/svg" xmlns:xlink="http://www.w3.org/1999/xlink" fill="none" version="1.1" width="78" height="78" viewBox="0 0 78 78"><defs><clipPath id="master_svg0_62_4336"><rect x="14" y="12" width="52" height="52" rx="0"/></clipPath><mask id="master_svg1_62_4339" style="mask-type:alpha" maskUnits="objectBoundingBox"><g><path d="M2,0L40.4872,37.5128L78,76L78,23.3846C78,10.4696,67.5303,0,54.6154,0L2,0Z" fill="#FFFFFF" fill-opacity="1" style="mix-blend-mode:passthrough"/></g></mask></defs><g><g><path d="M0,0L39.5,38.5L78,78L78,16C78,7.16344,70.8366,0,62,0L0,0Z" fill="#5D19D2" fill-opacity="1" style="mix-blend-mode:passthrough"/></g><g><g clip-path="url(#master_svg0_62_4336)"><g mask="url(#master_svg1_62_4339)"><g><path d="M58.8688,14L8.13125,14C4.74922,14,2,16.8215,2,20.29138L2,52.3325C2,55.8024,4.74922,58.6239,8.13125,58.6239L29.1266,58.6239L17.8906,71L49.1094,71L37.8734,58.6239L58.8688,58.6239C62.2508,58.6239,65,55.8024,65,52.3325L65,20.29138C65,16.8215,62.2508,14,58.8688,14ZM6.45781,20.29138C6.45781,19.34375,7.21016,18.57425,8.13125,18.57425L58.8688,18.57425C59.7898,18.57425,60.5422,19.34375,60.5422,20.29138L60.5422,42.0297L6.45781,42.0297L6.45781,20.29138Z" fill="#FFFFFF" fill-opacity="1" style="mix-blend-mode:passthrough"/></g></g></g></g></g></svg>