<svg xmlns="http://www.w3.org/2000/svg" xmlns:xlink="http://www.w3.org/1999/xlink" fill="none" version="1.1" width="78" height="78" viewBox="0 0 78 78"><defs><clipPath id="master_svg0_62_4113"><rect x="14" y="12" width="52" height="52" rx="0"/></clipPath><mask id="master_svg1_62_4115" style="mask-type:alpha" maskUnits="objectBoundingBox"><g><path d="M2,0L40.4872,37.5128L78,76L78,23.3846C78,10.4696,67.5303,0,54.6154,0L2,0Z" fill="#FFFFFF" fill-opacity="1" style="mix-blend-mode:passthrough"/></g></mask></defs><g><g><path d="M0,0L39.5,38.5L78,78L78,16C78,7.16344,70.8366,0,62,0L0,0Z" fill="#5D19D2" fill-opacity="1" style="mix-blend-mode:passthrough"/></g><g><g clip-path="url(#master_svg0_62_4113)"><g mask="url(#master_svg1_62_4115)"><g><path d="M17.54688,12L37.575,12C39.6094,12.20015,39.118700000000004,15.73718,39.118700000000004,18.03578L39.118700000000004,28.9784C39.118700000000004,31.3551,39.5719,34.269800000000004,37.975,34.9453C36.9375,35.3832,34.1469,35.0767,32.8,35.0767L22.18125,35.0767C19.72812,35.0767,16.378125,35.6552,16,33.5505L16,13.52614C16.275,12.778709,16.75625,12.240806,17.54688,12ZM20.3,16.50963L20.3,30.7672L34.75,30.7672L34.75,16.30948L20.36875,16.30948C20.29062,16.32199,20.29375,16.41581,20.3,16.50963ZM44.4281,12L64.4562,12C65.2719,12.300225,65.8312,12.850638,66,13.79197L66,33.287800000000004C65.8156,34.0978,65.3875,34.789,64.5875,35.010999999999996C63.2812,35.3738,61.1094,35.0767,59.5469,35.0767L49.2656,35.0767C47.715599999999995,35.0767,45.4156,35.3988,44.159400000000005,35.010999999999996C42.3812,34.4637,42.8812,31.0393,42.8812,28.6469L42.8812,18.432949999999998C42.8812,15.668379999999999,42.2656,12.387791,44.4281,12ZM47.1844,16.50963L47.1844,30.7672L61.6344,30.7672L61.6344,16.30948L47.25,16.30948C47.1719,16.32199,47.1781,16.41581,47.1844,16.50963ZM26.8875,20.68777C28.9,20.31248,30.4812,21.65411,30.5156,23.4711C30.5594,25.869799999999998,28.0781,27.1864,26.146900000000002,26.1888C23.9375,25.0504,24.08437,21.21003,26.8875,20.68777ZM53.7687,20.68777C58.5094,19.81524,58.4187,27.2208,53.7687,26.457700000000003C50.8094,25.969900000000003,50.7156,21.25069,53.7687,20.68777ZM37.4375,62L17.6125,62C16.790625,61.7498,16.234375,61.2369,16,60.4082L16,40.4495C16.196875,39.864599999999996,16.646875,39.182900000000004,17.34375,38.989000000000004C18.65937,38.6231,20.80937,38.9233,22.38437,38.9233L32.6656,38.9233C34.1844,38.9233,36.3969,38.5887,37.7719,38.989000000000004C39.6344,39.53,39.1156,42.8982,39.1156,45.2875L39.1156,55.8297C39.118700000000004,58.4098,39.681200000000004,61.7686,37.4375,62ZM20.3,43.432900000000004L20.3,57.6905L34.75,57.6905L34.75,43.2328L20.36875,43.2328C20.29062,43.2453,20.29375,43.3391,20.3,43.432900000000004ZM66,40.712199999999996L66,46.282C65.8437,48.1615,65.9781,50.3256,65.9344,52.3146L51.6187,52.3146L51.6187,49.0653C50.275,48.9089,48.6406,49.0434,47.1844,48.9996C47.028099999999995,53.1997,47.1625,57.6874,47.1156,61.9969L44.493700000000004,61.9969C42.2406,61.5497,42.8812,58.2159,42.8812,55.5639L42.8812,45.2843C42.8812,43.7394,42.5625,41.4221,42.9469,40.1774C43.4062,38.695,45.393699999999995,38.917100000000005,47.3812,38.917100000000005L57.125,38.917100000000005L57.125,47.7362L61.6281,47.7362C61.6719,44.8184,61.5375,41.7254,61.6937,38.917100000000005C63.8656,38.795100000000005,65.8719,38.8264,66,40.712199999999996ZM27.221899999999998,47.5423C29.3719,47.3077,31.146900000000002,49.3468,30.3125,51.5891C29.1562,54.6977,23.63125,53.528,24.66562,49.6001C24.95625,48.5118,25.78125,47.7018,27.221899999999998,47.5423ZM56.4562,62L51.6187,62C51.6625,60.2987,51.5281,58.4192,51.6875,56.8274L56.4594,56.8274L56.4562,62ZM66,56.8274L66,60.208C65.8125,61.1494,65.2531,61.7279,64.3875,62L60.9594,62C61.0031,60.2987,60.8688,58.4192,61.0281,56.8274C62.6844,56.8274,64.3437,56.8274,66,56.8274Z" fill="#FFFFFF" fill-opacity="1" style="mix-blend-mode:passthrough"/></g></g></g></g></g></svg>