<svg xmlns="http://www.w3.org/2000/svg" xmlns:xlink="http://www.w3.org/1999/xlink" fill="none" version="1.1" width="20" height="20" viewBox="0 0 20 20"><defs><clipPath id="master_svg0_19_853"><rect x="0" y="0" width="20" height="20" rx="0"/></clipPath></defs><g clip-path="url(#master_svg0_19_853)"><g><rect x="0" y="0" width="20" height="20" rx="0" fill="#FFFFFF" fill-opacity="0.009999999776482582" style="mix-blend-mode:passthrough"/></g><g><path d="M14.3601552734375,8.051617226562499L14.3605552734375,8.0512272265625Q14.4660552734375,7.9457372265625,14.5231552734375,7.8079072265625005Q14.5802552734375,7.6700772265624995,14.5802552734375,7.5208972265625Q14.5802552734375,7.447027226562501,14.5658552734375,7.3745772265625Q14.5513552734375,7.3021272265625,14.5231552734375,7.2338872265625Q14.4948552734375,7.165637226562501,14.4538552734375,7.1042172265625005Q14.4127552734375,7.0427972265625005,14.3605552734375,6.9905672265625Q14.3083552734375,6.9383372265625,14.2468552734375,6.8972972265625Q14.1854552734375,6.8562572265625,14.1172552734375,6.827987226562501Q14.0489552734375,6.7997172265625,13.9765552734375,6.7853072265625Q13.9040552734375,6.7708972265625,13.8302552734375,6.7708972265625Q13.6810552734375,6.7708972265625,13.5431552734375,6.827987226562501Q13.4053552734375,6.8850772265625,13.2998552734375,6.9905672265625L13.2994552734375,6.9909572265625L7.1127152734375,13.1777772265625Q6.7591552734375,13.5313372265625,6.4055852734375005,13.1777772265625Q6.0520552734374995,12.8242072265625,6.405615273437499,12.4706172265625L13.7712552734375,5.1049772265625Q14.2838552734375,4.5924072265625,15.0087552734375,4.5924072265625Q15.7335552734375,4.5924072265625,16.246155273437502,5.1049772265625Q16.7587552734375,5.6175272265625,16.7587552734375,6.3424072265625Q16.7587552734375,7.067287226562501,16.246155273437502,7.5798672265625004L8.8804752734375,14.9455072265625Q8.0017952734375,15.8242072265625,6.7591552734375,15.8242072265625Q5.516505273437501,15.8242072265625,4.6378352734375,14.9455072265625Q3.7591552734375,14.0668072265625,3.7591552734375,12.8242072265625Q3.7591552734375,11.5815672265625,4.6378352734375,10.7028972265625L10.8245152734375,4.5162052265625L10.825005273437501,4.5157102265625Q10.9304952734375,4.4102212265625,10.9875852734375,4.2723932265624995Q11.0446752734375,4.1345652265625,11.0446752734375,3.9853812265625Q11.0446752734375,3.9115123265625,11.0302652734375,3.8390631565625Q11.0158552734375,3.7666139265625,10.9875852734375,3.6983682265625Q10.9593152734375,3.6301222265625,10.9182752734375,3.5687032265625Q10.877235273437499,3.5072842265625,10.825005273437501,3.4550512265625Q10.7727752734375,3.4028182265625,10.711355273437501,3.3617782265625Q10.6499352734375,3.3207392265625,10.5816852734375,3.2924712265625002Q10.513445273437501,3.2642032265625,10.440995273437501,3.2497922265625Q10.368545273437501,3.2353812265625,10.2946752734375,3.2353812265625Q10.1454952734375,3.2353812265625,10.0076652734375,3.2924712265625002Q9.8698352734375,3.3495622265625,9.764345273437499,3.4550512265625L3.5771762734375,9.6422272265625Q2.2591552734375,10.960247226562501,2.2591552734375,12.8242072265625Q2.2591552734375,14.6882072265625,3.5771752734374997,16.006207226562502Q4.8951952734374995,17.3242072265625,6.7591552734375,17.3242072265625Q8.623115273437499,17.3242072265625,9.9411252734375,16.006207226562502L17.3068552734375,8.6405072265625Q18.2587552734375,7.6885872265625,18.2587552734375,6.3424072265625Q18.2587552734375,4.9962072265625,17.3068552734375,4.0443142265625Q16.3549552734375,3.0924072265625,15.0087552734375,3.0924072265625Q13.6625552734375,3.0924072265625,12.7106352734375,4.0443162265625L5.3449052734375,11.410007226562499Q4.7591652734375,11.9957972265625,4.7591652734375,12.8242072265625Q4.7591652734375,13.6526172265625,5.3449252734375,14.2384072265625Q5.9307252734375,14.8242072265625,6.7591552734375,14.8242072265625Q7.5875852734375,14.8242072265625,8.1733852734375,14.2384072265625L14.3601552734375,8.051617226562499Z" fill-rule="evenodd" fill="#5D19D2" fill-opacity="1" style="mix-blend-mode:passthrough"/></g></g></svg>