<svg xmlns="http://www.w3.org/2000/svg" xmlns:xlink="http://www.w3.org/1999/xlink" fill="none" version="1.1" width="44" height="44" viewBox="0 0 44 44"><defs><clipPath id="master_svg0_43_6908"><rect x="0" y="0" width="44" height="44" rx="0"/></clipPath><linearGradient x1="0.5" y1="0" x2="0.5" y2="1.7730077505111694" id="master_svg1_43_6768"><stop offset="0%" stop-color="#5D19D2" stop-opacity="1"/><stop offset="100%" stop-color="#5D19D2" stop-opacity="0"/></linearGradient></defs><g clip-path="url(#master_svg0_43_6908)"><g><g></g><g transform="matrix(-1,0,0,1,73.91932678222656,0)"><g transform="matrix(-1,0,0,-1,133.17323303222656,80.95998287200928)"><path d="M92.25331651611327,40.47999143600464C94.27831651611328,40.47999143600464,95.91991651611329,42.12161143600464,95.91991651611329,44.146661436004635L95.92011651611328,66.87999143600464L88.40311651611329,66.87999143600464C86.88431651611327,66.87999143600464,85.65311651611329,68.11119143600465,85.65311651611329,69.62999143600464L85.65311651611329,77.14669143600463L70.25328651611328,77.14669143600463C68.22823651611328,77.14669143600463,66.58661651611328,75.50499143600464,66.58661651611328,73.47999143600464L66.58661651611328,44.146661436004635C66.58661651611328,42.12161143600464,68.22823651611328,40.47999143600464,70.25328651611328,40.47999143600464L92.25331651611327,40.47999143600464Z" fill-rule="evenodd" fill="url(#master_svg1_43_6768)" fill-opacity="1" style="mix-blend-mode:passthrough"/></g><g transform="matrix(-1,0,0,-1,91.52088928222656,24.933493614196777)"><path d="M45.76044464111328,21.26674680709839C46.32014464111328,21.14804680709839,46.83333464111328,20.86937680709839,47.23769464111328,20.46459680709839L53.75829464111328,13.943996807098388C54.16307464111328,13.539636807098388,54.441734641113285,13.02644480709839,54.56044464111328,12.466746807098389L46.63576464111328,12.466746807098389C46.15233864111328,12.466746807098389,45.76044464111328,12.85864080709839,45.76044464111328,13.342066807098389L45.76044464111328,21.26674680709839Z" fill="#9B71E3" fill-opacity="1" style="mix-blend-mode:passthrough"/></g></g></g><g transform="matrix(0,1,-1,0,50.15997314453125,-7.92010498046875)"><path d="M29.0400390625,34.099934082031254C29.0400390625,34.70743408203125,29.5325260625,35.19993408203125,30.1400390625,35.19993408203125C30.7475490625,35.19993408203125,31.2400390625,34.70743408203125,31.2400390625,34.099934082031254L31.2400390625,22.21993408203125C31.2400390625,21.61242108203125,30.7475490625,21.11993408203125,30.1400390625,21.11993408203125C29.5325260625,21.11993408203125,29.0400390625,21.61242108203125,29.0400390625,22.21993408203125L29.0400390625,34.099934082031254Z" fill="#FFFFFF" fill-opacity="1"/></g><g transform="matrix(0,1,-1,0,55.4400634765625,-2.6400146484375)"><path d="M29.0400390625,39.380024414062504C29.0400390625,39.9875244140625,29.5325260625,40.4800244140625,30.1400390625,40.4800244140625C30.7475490625,40.4800244140625,31.2400390625,39.9875244140625,31.2400390625,39.380024414062504L31.2400390625,27.5000244140625C31.2400390625,26.8925114140625,30.7475490625,26.4000244140625,30.1400390625,26.4000244140625C29.5325260625,26.4000244140625,29.0400390625,26.8925114140625,29.0400390625,27.5000244140625L29.0400390625,39.380024414062504Z" fill="#FFFFFF" fill-opacity="1"/></g><g transform="matrix(0,1,-1,0,56.32061767578125,7.03936767578125)"><path d="M24.640625,40.25999267578125C24.640625,40.86750267578125,25.133112,41.35999267578125,25.740625,41.35999267578125C26.348135,41.35999267578125,26.840625,40.86750267578125,26.840625,40.25999267578125L26.840625,32.77999267578125C26.840625,32.17247967578125,26.348135,31.67999267578125,25.740625,31.67999267578125C25.133112,31.67999267578125,24.640625,32.17247967578125,24.640625,32.77999267578125L24.640625,40.25999267578125Z" fill="#FFFFFF" fill-opacity="1"/></g></g></svg>