<svg xmlns="http://www.w3.org/2000/svg" xmlns:xlink="http://www.w3.org/1999/xlink" fill="none" version="1.1" width="24" height="24" viewBox="0 0 24 24"><defs><clipPath id="master_svg0_43_5443"><rect x="0" y="0" width="24" height="24" rx="0"/></clipPath></defs><g clip-path="url(#master_svg0_43_5443)"><g><g></g><g><path d="M5.10565,18.8944Q2.25,16.0387,2.25,12Q2.25,7.9613,5.10565,5.10565Q7.9613,2.25,12,2.25Q16.0387,2.25,18.8943,5.10565Q21.75,7.9613,21.75,12Q21.75,16.0387,18.8944,18.8944Q16.0387,21.75,12.00001,21.75Q7.96129,21.75,5.10565,18.8944ZM17.8336,17.8336Q20.25,15.4173,20.25,12Q20.25,8.58273,17.8336,6.166370000000001Q15.4173,3.75,12,3.75Q8.582740000000001,3.75,6.166370000000001,6.166370000000001Q3.75,8.582740000000001,3.75,12Q3.75,15.4173,6.166370000000001,17.8336Q8.58273,20.25,12,20.25Q15.4173,20.25,17.8336,17.8336ZM11.25,11.25L11.25,8Q11.25,7.68934,11.46967,7.46967Q11.68934,7.25,12,7.25Q12.3107,7.25,12.5303,7.46967Q12.75,7.68934,12.75,8L12.75,11.25L16,11.25Q16.3107,11.25,16.5303,11.46967Q16.75,11.68934,16.75,12Q16.75,12.3107,16.5303,12.5303Q16.3107,12.75,16,12.75L12.75,12.75L12.75,16Q12.75,16.3107,12.5303,16.5303Q12.3107,16.75,12,16.75Q11.68934,16.75,11.46967,16.5303Q11.25,16.3107,11.25,16L11.25,12.75L8,12.75Q7.68934,12.75,7.46967,12.5303Q7.25,12.3107,7.25,12Q7.25,11.68934,7.46967,11.46967Q7.68934,11.25,8,11.25L11.25,11.25Z" fill-rule="evenodd" fill="#000000" fill-opacity="1"/></g></g></g></svg>