<svg xmlns="http://www.w3.org/2000/svg" xmlns:xlink="http://www.w3.org/1999/xlink" fill="none" version="1.1" width="101" height="28" viewBox="0 0 101 28"><g><g><g><path d="M19.668,21.0738C11.2683,23.1404,5.21112,20.2844,3.94351,14.9884C2.76053,10.0462,7.15214,4.1376,14.5759,2.24786C17.943,1.39051,21.1732,1.6102,23.8489,2.57294C20.4278,-0.211669,15.0999,-0.952912,9.60272,1.4298C2.32299,4.58413,-1.71211,11.568,0.698867,17.28C3.10804,22.9903,10.0781,25.3052,18.3301,21.8169C18.9459,21.5561,19.5329,21.2721,20.0929,20.9649C19.9524,21.0024,19.812,21.0381,19.6698,21.0738L19.668,21.0738Z" fill="#5D19D2" fill-opacity="1" style="mix-blend-mode:passthrough"/></g><g><path d="M11.828229371795654,15.927974505615234C10.249119371795654,13.266584505615235,12.152329371795656,9.249544505615233,16.079389371795656,6.957924505615234C18.090619371795654,5.782634505615235,20.244119371795655,5.289655505615235,22.077119371795654,5.445059505615235C19.792219371795653,4.3930175056152345,16.561959371795652,4.459104505615234,13.475769371795653,5.8487345056152344C8.769049371795655,7.9670945056152345,6.179819371795654,12.362794505615234,7.690510371795654,15.667174505615234C9.201199371795655,18.971574505615234,14.242809371795655,19.930674505615237,18.949519371795652,17.812374505615235C18.976519371795654,17.799774505615233,19.003519371795655,17.787274505615237,19.028719371795653,17.774774505615234C15.960569371795655,18.624974505615235,13.041829371795654,17.974874505615233,11.828239371795654,15.929674505615234L11.828229371795654,15.927974505615234Z" fill="#5D19D2" fill-opacity="1" style="mix-blend-mode:passthrough"/></g><g><path d="M29.012905084991456,20.38080363342285C28.346705084991456,17.689079633422853,24.414305084991454,16.217297633422852,20.152305084991454,17.367575633422852C19.844405084991457,17.45151863342285,19.543705084991455,17.54261463342285,19.252005084991453,17.64086063342285C22.068105084991455,17.43902563342285,24.246805084991454,18.26780363342285,24.720405084991455,19.802093633422853C25.550405084991453,22.48845363342285,22.431905084991456,24.556803633422852,18.252705084991454,25.89284363342285C11.817455084991455,27.950433633422854,5.650475084991455,26.167903633422853,3.880505084991455,25.832103633422854C7.121545084991455,26.84128363342285,15.249305084991455,29.254333633422853,22.561505084991456,27.18953363342285C26.409305084991455,26.103593633422854,29.677405084991456,23.07072363342285,29.012905084991456,20.37900363342285L29.012905084991456,20.38080363342285Z" fill="#5D19D2" fill-opacity="1" style="mix-blend-mode:passthrough"/></g><g><path d="M30.66947403442383,19.764583465576173C30.24093403442383,18.66788346557617,29.13538403442383,17.874836465576173,28.001034034423828,17.417583465576172C28.69424403442383,17.92663046557617,29.45408403442383,18.591083465576173,29.77098403442383,19.403773465576172C30.85854403442383,22.190153465576174,28.708644034423827,25.537403465576173,25.449604034423828,27.103843465576173C25.72870203442383,27.02346346557617,26.00777803442383,26.928803465576173,26.290481034423827,26.818063465576174C29.477494034423827,25.55883346557617,31.68860403442383,22.37950346557617,30.66947403442383,19.764583465576173Z" fill="#5D19D2" fill-opacity="1" style="mix-blend-mode:passthrough"/></g><g><g><path d="M26.95848347167969,5.716554969558716L28.678043471679686,5.716554969558716Q28.97875347167969,5.977334969558716,29.241623471679688,6.097004969558716L31.74984347167969,6.097004969558716Q27.828183471679687,5.741564969558716,27.817383471679687,2.083544969558716Q27.808373471679687,5.741564969558716,23.884933471679688,6.097004969558716L26.393143471679686,6.097004969558716Q26.65602347167969,5.977334969558716,26.956723471679688,5.716554969558716L26.95848347167969,5.716554969558716ZM28.125253471679688,5.050324969558716L27.511253471679687,5.050324969558716C27.68951347167969,4.737754969558716,27.81734347167969,4.351954969558715,27.81734347167969,3.8804049695587155C27.81734347167969,4.3501649695587155,27.945173471679688,4.737754969558716,28.12343347167969,5.050324969558716L28.125253471679688,5.050324969558716Z" fill="#5D19D2" fill-opacity="1" style="mix-blend-mode:passthrough"/></g><g><path d="M25.00306260585785,6.502454996109009Q27.67691260585785,7.2044089961090085,27.819162605857848,9.34420499610901Q27.961422605857848,7.2044089961090085,30.63527260585785,6.502454996109009L25.00306260585785,6.502454996109009Z" fill="#5D19D2" fill-opacity="1" style="mix-blend-mode:passthrough"/></g></g></g><g><g><path d="M38.22288830395508,25.382006947631837L38.22288830395508,24.247806947631837L41.15243030395508,24.247806947631837C41.62058030395508,24.247806947631837,41.930270303955076,24.203156947631836,42.08514030395508,24.113846947631835C42.30841030395508,23.979886947631837,42.421850303955075,23.779846947631835,42.421850303955075,23.513706947631835C42.421850303955075,23.202916947631834,42.29041030395508,22.976076947631835,42.027530303955075,22.836766947631837C41.87989030395508,22.754596947631835,41.64401030395508,22.713516947631835,41.31631030395508,22.713516947631835L40.12433030395508,22.713516947631835C39.40049030395508,22.713516947631835,38.87832330395508,22.583136947631836,38.557837303955075,22.322356947631835C38.359778303955075,22.158026947631836,38.203128303955076,21.950836947631835,38.091493303955076,21.702566947631837C37.97985870395508,21.454286947631836,37.92403030395508,21.188156947631835,37.92403030395508,20.902376947631836C37.92403030395508,20.457626947631837,38.05546930395508,20.050386947631836,38.31834630395508,19.682436947631835C38.574036303955076,19.326995947631836,38.984550303955075,19.116232047631836,39.54813030395508,19.053710447631836C39.74078030395508,19.034065487631835,40.025290303955074,19.025136947631836,40.40341030395508,19.025136947631836L43.58323030395508,19.025136947631836L43.58323030395508,20.159336947631836L40.71132030395508,20.159336947631836C40.28278030395508,20.166476947631836,39.99650030395508,20.184346947631838,39.85605030395508,20.216496947631835C39.567960303955076,20.286156947631834,39.42390030395508,20.502266947631835,39.42390030395508,20.864866947631835C39.42390030395508,21.170296947631837,39.54635030395508,21.373906947631838,39.78943030395508,21.473936947631834C39.94968030395508,21.550736947631837,40.21796030395508,21.588246947631838,40.59608030395508,21.588246947631838L41.62420030395508,21.588246947631838C42.149980303955076,21.588246947631838,42.54069030395508,21.632906947631835,42.796380303955075,21.722206947631836C43.25193030395508,21.874026947631837,43.565230303955076,22.141946947631837,43.73808030395508,22.522396947631837C43.873120303955076,22.827836947631837,43.93974030395508,23.154696947631834,43.93974030395508,23.502996947631836C43.93974030395508,23.890586947631835,43.84971030395508,24.237096947631837,43.67146030395508,24.542526947631835C43.42117030395508,24.974776947631835,43.04666030395508,25.235556947631835,42.547900303955075,25.323076947631836C42.30483030395508,25.360586947631838,41.93570030395508,25.380236947631836,41.44234030395508,25.380236947631836L38.22471230395508,25.380236947631836L38.22288830395508,25.382006947631837Z" fill="#5D19D2" fill-opacity="1" style="mix-blend-mode:passthrough"/></g><g><path d="M45.2451375258789,20.741548404278756L45.2451375258789,19.026858404278755L46.53255152587891,19.026858404278755L46.53255152587891,20.741548404278756L47.72453152587891,20.741548404278756L47.72453152587891,21.732858404278755L46.53255152587891,21.732858404278755L46.53255152587891,23.418978404278754C46.53255152587891,23.813728404278756,46.568561525878906,24.060208404278754,46.638781525878905,24.162018404278754C46.746811525878904,24.313828404278755,46.93949152587891,24.390648404278757,47.214961525878905,24.390648404278757L47.72451152587891,24.390648404278757L47.72451152587891,25.381958404278755L46.79361152587891,25.381958404278755C46.237231525878904,25.381958404278755,45.839291525878906,25.247988404278754,45.601621525878905,24.981858404278753C45.36396052587891,24.715728404278757,45.246918525878904,24.267398404278754,45.246918525878904,23.638678404278757L45.246918525878904,21.732858404278755L44.431251525878906,21.732858404278755L44.431251525878906,20.741548404278756L45.246918525878904,20.741548404278756L45.2451375258789,20.741548404278756Z" fill="#5D19D2" fill-opacity="1" style="mix-blend-mode:passthrough"/></g><g><path d="M52.42045887237549,22.561686520614625L52.42045887237549,23.552996520614624L49.71237887237549,23.552996520614624C49.73758887237549,23.858436520614624,49.836608872375486,24.074546520614625,50.00947887237549,24.201366520614624C50.182328872375486,24.328186520614622,50.46322887237549,24.392486520614625,50.85393887237549,24.392486520614625L52.42042887237549,24.392486520614625L52.42042887237549,25.383796520614624L50.70988887237549,25.383796520614624C50.338958872375485,25.383796520614624,50.03646887237549,25.349856520614622,49.80238887237549,25.283776520614623C49.56830887237549,25.217686520614624,49.34863887237549,25.106946520614624,49.14517287237549,24.955116520614624C48.57438187237549,24.517506520614624,48.28989887237549,23.865576520614624,48.28989887237549,23.001076520614625C48.28989887237549,22.442006520614623,48.44114087237549,21.952606520614623,48.74184487237549,21.532869520614625C48.94711387237549,21.247090520614623,49.193791872375485,21.043467520614623,49.48187887237549,20.923798520614625C49.769968872375486,20.802342320614624,50.14808887237549,20.743396520614624,50.616248872375486,20.743396520614624L52.42223887237549,20.743396520614624L52.42223887237549,21.734704520614624L50.71168887237549,21.734704520614624C50.35877887237549,21.734704520614624,50.11209887237549,21.793646520614622,49.97164887237549,21.911526520614625C49.83119887237549,22.029416520614625,49.74477887237549,22.247326520614624,49.71237887237549,22.563476520614625L52.42045887237549,22.563476520614625L52.42045887237549,22.561686520614625Z" fill="#5D19D2" fill-opacity="1" style="mix-blend-mode:passthrough"/></g><g><path d="M54.75579997436523,25.38195784308076L53.468379974365234,25.38195784308076L53.468379974365234,19.02684784308076L54.75579997436523,19.02684784308076L54.75579997436523,25.38195784308076Z" fill="#5D19D2" fill-opacity="1" style="mix-blend-mode:passthrough"/></g><g><path d="M57.31080981628418,25.38195784308076L56.02338981628418,25.38195784308076L56.02338981628418,19.02684784308076L57.31080981628418,19.02684784308076L57.31080981628418,25.38195784308076Z" fill="#5D19D2" fill-opacity="1" style="mix-blend-mode:passthrough"/></g><g><path d="M61.80683666625976,22.561688619689942C61.80683666625976,22.238398619689942,61.74021666625977,22.018708619689942,61.61058666625976,21.904388619689943C61.479146666259766,21.790078619689943,61.21804666625977,21.73291661968994,60.82733666625977,21.73291661968994L58.655831666259765,21.73291661968994L58.655831666259765,20.74160861968994L60.82733666625977,20.74160861968994C61.218066666259766,20.74160861968994,61.486356666259766,20.75053715968994,61.63399666625977,20.764829419689942C61.78162666625977,20.780909519689942,61.93109666625976,20.811270919689942,62.08593666625977,20.85592461968994C62.79715666625977,21.12205861968994,63.13386666625976,21.76149861968994,63.09425666625977,22.770668619689943L63.09425666625977,25.38200861968994L60.38618666625977,25.38200861968994C59.900036666259766,25.38200861968994,59.56332666625977,25.367718619689942,59.37786666625976,25.339148619689944C59.19239966625977,25.310568619689942,59.028562666259766,25.251628619689942,58.888112666259765,25.16231861968994C58.50999566625977,24.90868861968994,58.320926666259766,24.52465861968994,58.320926666259766,24.008468619689943C58.320926666259766,23.697678619689942,58.396558766259766,23.419038619689942,58.54599866625976,23.17433861968994C58.697240666259766,22.929638619689943,58.89710266625976,22.763528619689943,59.14558266625976,22.674218619689942C59.36344666625977,22.59741861968994,59.72536666625977,22.559898619689942,60.231336666259764,22.559898619689942L61.80683666625976,22.559898619689942L61.80683666625976,22.561688619689942ZM61.80683666625976,23.55299861968994L60.10710666625977,23.55299861968994C59.959466666259765,23.55299861968994,59.84242666625977,23.590508619689942,59.756006666259765,23.66731861968994C59.669576666259765,23.744118619689942,59.62636666625976,23.847718619689942,59.62636666625976,23.98167861968994C59.62636666625976,24.128138619689942,59.67858666625977,24.233518619689942,59.784816666259765,24.29603861968994C59.89104666625977,24.36033861968994,60.071106666259766,24.390708619689942,60.32679666625977,24.390708619689942L61.806866666259765,24.390708619689942L61.80683666625976,23.55299861968994Z" fill="#5D19D2" fill-opacity="1" style="mix-blend-mode:passthrough"/></g><g><path d="M64.29344749450684,20.74160861968994L66.19126749450683,20.74160861968994C66.58019749450683,20.74160861968994,66.88267749450684,20.76840511968994,67.09695749450684,20.821987319689942C67.31123749450684,20.87556961968994,67.48768749450683,20.96666461968994,67.62811749450684,21.093484619689942C67.76856749450684,21.22030461968994,67.86758749450684,21.37926361968994,67.92521749450684,21.57038261968994C67.98282749450684,21.76149861968994,68.01164749450683,22.03477861968994,68.01164749450683,22.390228619689942L68.01164749450683,22.83854861968994L66.78185749450684,22.83854861968994L66.78185749450684,22.59027861968994C66.78185749450684,22.25983861968994,66.72424749450684,22.03478861968994,66.60900749450684,21.913328619689942C66.49376749450684,21.791868619689943,66.27229749450683,21.732927619689942,65.94638749450684,21.732927619689942L65.58086749450683,21.732927619689942L65.58086749450683,25.38201861968994L64.29344749450684,25.38201861968994L64.29344749450684,20.74160861968994Z" fill="#5D19D2" fill-opacity="1" style="mix-blend-mode:passthrough"/></g><g><path d="M73.68886995605469,24.24775784308076L73.68886995605469,25.38195784308076L71.45073995605469,25.38195784308076C71.02760995605469,25.38195784308076,70.70529995605469,25.360517843080757,70.48022995605469,25.31586784308076C69.69337995605468,25.16404784308076,69.1315969560547,24.72822784308076,68.79849495605468,24.01019784308076C68.58063195605469,23.527937843080757,68.47257995605469,22.929577843080757,68.47257995605469,22.218687843080758C68.47257995605469,21.366697843080757,68.63824095605469,20.67545784308076,68.97134295605468,20.14139784308076C69.21441695605469,19.75380984308076,69.54032995605469,19.47159584308076,69.9472599560547,19.29298184308076C70.35419995605469,19.11436724308076,70.87816995605469,19.02684784308076,71.51735995605469,19.02684784308076L73.68886995605469,19.02684784308076L73.68886995605469,20.16104784308076L71.6722299560547,20.16104784308076C71.06362995605468,20.16104784308076,70.61889995605469,20.32357784308076,70.33618995605468,20.64686784308076C70.09852995605469,20.91300784308076,69.98148995605469,21.39705784308076,69.98148995605469,22.09542784308076C69.98148995605469,23.034947843080758,70.16334995605469,23.65116784308076,70.52886995605469,23.94408784308076C70.7845599560547,24.14770784308076,71.18607995605468,24.24951784308076,71.72985995605468,24.24951784308076L73.68888995605468,24.24951784308076L73.68886995605469,24.24775784308076Z" fill="#5D19D2" fill-opacity="1" style="mix-blend-mode:passthrough"/></g><g><path d="M77.83737713256836,22.561688619689942C77.83737713256836,22.238398619689942,77.77256713256835,22.018708619689942,77.64112713256836,21.904388619689943C77.50968713256836,21.790078619689943,77.24858713256836,21.73291661968994,76.85787713256836,21.73291661968994L74.68637213256837,21.73291661968994L74.68637213256837,20.74160861968994L76.85787713256836,20.74160861968994C77.24860713256835,20.74160861968994,77.51689713256836,20.75053715968994,77.66453713256836,20.764829419689942C77.81216713256836,20.780909519689942,77.96163713256836,20.811270919689942,78.11647713256836,20.85592461968994C78.82769713256836,21.12205861968994,79.16440713256836,21.76149861968994,79.12479713256836,22.770668619689943L79.12479713256836,25.38200861968994L76.41672713256835,25.38200861968994C75.93057713256836,25.38200861968994,75.59386713256836,25.367718619689942,75.40840713256836,25.339148619689944C75.22294013256835,25.310568619689942,75.05910313256835,25.251628619689942,74.91865313256837,25.16231861968994C74.54053613256836,24.90868861968994,74.35146713256836,24.52465861968994,74.35146713256836,24.008468619689943C74.35146713256836,23.697678619689942,74.42709923256837,23.419038619689942,74.57653913256836,23.17433861968994C74.72778113256835,22.929638619689943,74.92764313256836,22.763528619689943,75.17612313256836,22.674218619689942C75.39398713256836,22.59741861968994,75.75590713256835,22.559898619689942,76.26187713256836,22.559898619689942L77.83737713256836,22.559898619689942L77.83737713256836,22.561688619689942ZM77.83737713256836,23.55299861968994L76.13764713256836,23.55299861968994C75.99000713256837,23.55299861968994,75.87296713256836,23.590508619689942,75.78654713256836,23.66731861968994C75.70011713256837,23.744118619689942,75.65690713256836,23.847718619689942,75.65690713256836,23.98167861968994C75.65690713256836,24.128138619689942,75.70912713256836,24.233518619689942,75.81535713256837,24.29603861968994C75.92158713256836,24.36033861968994,76.10164713256836,24.390708619689942,76.35733713256836,24.390708619689942L77.83740713256836,24.390708619689942L77.83737713256836,23.55299861968994Z" fill="#5D19D2" fill-opacity="1" style="mix-blend-mode:passthrough"/></g><g><path d="M80.32579040527344,20.74160861968994L82.22361040527343,20.74160861968994C82.61254040527344,20.74160861968994,82.91502040527344,20.76840511968994,83.12930040527344,20.821987319689942C83.34358040527344,20.87556961968994,83.52003040527343,20.96666461968994,83.66046040527344,21.093484619689942C83.80091040527344,21.22030461968994,83.89993040527344,21.37926361968994,83.95756040527344,21.57038261968994C84.01517040527344,21.76149861968994,84.04399040527343,22.03477861968994,84.04399040527343,22.390228619689942L84.04399040527343,22.83854861968994L82.81420040527344,22.83854861968994L82.81420040527344,22.59027861968994C82.81420040527344,22.25983861968994,82.75659040527344,22.03478861968994,82.64135040527344,21.913328619689942C82.52611040527344,21.791868619689943,82.30464040527343,21.732927619689942,81.97873040527344,21.732927619689942L81.61321040527343,21.732927619689942L81.61321040527343,25.38201861968994L80.32579040527344,25.38201861968994L80.32579040527344,20.74160861968994Z" fill="#5D19D2" fill-opacity="1" style="mix-blend-mode:passthrough"/></g><g><path d="M88.64445312744141,22.561686520614625L88.64445312744141,23.552996520614624L85.9363731274414,23.552996520614624C85.9615831274414,23.858436520614624,86.06060312744141,24.074546520614625,86.2334731274414,24.201366520614624C86.40632312744141,24.328186520614622,86.6872231274414,24.392486520614625,87.07793312744141,24.392486520614625L88.6444231274414,24.392486520614625L88.6444231274414,25.383796520614624L86.9338831274414,25.383796520614624C86.5629531274414,25.383796520614624,86.26046312744141,25.349856520614622,86.0263831274414,25.283776520614623C85.7923031274414,25.217686520614624,85.5726331274414,25.106946520614624,85.3691671274414,24.955116520614624C84.7983761274414,24.517506520614624,84.5138931274414,23.865576520614624,84.5138931274414,23.001076520614625C84.5138931274414,22.442006520614623,84.6651351274414,21.952606520614623,84.96583912744141,21.532869520614625C85.1711081274414,21.247090520614623,85.4177861274414,21.043467520614623,85.70587312744141,20.923798520614625C85.9939631274414,20.802342320614624,86.3720831274414,20.743396520614624,86.84024312744141,20.743396520614624L88.6462331274414,20.743396520614624L88.6462331274414,21.734704520614624L86.93568312744141,21.734704520614624C86.58277312744141,21.734704520614624,86.3360931274414,21.793646520614622,86.1956431274414,21.911526520614625C86.05519312744141,22.029416520614625,85.96877312744141,22.247326520614624,85.9363731274414,22.563476520614625L88.64445312744141,22.563476520614625L88.64445312744141,22.561686520614625Z" fill="#5D19D2" fill-opacity="1" style="mix-blend-mode:passthrough"/></g><g><path d="M91.68923165364258,25.38195784308076L94.33967698364258,19.02684784308076L95.90616698364258,19.02684784308076L98.55661698364258,25.38195784308076L96.96130698364257,25.38195784308076L96.33650698364258,23.91374784308076L93.90572698364258,23.91374784308076L93.28093698364258,25.38195784308076L91.68562698364258,25.38195784308076L91.68923165364258,25.38195784308076ZM95.12832698364258,20.56114784308076L94.21544698364258,22.78132784308076L96.04123698364258,22.78132784308076L95.12832698364258,20.56114784308076Z" fill="#5D19D2" fill-opacity="1" style="mix-blend-mode:passthrough"/></g><g><path d="M99.24985122680664,25.38195784308076L99.24985122680664,19.02684784308076L100.61468122680664,19.02684784308076L100.61468122680664,25.38195784308076L99.24985122680664,25.38195784308076Z" fill="#5D19D2" fill-opacity="1" style="mix-blend-mode:passthrough"/></g></g><g><g><path d="M39.3932601159668,12.285937966732979L43.9865301159668,12.285937966732979L43.9865301159668,11.098147966732979L40.988570115966795,11.098147966732979L40.563630115966795,11.837617966732978L38.2859001159668,11.837617966732978L39.7389601159668,9.245917966732978L42.016690115966796,9.245917966732978L41.708800115966795,9.794257966732978L43.9865301159668,9.794257966732978L43.9865301159668,8.96548796673298L46.05720011596679,8.96548796673298L46.05720011596679,9.794257966732978L51.023200115966794,9.794257966732978L51.023200115966794,11.09635796673298L46.05720011596679,11.09635796673298L46.05720011596679,12.284147966732979L50.65050011596679,12.284147966732979L50.65050011596679,13.573707966732979L46.05720011596679,13.573707966732979L46.05720011596679,14.77400796673298L51.770400115966794,14.77400796673298L51.770400115966794,16.06360796673298L38.287702455966794,16.06360796673298L38.287702455966794,14.77400796673298L43.9865301159668,14.77400796673298L43.9865301159668,13.573707966732979L39.3932601159668,13.573707966732979L39.3932601159668,12.284147966732979L39.3932601159668,12.285937966732979ZM50.65050011596679,2.994407966732979L50.65050011596679,8.711857966732978L48.565400115966796,8.711857966732978L48.565400115966796,8.443937966732978L41.4765401159668,8.443937966732978L41.4765401159668,8.711857966732978L39.315850115966796,8.711857966732978L39.315850115966796,2.994407966732979L41.4765401159668,2.994407966732979L41.4765401159668,3.6963619667329786L42.041920115966796,2.994407966732979L50.6487001159668,2.994407966732979L50.65050011596679,2.994407966732979ZM48.565400115966796,4.296507966732979L41.4765401159668,4.296507966732979L41.4765401159668,5.177067966732979L48.565400115966796,5.177067966732979L48.565400115966796,4.296507966732979ZM48.565400115966796,6.236257966732978L41.4765401159668,6.236257966732978L41.4765401159668,7.002507966732979L48.565400115966796,7.002507966732979L48.565400115966796,6.236257966732978Z" fill="#5D19D2" fill-opacity="1" style="mix-blend-mode:passthrough"/></g><g><path d="M54.69636154174805,16.063618527698146L54.96644854174804,9.694248527698145L56.999301541748046,9.694248527698145L56.729221541748046,16.063618527698146L54.69636154174805,16.063618527698146ZM56.999301541748046,9.681748527698144L54.96644854174804,9.681748527698144L54.96644854174804,3.8999955276981444L57.011901541748045,3.8999955276981444L57.011901541748045,4.666248527698144L57.56467154174805,3.8999955276981444L60.30514154174805,3.8999955276981444L60.18990154174805,2.9944185276981443L62.377611541748045,2.9944185276981443L62.50544154174805,3.8999955276981444L68.17906154174804,3.8999955276981444L68.17906154174804,9.272718527698144L66.14616154174804,9.272718527698144L66.14616154174804,8.774388527698143L56.99926154174805,8.774388527698143L56.99926154174805,9.679968527698144L56.999301541748046,9.681748527698144ZM66.14626154174805,7.422268527698145L66.14626154174805,5.291398527698144L56.999301541748046,5.291398527698144L56.999301541748046,7.422268527698145L66.14626154174805,7.422268527698145ZM57.30722154174805,9.808558527698144L59.31487154174805,9.808558527698144L59.31487154174805,10.574808527698146L59.880251541748045,9.808558527698144L68.02426154174805,9.808558527698144L68.02426154174805,16.061818527698144L66.00406154174804,16.061818527698144L66.00406154174804,15.397418527698145L59.31306154174805,15.397418527698145L59.31306154174805,16.061818527698144L57.305421541748046,16.061818527698144L57.305421541748046,9.808558527698144L57.30722154174805,9.808558527698144ZM66.00406154174804,14.007818527698145L66.00406154174804,11.199968527698145L59.31306154174805,11.199968527698145L59.31306154174805,14.007818527698145L66.00406154174804,14.007818527698145Z" fill="#5D19D2" fill-opacity="1" style="mix-blend-mode:passthrough"/></g><g><path d="M71.1068229675293,6.1077165100860595L74.2596329675293,6.1077165100860595L74.2596329675293,14.77408651008606L75.3669929675293,14.77408651008606L75.3669929675293,16.063686510086058L72.1763729675293,16.063686510086058L72.1763729675293,7.384796510086059L71.1086253075293,7.384796510086059L71.1086253075293,6.107706510086059L71.1068229675293,6.1077165100860595ZM74.1696029675293,5.22714651008606L71.9440959675293,5.22714651008606L71.6992199675293,2.9944635000860598L73.9121329675293,2.9944635000860598L74.1696029675293,5.22714651008606ZM75.71269296752929,11.058916510086059L79.1986029675293,11.058916510086059L79.1986029675293,9.01734651008606L77.7959529675293,9.01734651008606L77.50065296752929,10.34445651008606L75.4552029675293,10.34445651008606L76.1502229675293,7.16690651008606L78.19567296752929,7.16690651008606L78.08043296752929,7.75454651008606L84.25642296752929,7.75454651008606L84.25642296752929,9.01734651008606L81.1036129675293,9.01734651008606L81.1036129675293,11.058916510086059L84.58952296752929,11.058916510086059L84.58952296752929,12.33600651008606L81.8238229675293,12.33600651008606L84.58952296752929,16.06188651008606L82.3388229675293,16.06188651008606L80.13850296752929,13.07548651008606L77.93820296752929,16.06188651008606L75.71269296752929,16.06188651008606L78.4657829675293,12.33600651008606L75.71269296752929,12.33600651008606L75.71269296752929,11.058916510086059ZM84.2942229675293,6.720366510086059L75.71269296752929,6.720366510086059L75.71269296752929,5.44327651008606L77.0757129675293,2.9926865100860596L79.4164629675293,2.9926865100860596L78.0660329675293,5.44327651008606L82.0939229675293,5.44327651008606L81.3341229675293,3.7964515100860594L83.5470229675293,3.7964515100860594L84.29242296752929,5.44327651008606L84.29242296752929,6.720366510086059L84.2942229675293,6.720366510086059Z" fill="#5D19D2" fill-opacity="1" style="mix-blend-mode:passthrough"/></g><g><path d="M87.51548385620117,4.103666510086059L89.69057385620117,4.103666510086059L89.69057385620117,2.9926865100860596L91.76123385620117,2.9926865100860596L91.76123385620117,4.103666510086059L96.76684385620118,4.103666510086059L96.76684385620118,2.9926865100860596L98.82488385620117,2.9926865100860596L98.82488385620117,4.103666510086059L100.99998385620117,4.103666510086059L100.99998385620117,5.3807565100860595L98.82488385620117,5.3807565100860595L98.82488385620117,6.49173651008606L96.76684385620118,6.49173651008606L96.76684385620118,5.3807565100860595L91.76123385620117,5.3807565100860595L91.76123385620117,6.49173651008606L89.69057385620117,6.49173651008606L89.69057385620117,5.3807565100860595L87.51548385620117,5.3807565100860595L87.51548385620117,4.103666510086059ZM97.98768385620117,16.06188651008606L94.17942385620117,12.55212651008606L90.33339385620117,16.06188651008606L87.51548385620117,16.06188651008606L92.76417385620117,11.23752651008606L88.49320685620117,7.30621651008606L91.40114385620117,7.30621651008606L94.19384385620117,9.92292651008606L97.02434385620117,7.30621651008606L99.94488385620117,7.30621651008606L95.62168385620117,11.23752651008606L100.79298385620118,16.06188651008606L97.98768385620117,16.06188651008606Z" fill="#5D19D2" fill-opacity="1" style="mix-blend-mode:passthrough"/></g></g></g></svg>