<svg xmlns="http://www.w3.org/2000/svg" xmlns:xlink="http://www.w3.org/1999/xlink" fill="none" version="1.1" width="116.93822479248047" height="28" viewBox="0 0 116.93822479248047 28"><defs><linearGradient x1="0.5" y1="0" x2="0.5" y2="1" id="master_svg0_6_00147"><stop offset="0%" stop-color="#3CE4D7" stop-opacity="1"/><stop offset="100%" stop-color="#1073D9" stop-opacity="1"/></linearGradient><linearGradient x1="0.8037047386169434" y1="0.07221729308366776" x2="-0.03211009525779909" y2="0.7081382941733214" id="master_svg1_6_00105"><stop offset="0%" stop-color="#FFC78F" stop-opacity="1"/><stop offset="100%" stop-color="#F87C87" stop-opacity="1"/></linearGradient><linearGradient x1="0.5" y1="0" x2="0.5" y2="1" id="master_svg2_6_00129"><stop offset="0%" stop-color="#9F41B3" stop-opacity="1"/><stop offset="100%" stop-color="#EC44CD" stop-opacity="1"/></linearGradient><linearGradient x1="0.5" y1="0" x2="0.5" y2="1" id="master_svg3_6_00179"><stop offset="0%" stop-color="#137BD9" stop-opacity="1"/><stop offset="100%" stop-color="#4B1D9A" stop-opacity="1"/></linearGradient></defs><g><g><g><g><path d="M25.321528181152345,23.55466606826782C25.328138181152344,23.577866068267824,25.334748181152342,23.599066068267824,25.341358181152344,23.62226606826782C25.218018181152345,23.65396606826782,25.121108181152344,23.727966068267822,25.015388181152343,23.78926606826782C24.841388181152343,23.88856606826782,24.669598181152345,23.99216606826782,24.491198181152342,24.082966068267822C24.341428181152345,24.159066068267823,24.180648181152343,24.211966068267824,24.008858181152345,24.220366068267822C23.317278181152343,24.258366068267822,22.755638181152342,24.021666068267823,22.337168181152343,23.48916606826782C22.262288181152343,23.394066068267822,22.196218181152343,23.292566068267824,22.138948181152344,23.18906606826782C21.823998181152344,22.624766068267824,21.581718181152343,22.03296606826782,21.418739181152343,21.413766068267822C21.326235181152345,21.058666068267822,21.262363181152345,20.697266068267822,21.209504181152344,20.33376606826782C21.200694181152343,20.26616606826782,21.185277181152344,20.206966068267825,21.119202181152342,20.171066068267823C21.167657181152343,19.957566068267823,21.167657181152343,19.74196606826782,21.161049181152343,19.524366068267824C21.121405181152344,18.34296606826782,21.374690181152342,17.22069606826782,21.909888181152343,16.15552606826782C22.216038181152342,15.544746068267823,22.630098181152345,15.005816068267823,23.079408181152345,14.488026068267821C23.260008181152344,14.280916068267821,23.451628181152344,14.080136068267823,23.632228181152342,13.873016068267823C23.909748181152345,13.558116068267822,24.163028181152345,13.224196068267823,24.332618181152345,12.841666068267823C24.480188181152343,12.507746068267823,24.566078181152342,12.161146068267822,24.504408181152343,11.795516068267823C24.427328181152344,11.330566068267823,24.174038181152344,10.973396068267823,23.775398181152344,10.704986068267822C23.561748181152343,10.561276068267823,23.328288181152345,10.451376068267823,23.083818181152346,10.364726068267823C22.564028181152345,10.180856068267822,22.028828181152342,10.049826068267823,21.500228181152345,9.893436068267823C21.253553181152345,9.819466068267822,21.009078181152343,9.730696068267822,20.766805181152343,9.644046068267823C20.672099181152344,9.610236068267822,20.583999181152343,9.559506068267822,20.515722981152344,9.483426068267821C20.418813381152344,9.375646068267823,20.427623481152345,9.263626068267822,20.535544481152343,9.168526068267822C20.621441181152345,9.090326068267823,20.727161181152344,9.054396068267822,20.839486181152346,9.033266068267823C21.072948181152345,8.988886068267822,21.304209181152345,8.948728068267823,21.537668181152345,8.908573068267822C22.240258181152342,8.792335068267823,22.923028181152343,8.602126068267822,23.603598181152343,8.403464068267823C24.330418181152343,8.192121068267822,25.074848181152344,8.052634368267823,25.825898181152343,7.985004668267822C26.557118181152344,7.9194879682678225,27.292748181152344,7.959643698267822,28.015168181152344,8.120264068267822C28.054808181152342,8.126604068267822,28.092248181152343,8.135058068267822,28.131898181152344,8.141398068267822C28.830078181152345,8.253409068267823,29.484218181152343,8.485887068267822,30.072278181152342,8.862078068267822C30.611848181152343,9.206566068267822,30.964248181152342,9.686316068267821,31.078848181152345,10.305546068267823C31.164748181152344,10.774736068267822,31.11404818115234,11.233346068267823,30.937848181152344,11.679276068267821C30.737448181152345,12.184386068267823,30.413668181152346,12.609186068267821,30.02161818115234,12.991716068267822C29.512848181152343,13.486266068267822,28.953418181152344,13.923746068267821,28.418218181152344,14.388696068267823C27.63853818115234,15.062886068267822,26.894098181152344,15.772996068267823,26.266398181152343,16.586666068267824C25.863338181152344,17.108686068267822,25.455878181152343,17.630696068267824,25.178368181152344,18.22666606826782C24.779718181152344,19.080466068267825,24.592508181152343,19.974466068267823,24.676208181152344,20.912866068267824C24.744478181152346,21.684266068267824,24.936098181152346,22.42816606826782,25.189378181152343,23.15946606826782C25.231228181152343,23.28196606826782,25.270878181152344,23.406666068267825,25.310518181152343,23.531366068267822L25.321528181152345,23.55466606826782Z" fill="url(#master_svg0_6_00147)" fill-opacity="1" style="mix-blend-mode:passthrough"/></g><g><path d="M7.322896457519532,7.94484C7.4462364575195314,7.87932,7.589396457519531,7.90469,7.719336457519532,7.8751C8.181856457519531,7.77154,8.63556645751953,7.64473,9.07165645751953,7.46086C9.774256457519531,7.16498,10.331476457519532,6.7106,10.771976457519532,6.11038C11.137586457519532,5.6095,11.412896457519532,5.06424,11.655166457519531,4.50418C11.961316457519532,3.79406,12.254246457519532,3.07761,12.569196457519531,2.36961C12.782836457519531,1.88986,13.055946457519532,1.44182,13.401736457519531,1.03392C13.82240645751953,0.537268,14.36201645751953,0.218141,15.005136457519532,0.0659736C15.478676457519532,-0.0481516,15.947756457519532,-0.0101099,16.40375645751953,0.148397C17.00715645751953,0.35974,17.48515645751953,0.727477,17.822156457519533,1.25372C18.13925645751953,1.74615,18.352956457519532,2.28085,18.50925645751953,2.83668C18.683256457519533,3.45592,18.782356457519533,4.08783,18.89035645751953,4.71763C19.04445645751953,5.62429,19.34405645751953,6.48235,19.73385645751953,7.31504C19.79335645751953,7.44396,19.85715645751953,7.57288,19.896856457519533,7.70602C19.96735645751953,7.9385,19.813156457519533,8.14139,19.55765645751953,8.16252C19.333056457519533,8.18154,19.13475645751953,8.12025,18.96295645751953,7.97865C18.742756457519533,7.7969,18.58855645751953,7.57076,18.500456457519533,7.3087C18.38155645751953,6.95787,18.27585645751953,6.60493,18.165656457519532,6.25198C18.075356457519533,5.96033,17.960856457519533,5.67713,17.793456457519532,5.41718C17.56005645751953,5.04944,17.23405645751953,4.78738,16.782556457519533,4.71763C16.39935645751953,4.65846,16.01825645751953,4.68804,15.654876457519531,4.84232C15.13288645751953,5.06424,14.727636457519532,5.41718,14.40386645751953,5.85888C14.11754645751953,6.24987,13.877476457519531,6.66833,13.68806645751953,7.11003C13.507456457519531,7.53061,13.326856457519531,7.95118,13.139646457519532,8.36964C12.970056457519531,8.75006,12.758616457519532,9.10723,12.467886457519532,9.4179C12.064836457519531,9.84904,11.540646457519532,10.054,10.963596457519532,10.1639C10.241176457519531,10.3013,9.50775645751953,10.3267,8.774326457519532,10.352C8.380086457519532,10.3647,7.983636457519531,10.3668,7.591596457519531,10.4239C7.2986664575195315,10.4662,7.021156457519531,10.5465,6.748046457519531,10.6543C6.523394457519531,10.743,6.356006457519531,10.9058,6.175402457519532,11.0495C6.034444457519531,11.0981,5.941940457519531,11.0537,5.878068457519531,10.9227C5.792171457519531,10.7451,5.7415142575195315,10.5549,5.708477057519532,10.3647C5.624783057519531,9.91033,5.688654757519531,9.47919,6.0102174575195315,9.11568C6.193022457519532,8.91068,6.389043457519532,8.71624,6.611493457519531,8.54928C6.8141264575195315,8.395,7.016746457519531,8.24283,7.223786457519531,8.09278C7.2810464575195315,8.05051,7.327296457519531,8.01035,7.325096457519531,7.93639L7.322896457519532,7.94484Z" fill="url(#master_svg1_6_00105)" fill-opacity="1" style="mix-blend-mode:passthrough"/></g><g><path d="M7.32288,7.9448394775390625C7.32288,8.018809177539062,7.27883,8.058964477539062,7.22157,8.101233477539063C7.01674,8.251286477539063,6.81191,8.403454477539062,6.60928,8.557734477539062C6.38683,8.724695477539063,6.19081,8.919130477539063,6.008,9.124129477539062C5.68644,9.487639477539062,5.62257,9.918779477539063,5.70626,10.373169477539061C5.7415,10.563379477539062,5.78996,10.751479477539062,5.87585,10.931119477539063C5.93973,11.062149477539062,6.03223,11.106529477539063,6.17319,11.057919477539063C6.15997,11.087509477539061,6.15116,11.119209477539062,6.13354,11.146689477539063C5.71727,11.831439477539062,5.77454,12.516189477539061,6.29653,13.137539477539063C6.56963,13.460889477539062,6.8978,13.725069477539062,7.23258,13.982909477539064C7.64444,14.304149477539063,8.07173,14.608479477539063,8.45716,14.961429477539063C8.64437,15.132609477539063,8.83158,15.308029477539062,8.99897,15.498239477539062C9.57602,16.15762947753906,9.79627,16.912119477539065,9.65311,17.770169477539064C9.5584,18.330239477539063,9.37559,18.86283947753906,9.2038,19.40173947753906C9.07385,19.80543947753906,8.94611,20.209039477539065,8.81396,20.612739477539062C8.7633,20.767039477539065,8.70384,20.919139477539062,8.64437,21.071339477539063C8.57609,21.24463947753906,8.44394,21.352439477539065,8.27215,21.42853947753906C8.01887,21.538439477539065,7.75677,21.58283947753906,7.47926,21.555339477539064C7.43521,21.55113947753906,7.38896,21.542639477539062,7.34711,21.529939477539063C7.10704,21.460239477539062,6.99031,21.301739477539062,7.02335,21.06713947753906C7.04317,20.92763947753906,7.08722,20.792339477539063,7.12907,20.65713947753906C7.19955,20.428839477539064,7.27883,20.202739477539062,7.30967,19.963939477539064C7.38675,19.38273947753906,7.25901,18.845939477539062,6.93304,18.349239477539065C6.65333,17.92233947753906,6.27891,17.575739477539063,5.90008,17.235479477539062C5.35166,16.74515947753906,4.73938,16.33726947753906,4.12048,15.937829477539061C3.81213,15.739169477539063,3.49497,15.546849477539062,3.19544,15.335499477539063C2.61398,14.925499477539063,2.0061,14.545079477539062,1.49072,14.054769477539063C1.2088,13.788469477539063,0.937896,13.513729477539062,0.704433,13.205169477539062C0.332214,12.712739477539063,0.0965483,12.167469477539061,0.0172591,11.563029477539063C-0.0466128,11.062149477539062,0.0701186,10.590849477539063,0.312391,10.151259477539062C0.512817,9.791979477539062,0.794734,9.498209477539062,1.14493,9.265729477539063C1.3872,9.105109477539063,1.64489,8.974079477539062,1.918,8.862068477539063C2.56553,8.597890477539062,3.23508,8.416135477539063,3.92446,8.287215477539062C4.6689,8.147729477539063,5.41774,8.054738477539063,6.17319,8.014583077539063C6.55642,7.993449077539062,6.93965,7.970201177539063,7.32288,7.946953357539062L7.32288,7.9448394775390625Z" fill="url(#master_svg2_6_00129)" fill-opacity="1" style="mix-blend-mode:passthrough"/></g><g><path d="M21.123619123535157,20.171033084316406C21.189699123535156,20.206961024316406,21.202909123535157,20.266136824316405,21.213929123535156,20.333766424316405C21.266779123535155,20.697276424316406,21.328449123535158,21.056559424316408,21.423159123535157,21.413732424316407C21.586139123535155,22.035082424316407,21.828419123535156,22.624722424316406,22.143369123535155,23.189012424316406C22.200639123535154,23.292572424316408,22.266709123535158,23.396132424316406,22.341589123535158,23.489122424316406C22.760069123535157,24.021702424316405,23.321699123535154,24.258402424316408,24.013279123535156,24.220362424316406C24.185069123535158,24.211912424316406,24.345849123535157,24.159072424316406,24.495619123535157,24.082992424316405C24.674019123535157,23.992112424316407,24.845809123535155,23.888552424316405,25.019809123535154,23.789222424316407C25.125529123535156,23.727932424316407,25.222439123535157,23.651852424316406,25.345779123535156,23.622262424316407C25.541799123535156,24.074532424316406,25.693769123535155,24.541602424316405,25.746629123535158,25.027692424316406C25.845739123535157,25.93435242431641,25.548399123535155,26.693072424316405,24.792949123535156,27.267932424316406C24.361269123535156,27.595512424316407,23.87451912353516,27.756132424316405,23.319489123535156,27.760362424316405C22.885599123535158,27.762472424316407,22.467129123535155,27.701182424316407,22.053069123535156,27.576492424316406C21.158859123535155,27.301742424316405,20.361559123535155,26.857922424316406,19.628139123535156,26.304212424316407C19.335206123535155,26.084412424316405,19.057695123535158,25.843482424316406,18.766966123535155,25.619462424316406C18.641424123535156,25.522242424316406,18.551122123535155,25.399662424316407,18.440998023535155,25.289762424316407C18.383733123535155,25.232702424316408,18.392543233535157,25.173522424316406,18.438795123535158,25.114352424316408C18.478439823535155,25.061512424316405,18.518084123535157,25.00867242431641,18.559932123535155,24.957952424316407C19.172221123535156,24.243612424316407,19.700819123535155,23.476442424316406,20.134709123535156,22.650092424316405C20.526749123535158,21.904052424316408,20.857119123535156,21.132647424316406,21.077369123535156,20.323203424316407C21.090579123535157,20.270367424316404,21.108199123535158,20.219645924316406,21.125819123535155,20.168922424316406L21.123619123535157,20.171033084316406Z" fill="url(#master_svg3_6_00179)" fill-opacity="1" style="mix-blend-mode:passthrough"/></g><g><path d="M22.70500790576172,4.622540825614929C22.69839990576172,4.43655082561493,22.74685490576172,4.246350825614929,22.77768990576172,4.054020825614929C22.79971390576172,3.916650825614929,22.77989290576172,3.8025308256149293,22.660958905761717,3.705310825614929C22.506785905761717,3.5785008256149293,22.368027905761718,3.4369008256149294,22.220462905761718,3.3037608256149293C22.11254190576172,3.2065408256149293,22.00902490576172,3.107210825614929,21.942949805761717,2.978290825614929C21.85485030576172,2.8028708256149293,21.896697965761717,2.6570508256149292,22.077300905761717,2.568280825614929C22.19623490576172,2.509110825614929,22.326180905761717,2.4689508256149293,22.453924905761717,2.4266808256149295C22.53982190576172,2.3992108256149294,22.62792090576172,2.3759608256149294,22.71602090576172,2.363280825614929C23.09264090576172,2.314670825614929,23.36575090576172,2.154050825614929,23.48689090576172,1.7820868256149291C23.544150905761718,1.6087858256149292,23.65868090576172,1.4545048256149293,23.74898090576172,1.2917708256149292C23.88554090576172,1.0508403256149292,24.215910905761717,1.0212523256149293,24.407520905761718,1.2241418256149292C24.47580090576172,1.2959978256149292,24.53527090576172,1.3763088256149292,24.590330905761718,1.4566188256149293C24.652000905761717,1.5474958256149292,24.70486090576172,1.6426008256149291,24.764330905761717,1.7355918256149292C24.96475090576172,2.042038825614929,24.97136090576172,2.0462658256149293,25.35679090576172,2.0779668256149293C25.46912090576172,2.0864208256149293,25.58365090576172,2.0864208256149293,25.693770905761717,2.096990825614929C25.82812090576172,2.1117808256149293,25.96248090576172,2.1244608256149293,26.09462090576172,2.156160825614929C26.37654090576172,2.2237908256149295,26.45143090576172,2.386530825614929,26.32809090576172,2.644370825614929C26.28624090576172,2.7331308256149294,26.23338090576172,2.817670825614929,26.17391090576172,2.895860825614929C26.05278090576172,3.0522608256149293,25.93825090576172,3.214990825614929,25.79729090576172,3.354480825614929C25.669550905761717,3.479170825614929,25.645320905761718,3.605980825614929,25.693770905761717,3.7666008256149293C25.748830905761718,3.954690825614929,25.795090905761718,4.144900825614929,25.84134090576172,4.3330008256149295C25.85896090576172,4.406970825614929,25.87658090576172,4.48094082561493,25.880980905761717,4.557020825614929C25.89200090576172,4.785270825614929,25.73121090576172,4.9543408256149295,25.49775090576172,4.962800825614929C25.36120090576172,4.967030825614929,25.229050905761717,4.956460825614929,25.09910090576172,4.909960825614929C24.909690905761718,4.84233082561493,24.71587090576172,4.78316082561493,24.52205090576172,4.721870825614929C24.36347090576172,4.671140825614929,24.21371090576172,4.68383082561493,24.06614090576172,4.764140825614929C23.85250090576172,4.884600825614929,23.63225090576172,4.99661082561493,23.41641090576172,5.110740825614929C23.30629090576172,5.167800825614929,23.19616090576172,5.218520825614929,23.06842090576172,5.222750825614929C22.89001790576172,5.2290908256149295,22.76447690576172,5.148780825614929,22.716021905761718,4.981820825614929C22.682984905761717,4.865580825614929,22.68078190576172,4.747230825614929,22.70280790576172,4.616200825614929L22.70500790576172,4.622540825614929Z" fill="#FB9E8A" fill-opacity="1" style="mix-blend-mode:passthrough"/></g><g><path d="M21.17428006591797,13.95966598815918C21.17428006591797,14.92127598815918,20.317520065917968,15.60179598815918,19.423310065917967,15.57643598815918C18.68548106591797,15.55530598815918,17.77805856591797,14.971995988159179,17.79127289591797,13.91528598815918C17.80448726591797,12.91351598815918,18.73173106591797,12.26891928815918,19.586290065917968,12.30273415815918C20.482700065917967,12.34077598815918,21.21613006591797,13.07836298815918,21.17428006591797,13.95966598815918Z" fill="#4B1D9A" fill-opacity="1" style="mix-blend-mode:passthrough"/></g><g><g><path d="M18.194323539733887,17.18476192121582C18.306650539733887,17.18476192121582,18.416774539733886,17.18476192121582,18.52909953973389,17.18476192121582C18.416772539733888,17.13615232121582,18.306648539733885,17.134040121215822,18.194323539733887,17.18476192121582Z" fill="#41B2E1" fill-opacity="1" style="mix-blend-mode:passthrough"/></g><g><path d="M19.24712688446045,17.92023656193423C19.236126884460447,17.884308561934233,19.22292688446045,17.85049256193423,19.21182688446045,17.814564561934233C19.220726884460447,17.76172956193423,19.220726884460447,17.71100756193423,19.161226884460447,17.68353156193423C19.15022688446045,17.66239756193423,19.14142688446045,17.639149561934232,19.13032688446045,17.618015561934232C19.137026884460447,17.586313561934233,19.12812688446045,17.567293561934232,19.09072688446045,17.56306656193423C19.07532688446045,17.539818561934233,19.062126884460447,17.516570561934234,19.046726884460448,17.49332256193423L19.05112688446045,17.478528561934233L19.03562688446045,17.478528561934233C19.02022688446045,17.459508561934232,19.002626884460447,17.440486561934232,18.987226884460448,17.42146656193423L18.987226884460448,17.406672561934233L18.97402688446045,17.406672561934233C18.95422688446045,17.389764561934232,18.934326884460447,17.372857561934232,18.91452688446045,17.355950561934232L18.91452688446045,17.343270561934233L18.903526884460447,17.347496561934232C18.87712688446045,17.332702561934234,18.85282688446045,17.317909561934233,18.82642688446045,17.301001561934232C18.82642688446045,17.26929946193423,18.80662688446045,17.262959461934233,18.77802688446045,17.271413361934233C18.74932688446045,17.258733261934232,18.720726884460447,17.24816546193423,18.689926884460448,17.235485461934232C18.68762688446045,17.20378366193423,18.66782688446045,17.199557461934234,18.64142688446045,17.212237561934234C18.64142688446045,17.22491766193423,18.645826884460448,17.235485461934232,18.65242688446045,17.239711561934232C18.64802688446045,17.233371561934234,18.64362688446045,17.22491766193423,18.64142688446045,17.212237561934234C18.60402688446045,17.20378366193423,18.56432688446045,17.195329761934232,18.52692688446045,17.184763561934233C18.41452688446045,17.184763561934233,18.30222688446045,17.184763561934233,18.19212688446045,17.184763561934233C17.95642688446045,17.212237561934234,17.77802688446045,17.341156561934234,17.61282688446045,17.49121056193423C17.31552688446045,17.75750256193423,17.06222688446045,18.06183556193423,16.80452688446045,18.361943561934233C15.75172688446045,19.583503561934233,14.511826884460449,20.58738356193423,13.06474688446045,21.354563561934235C12.214596884460448,21.80472356193423,11.32919688446045,22.17457356193423,10.412966884460449,22.47890356193423C10.36891688446045,22.466223561934232,10.33147688446045,22.468333561934234,10.31164688446045,22.514833561934232C10.27861688446045,22.52328356193423,10.24337688446045,22.533853561934233,10.21033688446045,22.542303561934233C10.16848688446045,22.531743561934235,10.12884688446045,22.52751356193423,10.10681688446045,22.57612356193423C10.07378688446045,22.584573561934235,10.04074688446045,22.595143561934233,10.00770688446045,22.603593561934233C9.96585688446045,22.59302356193423,9.92401688446045,22.586683561934233,9.89978688446045,22.635293561934233C9.91299688446045,22.641633561934235,9.926216884460448,22.645863561934235,9.93722688446045,22.647973561934233C9.926216884460448,22.647973561934233,9.91299688446045,22.641633561934235,9.89978688446045,22.635293561934233C9.84692688446045,22.647973561934233,9.79186688446045,22.660663561934232,9.73679688446045,22.675453561934233C9.73019688446045,22.688133561934233,9.723586884460449,22.69870356193423,9.71697688446045,22.705043561934232C9.723586884460449,22.69870356193423,9.73239688446045,22.688133561934233,9.73679688446045,22.675453561934233C9.69274688446045,22.662773561934234,9.653106884460449,22.65854356193423,9.62887688446045,22.707153561934234C9.573816884460449,22.719833561934234,9.51875688446045,22.73040356193423,9.461496884460448,22.743083561934235C9.419646884460448,22.728293561934233,9.37999688446045,22.72617356193423,9.357976884460449,22.772673561934234C9.30291688446045,22.78323356193423,9.245646884460449,22.793803561934233,9.19058688446045,22.804373561934234C9.14873688446045,22.789583561934233,9.109096884460449,22.78746356193423,9.08486688446045,22.833963561934233C9.029806884460449,22.84452356193423,8.97474688446045,22.857203561934234,8.91968688446045,22.867773561934232C8.875636884460448,22.85298356193423,8.83598688446045,22.84875356193423,8.809556884460449,22.897363561934235C8.43293688446045,22.958653561934234,8.056306884460449,23.017833561934232,7.67748688446045,23.07912356193423C7.424196884460449,23.07912356193423,7.173116884460449,23.102363561934233,6.926436884460449,23.163653561934233C6.8669668844604494,23.169993561934234,6.80530688446045,23.176333561934232,6.745836884460449,23.182673561934234C6.578446884460449,23.172113561934232,6.408856884460449,23.163653561934233,6.248076884460449,23.224943561934232C5.959546884460449,23.235513561934233,5.732696884460449,23.358093561934233,5.556496884460449,23.575773561934234C5.208503884460449,24.00480356193423,4.917776884460449,24.465533561934233,4.708541884460449,24.97064356193423C4.55657028446045,25.334153561934233,4.46626868446045,25.714563561934234,4.49490111446045,26.109773561934233C4.545558084460449,26.81777356193423,4.853904884460449,27.371463561934235,5.547686884460449,27.686363561934233C5.71066688446045,27.760363561934234,5.8714468844604495,27.834363561934232,6.049856884460449,27.86816356193423C6.1093168844604495,27.920963561934233,6.179796884460449,27.939963561934235,6.25908688446045,27.920963561934233C6.281116884460449,27.927363561934232,6.303136884460449,27.931563561934233,6.325166884460449,27.931563561934233C6.66434688446045,28.020363561934232,7.005726884460449,28.024563561934233,7.34490688446045,27.93366356193423C7.406576884460449,27.927363561934232,7.468246884460449,27.91886356193423,7.532116884460449,27.912563561934235C7.611406884460449,27.931563561934233,7.681886884460449,27.912563561934235,7.74575688446045,27.86816356193423C7.829456884460449,27.882963561934233,7.908746884460449,27.878763561934235,7.974816884460449,27.81956356193423C8.073926884460448,27.800563561934233,8.17524688446045,27.78786356193423,8.274356884460449,27.76456356193423C8.767716884460448,27.65046356193423,9.24785688446045,27.489863561934232,9.72138688446045,27.318663561934233C10.450406884460449,27.054483561934234,11.14859688446045,26.731123561934233,11.844576884460448,26.392973561934234C13.159456884460448,25.752603561934233,14.37081688446045,24.962183561934232,15.49852688446045,24.05763356193423C16.39272688446045,23.33907356193423,17.185626884460447,22.525403561934233,17.85292688446045,21.603943561934233C18.313226884460448,20.969913561934234,18.70312688446045,20.299963561934234,18.978426884460447,19.575053561934233C19.15902688446045,19.097413561934232,19.32422688446045,18.61133356193423,19.269126884460448,18.087197561934232C19.28892688446045,18.02802156193423,19.28892688446045,17.973072561934234,19.24712688446045,17.922350561934234L19.24712688446045,17.92023656193423Z" fill="#5D19D2" fill-opacity="1" style="mix-blend-mode:passthrough"/></g></g><g><path d="M1.235521546484375,23.55463467138672L1.224212646484375,23.53350067138672L1.237783246484375,23.53984070138672L1.235521546484375,23.55463467138672Z" fill="#41B2E1" fill-opacity="1" style="mix-blend-mode:passthrough"/></g></g></g><g><path d="M43.026225556640625,26.2960087890625Q43.154225556640625,26.480008789062502,43.142225556640625,26.6440087890625Q43.130225556640625,26.808008789062498,43.01022555664063,26.9040087890625Q42.89022555664062,27.0000087890625,42.706225556640625,27.0000087890625L42.67422555664062,27.0000087890625Q42.442725556640625,27.0000087890625,42.27122555664062,26.916008789062502Q42.099845556640624,26.8320087890625,41.97184555664062,26.6400087890625L38.52222455664062,21.7758837890625Q38.39422455664062,21.5920087890625,38.38622455664063,21.4280087890625Q38.378224556640625,21.2640087890625,38.482224556640624,21.1680087890625Q38.58622455664062,21.0720085890625,38.762224556640625,21.0720085890625L38.79422455664063,21.0720085890625Q39.03372455664063,21.0720085890625,39.24109955664063,21.1600087890625Q39.448595556640626,21.2480087890625,39.576595556640626,21.4320087890625L43.026225556640625,26.2960087890625ZM39.44059555664062,26.6400087890625Q39.31259555664062,26.8320087890625,39.141099556640626,26.916008789062502Q38.96972455664063,27.0000087890625,38.738224556640624,27.0000087890625L38.70622455664063,27.0000087890625Q38.52222455664062,27.0000087890625,38.402224556640626,26.9040087890625Q38.28222415664062,26.808008789062498,38.27022412664063,26.6440087890625Q38.25822415664062,26.480008789062502,38.38622455664063,26.2960087890625L41.83584555664063,21.4320087890625Q41.96384555664063,21.2480087890625,42.17122555664062,21.1600087890625Q42.378725556640624,21.0720085890625,42.618225556640624,21.0720085890625L42.65022555664063,21.0720085890625Q42.82622555664062,21.0720085890625,42.93022555664062,21.1680087890625Q43.03422555664063,21.2640087890625,43.026225556640625,21.4280087890625Q43.01822555664062,21.5920087890625,42.89022555664062,21.7758837890625L39.44059555664062,26.6400087890625ZM48.114225556640626,26.4720087890625Q48.114225556640626,26.7280087890625,47.97822555664062,26.8640087890625Q47.84222555664063,27.0000087890625,47.58622555664063,27.0000087890625L47.57022555664062,27.0000087890625Q47.31422555664062,27.0000087890625,47.178225556640626,26.8640087890625Q47.04222555664062,26.7280087890625,47.04222555664062,26.4720087890625L47.04222555664062,21.5998837890625Q47.04222555664062,21.3440087890625,47.178225556640626,21.2080087890625Q47.31422555664062,21.0720085890625,47.57022555664062,21.0720085890625L47.58622555664063,21.0720085890625Q47.84222555664063,21.0720085890625,47.97822555664062,21.2080087890625Q48.114225556640626,21.3440087890625,48.114225556640626,21.5998837890625L48.114225556640626,26.4720087890625ZM55.76219555664062,21.5977587890625Q55.76219555664062,21.3440087890625,55.89819555664063,21.2080087890625Q56.034195556640626,21.0720085890625,56.290195556640626,21.0720085890625L56.306195556640624,21.0720085890625Q56.562195556640624,21.0720085890625,56.69819555664063,21.2080087890625Q56.83419555664062,21.3440087890625,56.83419555664062,21.5998837890625L56.83419555664062,26.4400087890625Q56.83419555664062,26.7120087890625,56.71019555664063,26.8560087890625Q56.586195556640625,27.0000087890625,56.36219555664063,27.0000087890625L56.32219555664062,27.0000087890625Q56.09019555664062,27.0000087890625,55.930195556640626,26.9120087890625Q55.77019555664063,26.8240087890625,55.650195556640625,26.6320087890625L53.36219555664063,23.0240087890625L53.36219555664063,26.4742587890625Q53.36219555664063,26.7280087890625,53.226195556640626,26.8640087890625Q53.09019555664062,27.0000087890625,52.83419555664062,27.0000087890625L52.818195556640624,27.0000087890625Q52.562195556640624,27.0000087890625,52.42619555664062,26.8640087890625Q52.290195556640626,26.7280087890625,52.290195556640626,26.4720087890625L52.290195556640626,21.6318837890625Q52.290195556640626,21.3600087890625,52.41419555664062,21.2160087890625Q52.53819555664062,21.0720085890625,52.77019555664062,21.0720085890625L52.802195556640626,21.0720085890625Q53.034195556640626,21.0720085890625,53.19419555664062,21.1600087890625Q53.354195556640626,21.2480087890625,53.47419555664062,21.4400087890625L55.76219555664062,25.0480087890625L55.76219555664062,21.5977587890625ZM65.74619555664063,23.7280087890625Q66.18619555664063,23.7280087890625,66.41419555664062,23.9640087890625Q66.64219555664063,24.2000087890625,66.57019555664063,24.6160087890625Q66.44219555664063,25.4000087890625,66.05419555664062,25.9560087890625Q65.66619555664062,26.5120087890625,65.07159555664063,26.8000087890625Q64.47709555664062,27.0880087890625,63.74619555664063,27.0880087890625Q62.922195556640624,27.0880087890625,62.23459555664063,26.6760087890625Q61.546995556640624,26.2640087890625,61.150595556640624,25.5600087890625Q60.754195556640624,24.8560087890625,60.754195556640624,24.032008789062502Q60.754195556640624,23.2160087890625,61.14939555664063,22.5120087890625Q61.54459555664063,21.8080087890625,62.23009555664062,21.3960087890625Q62.915595556640625,20.9840087890625,63.74619555664063,20.9840087890625Q64.33019555664063,20.9840087890625,64.84219555664063,21.1920087890625Q65.35419555664063,21.4000087890625,65.75419555664062,21.7843837890625Q65.94619555664062,21.9682587890625,65.92219555664062,22.1642587890625Q65.89819555664063,22.3601287890625,65.69019555664062,22.5040087890625L65.66619555664062,22.5200087890625Q65.47419555664062,22.6560087890625,65.29419555664063,22.6320087890625Q65.11419555664062,22.6080087890625,64.93019555664063,22.4400087890625Q64.68219555664062,22.2160087890625,64.39419555664062,22.1080087890625Q64.10619555664063,22.0000087890625,63.74619555664063,22.0000087890625Q63.18619555664063,22.0000087890625,62.754195556640624,22.2600087890625Q62.32219555664062,22.5200087890625,62.086195556640625,22.9800087890625Q61.85019555664063,23.4400087890625,61.85019555664063,24.0330087890625Q61.85019555664063,24.6320087890625,62.086195556640625,25.0920087890625Q62.32219555664062,25.552008789062498,62.75019555664063,25.8120087890625Q63.178195556640624,26.0720087890625,63.74339555664062,26.0720087890625Q64.31419555664063,26.0720087890625,64.72219555664063,25.8400087890625Q65.13019555664063,25.6080087890625,65.34619555664062,25.1720087890625Q65.56219555664063,24.7360087890625,65.56219555664063,24.1360087890625L65.56219555664063,23.7280087890625L65.74619555664063,23.7280087890625ZM65.68219555664062,24.7680087890625L64.32039555664062,24.7680087890625Q64.07319555664063,24.7680087890625,63.941695556640624,24.6360087890625Q63.81019555664062,24.5040087890625,63.81019555664062,24.2560087890625L63.81019555664062,24.2400087890625Q63.81019555664062,23.9920087890625,63.941695556640624,23.8600087890625Q64.07319555664063,23.7280087890625,64.32039555664062,23.7280087890625L65.68219555664062,23.7280087890625L65.68219555664062,24.7680087890625ZM75.73819555664062,26.3760087890625Q75.89019555664063,26.5760087890625,75.89419555664062,26.7480087890625Q75.89819555664062,26.9200087890625,75.77019555664063,27.0200087890625Q75.64219555664062,27.1200087890625,75.42619555664062,27.1200087890625L75.41019555664062,27.1200087890625Q75.17019555664064,27.1200087890625,75.01419555664063,27.0200087890625Q74.85819555664062,26.9200087890625,74.69019555664062,26.6640087890625L73.85819555664062,25.4240087890625Q73.76219555664062,25.2800087890625,73.77819555664063,25.1440087890625Q73.79419555664063,25.0080087890625,73.89819555664062,24.9200087890625Q74.00219555664063,24.8320087890625,74.15419555664062,24.8320087890625L74.17019555664064,24.8320087890625Q74.38619555664062,24.8320087890625,74.53819555664063,24.9120087890625Q74.69019555664062,24.9920087890625,74.82619555664063,25.1680087890625L75.73819555664062,26.3760087890625ZM73.33819555664063,26.0800087890625Q73.91419555664064,26.0800087890625,74.36619555664063,25.8200087890625Q74.81819555664063,25.5600087890625,75.07419555664063,25.1000087890625Q75.33019555664063,24.6400087890625,75.33019555664063,24.0560087890625Q75.33019555664063,23.4640087890625,75.07419555664063,22.9960087890625Q74.81819555664063,22.5280087890625,74.36619555664063,22.2640087890625Q73.91419555664064,22.0000087890625,73.33819555664063,22.0000087890625Q72.76219555664062,22.0000087890625,72.31019555664062,22.2640087890625Q71.85819555664062,22.5280087890625,71.60219555664062,22.9960087890625Q71.34619555664062,23.4640087890625,71.34619555664062,24.0560087890625Q71.34619555664062,24.6400087890625,71.60219555664062,25.1000087890625Q71.85819555664062,25.5600087890625,72.31019555664062,25.8200087890625Q72.76219555664062,26.0800087890625,73.33819555664063,26.0800087890625ZM73.33819555664063,27.096008789062502Q72.50619555664062,27.096008789062502,71.79819555664062,26.6880087890625Q71.09019555664062,26.2800087890625,70.67019555664064,25.5840087890625Q70.25019555664062,24.8880087890625,70.25019555664062,24.0560087890625Q70.25019555664062,23.224008789062502,70.67019555664064,22.5160087890625Q71.09019555664062,21.8080087890625,71.79819555664062,21.3960087890625Q72.50619555664062,20.9840087890625,73.33819555664063,20.9840087890625Q74.17019555664064,20.9840087890625,74.87819555664063,21.3960087890625Q75.58619555664063,21.8080087890625,76.00619555664062,22.5160087890625Q76.42619555664062,23.224008789062502,76.42619555664062,24.0560087890625Q76.42619555664062,24.8880087890625,76.01419555664063,25.5840087890625Q75.60219555664062,26.2800087890625,74.89419555664062,26.6880087890625Q74.18619555664063,27.096008789062502,73.33819555664063,27.096008789062502ZM81.41819555664063,26.4720087890625Q81.41819555664063,26.7280087890625,81.28219555664063,26.8640087890625Q81.14619555664063,27.0000087890625,80.89019555664063,27.0000087890625L80.87419555664061,27.0000087890625Q80.61819555664061,27.0000087890625,80.48219555664062,26.8640087890625Q80.34619555664062,26.7280087890625,80.34619555664062,26.4720087890625L80.34619555664062,21.5998837890625Q80.34619555664062,21.3440087890625,80.48219555664062,21.2080087890625Q80.61819555664061,21.0720085890625,80.87419555664061,21.0720085890625L80.89019555664063,21.0720085890625Q81.14619555664063,21.0720085890625,81.28219555664063,21.2080087890625Q81.41819555664063,21.3440087890625,81.41819555664063,21.5998837890625L81.41819555664063,26.4720087890625ZM90.07419555664063,26.2960087890625Q90.20219555664062,26.480008789062502,90.19019555664062,26.6440087890625Q90.17819555664062,26.808008789062498,90.05819555664063,26.9040087890625Q89.93819555664062,27.0000087890625,89.75419555664062,27.0000087890625L89.72219555664063,27.0000087890625Q89.49069555664062,27.0000087890625,89.31919555664062,26.916008789062502Q89.14789555664063,26.8320087890625,89.01989555664062,26.6400087890625L85.57019555664063,21.7758837890625Q85.44219555664063,21.5920087890625,85.43419555664062,21.4280087890625Q85.42619555664062,21.2640087890625,85.53019555664062,21.1680087890625Q85.63419555664063,21.0720085890625,85.81019555664062,21.0720085890625L85.84219555664063,21.0720085890625Q86.08169555664062,21.0720085890625,86.28909555664063,21.1600087890625Q86.49659555664063,21.2480087890625,86.62459555664063,21.4320087890625L90.07419555664063,26.2960087890625ZM86.48859555664063,26.6400087890625Q86.36059555664062,26.8320087890625,86.18909555664062,26.916008789062502Q86.01769555664063,27.0000087890625,85.78619555664062,27.0000087890625L85.75419555664062,27.0000087890625Q85.57019555664063,27.0000087890625,85.45019555664062,26.9040087890625Q85.33019555664063,26.808008789062498,85.31819555664063,26.6440087890625Q85.30619555664063,26.480008789062502,85.43419555664062,26.2960087890625L88.88389555664062,21.4320087890625Q89.01189555664062,21.2480087890625,89.21919555664063,21.1600087890625Q89.42669555664062,21.0720085890625,89.66619555664062,21.0720085890625L89.69819555664063,21.0720085890625Q89.87419555664061,21.0720085890625,89.97819555664063,21.1680087890625Q90.08219555664063,21.2640087890625,90.07419555664063,21.4280087890625Q90.06619555664062,21.5920087890625,89.93819555664062,21.7758837890625L86.48859555664063,26.6400087890625ZM95.16219555664063,26.4720087890625Q95.16219555664063,26.7280087890625,95.02619555664063,26.8640087890625Q94.89019555664063,27.0000087890625,94.63419555664063,27.0000087890625L94.61819555664061,27.0000087890625Q94.36219555664063,27.0000087890625,94.22619555664062,26.8640087890625Q94.09019555664062,26.7280087890625,94.09019555664062,26.4720087890625L94.09019555664062,21.5998837890625Q94.09019555664062,21.3440087890625,94.22619555664062,21.2080087890625Q94.36219555664063,21.0720085890625,94.61819555664061,21.0720085890625L94.63419555664063,21.0720085890625Q94.89019555664063,21.0720085890625,95.02619555664063,21.2080087890625Q95.16219555664063,21.3440087890625,95.16219555664063,21.5998837890625L95.16219555664063,26.4720087890625ZM100.19419555664062,27.0000087890625Q99.77819555664063,27.0000087890625,99.55819555664063,26.7800087890625Q99.33819555664063,26.5600087890625,99.33819555664063,26.1440087890625L99.33819555664063,21.9278837890625Q99.33819555664063,21.5120087890625,99.55819555664063,21.2920087890625Q99.77819555664063,21.0720085890625,100.19419555664062,21.0720085890625L100.41019555664062,21.0720085890625L100.41019555664062,27.0000087890625L100.19419555664062,27.0000087890625ZM102.44309555664063,21.0720085890625Q102.69469555664062,21.0720085890625,102.82449555664063,21.2020087890625Q102.95419555664063,21.3320087890625,102.95419555664063,21.5840087890625L102.95419555664063,21.6000087890625Q102.95419555664063,21.8520087890625,102.82449555664063,21.9820087890625Q102.69469555664062,22.1120087890625,102.44309555664063,22.1120087890625L100.28219555664063,22.1120087890625L100.28219555664063,21.0720085890625L102.44309555664063,21.0720085890625ZM102.44309555664063,25.9600087890625Q102.69469555664062,25.9600087890625,102.82449555664063,26.0900087890625Q102.95419555664063,26.2200087890625,102.95419555664063,26.4720087890625L102.95419555664063,26.488008789062498Q102.95419555664063,26.7400087890625,102.82449555664063,26.8700087890625Q102.69469555664062,27.0000087890625,102.44309555664063,27.0000087890625L100.28219555664063,27.0000087890625L100.28219555664063,25.9600087890625L102.44309555664063,25.9600087890625ZM102.21919555664063,23.5520087890625Q102.45469555664063,23.5520087890625,102.57249555664062,23.6700087890625Q102.69019555664063,23.7880087890625,102.69019555664063,24.0240087890625L102.69019555664063,24.0400087890625Q102.69019555664063,24.2680087890625,102.57249555664062,24.3900087890625Q102.45469555664063,24.5120087890625,102.21919555664063,24.5120087890625L100.28219555664063,24.5120087890625L100.28219555664063,23.5520087890625L102.21919555664063,23.5520087890625ZM111.45019555664062,26.3680087890625Q111.53819555664063,26.616008789062498,111.41619555664063,26.808008789062498Q111.29419555664063,27.0000087890625,111.03419555664063,27.0000087890625L111.00219555664063,27.0000087890625Q110.73419555664063,27.0000087890625,110.58019555664063,26.8440087890625Q110.42619555664062,26.6880087890625,110.32219555664062,26.3840087890625L108.77019555664063,22.1120087890625L109.21819555664062,22.1120087890625L107.66619555664063,26.3840087890625Q107.55419555664062,26.6880087890625,107.40419555664063,26.8440087890625Q107.25419555664062,27.0000087890625,106.98619555664062,27.0000087890625L106.95419555664063,27.0000087890625Q106.69419555664062,27.0000087890625,106.57219555664062,26.808008789062498Q106.45019555664062,26.616008789062498,106.53819555664063,26.3680087890625L108.30039555664062,21.5360087890625Q108.47629555664062,21.0720085890625,108.98619555664062,21.0720085890625L109.00219555664063,21.0720085890625Q109.51209555664063,21.0720085890625,109.68809555664062,21.5360087890625L111.45019555664062,26.3680087890625ZM110.31419555664063,24.4400087890625L110.31419555664063,25.480008789062502L107.67419555664063,25.480008789062502L107.67419555664063,24.4400087890625L110.31419555664063,24.4400087890625ZM116.29019555664063,26.4720087890625Q116.29019555664063,26.7280087890625,116.15419555664063,26.8640087890625Q116.01819555664062,27.0000087890625,115.76219555664062,27.0000087890625L115.74619555664063,27.0000087890625Q115.49019555664063,27.0000087890625,115.35419555664062,26.8640087890625Q115.21819555664062,26.7280087890625,115.21819555664062,26.4720087890625L115.21819555664062,21.5998837890625Q115.21819555664062,21.3440087890625,115.35419555664062,21.2080087890625Q115.49019555664063,21.0720085890625,115.74619555664063,21.0720085890625L115.76219555664062,21.0720085890625Q116.01819555664062,21.0720085890625,116.15419555664063,21.2080087890625Q116.29019555664063,21.3440087890625,116.29019555664063,21.5998837890625L116.29019555664063,26.4720087890625Z" fill="#614D83" fill-opacity="1"/></g><g><path d="M43.98134479248047,8.64619L43.98134479248047,8.21376L42.40023479248047,8.21376L42.40023479248047,8.64619L43.98134479248047,8.64619ZM50.71642479248047,5.85504L50.71642479248047,5.26536L41.64048479248047,5.26536L41.64048479248047,5.85504L50.71642479248047,5.85504ZM50.71642479248047,3.69287L50.71642479248047,3.08354L41.64048479248047,3.08354L41.64048479248047,3.69287L50.71642479248047,3.69287ZM54.90532479248047,16.9214L37.53370779248047,16.9214Q36.93822479248047,16.9214,36.93822479248047,16.2727L36.93822479248047,15.231Q36.93822479248047,14.543,37.49263979248047,14.543L43.98134479248047,14.543L43.98134479248047,14.0319L38.62200479248047,14.0319Q38.00598479248047,14.0319,38.00598479248047,13.3833L38.00598479248047,12.145Q38.00598479248047,11.6339,38.58093479248047,11.6339L43.98134479248047,11.6339L43.98134479248047,11.1818L41.168204792480466,11.1818Q41.06553479248047,11.2801,40.98339479248047,11.3685Q40.90126479248047,11.457,40.24417479248047,11.457L37.57477479248047,11.457Q37.02036029248047,11.457,37.02036029248047,10.90663L36.999826492480466,10.39558Q36.999826492480466,10.17936,37.30783479248047,9.58968L38.14972479248047,8.21376L37.821181792480466,8.21376Q37.02036029248047,8.194099999999999,36.97929259248047,7.48649L36.958758692480465,2.02211Q36.958758692480465,1.0196558,38.10865479248047,1.0196558L54.35092479248047,1.0196558Q55.43922479248047,1.0196558,55.43922479248047,2.02211L55.43922479248047,7.2113Q55.43922479248047,8.194099999999999,54.28932479248047,8.194099999999999L49.01212479248047,8.194099999999999L49.01212479248047,8.665849999999999L54.535724792480465,8.665849999999999Q55.15182479248047,8.665849999999999,55.162024792480466,9.28501Q55.17232479248047,9.90418,55.17232479248047,10.53317Q55.17232479248047,11.1818,54.617924792480466,11.1818L49.01212479248047,11.1818L49.01212479248047,11.6339L54.39202479248047,11.6536Q55.00802479248047,11.6536,55.00802479248047,12.3022L55.02852479248047,13.3833Q55.02852479248047,14.0319,54.47412479248047,14.0319L48.991624792480465,14.0319L48.97112479248047,14.543L54.823224792480474,14.543Q55.43922479248047,14.543,55.43922479248047,15.2113L55.480324792480474,16.2727Q55.480324792480474,16.9214,54.90532479248047,16.9214ZM71.55832479248048,14.0516L71.55832479248048,12.9115L66.83552479248047,12.9115L66.83552479248047,14.0516L71.55832479248048,14.0516ZM71.27082479248047,6.38575L71.27082479248047,5.26536L62.40022479248047,5.26536L62.40022479248047,6.38575L71.27082479248047,6.38575ZM60.98342479248047,16.9607L58.41662479248047,16.941000000000003Q57.47212479248047,16.901699999999998,57.47212479248047,15.9189L57.94442479248047,3.18182Q58.00602479248047,1.963145,59.094324792480464,1.963145L64.67952479248046,1.982801Q64.35092479248047,1.373464,64.35092479248047,1.2751839999999999Q64.35092479248047,1,64.80272479248046,1L68.68362479248047,1Q69.38172479248047,1,69.54602479248047,1.393121L69.87452479248047,1.963145L74.86432479248046,1.963145Q76.01422479248046,1.982801,76.01422479248046,2.9656000000000002L76.03472479248046,8.48894Q76.03472479248046,9.45209,75.00802479248047,9.45209L62.133324792480465,9.47174L61.94852479248047,15.9779Q61.92792479248047,16.9607,60.98342479248047,16.9607ZM63.61172479248047,17Q62.50292479248047,17,62.50292479248047,15.9582L62.48232479248047,11.2015Q62.48232479248047,10.17936,63.46802479248047,10.17936L74.86432479248046,10.17936Q76.01422479248046,10.17936,76.01422479248046,11.1425L76.01422479248046,16.017200000000003Q76.01422479248046,16.9803,75.00802479248047,16.9803L63.61172479248047,17ZM86.15792479248047,11.1622L87.38992479248047,6.48403L85.48032479248047,6.48403Q84.90532479248047,6.48403,84.90532479248047,5.69779L84.86432479248046,7.01474Q84.86432479248046,7.34889,84.74112479248046,7.5258Q84.80272479248046,7.44717,84.90532479248047,7.44717L86.13742479248046,7.46683Q86.56862479248048,7.46683,86.58912479248048,7.99754L86.15792479248047,11.1622ZM82.35912479248047,16.9803L80.18262479248047,16.9607Q79.44332479248047,16.9607,79.42282479248047,16.311999999999998L79.44332479248047,7.74201L78.66302479248047,7.74201Q78.00602479248047,7.74201,78.00602479248047,7.01474L78.00602479248047,4.45946Q78.00602479248047,3.69287,78.66302479248047,3.69287L79.44332479248047,3.69287L79.44332479248047,1.7272729999999998Q79.48442479248047,1.0393127,80.12102479248047,1.0393127L82.48242479248046,1.0393127Q83.20102479248047,1.0393127,83.20102479248047,1.786241L83.18052479248047,3.69287L84.39202479248047,3.69287Q84.90532479248047,3.79116,84.90532479248047,4.65602L84.90532479248047,3.20147Q84.90532479248047,2.53317,85.52142479248047,2.53317L88.08812479248047,2.53317L88.33452479248047,1.412777Q88.45772479248046,1.0589685,88.76572479248047,1.0393127L90.67542479248047,1.0393127Q91.02442479248046,1.0786242,91.02442479248046,1.628993L91.02442479248046,2.55283L93.01622479248047,2.57248Q93.61172479248046,2.59214,93.61172479248046,3.73219L93.59122479248046,15.8206Q93.59122479248046,16.9214,92.95462479248047,16.941000000000003L90.16202479248047,16.941000000000003Q89.34072479248047,16.941000000000003,89.34072479248047,16.1744L89.32012479248047,13.2654Q89.32012479248047,12.5381,90.18262479248047,12.5381L91.02442479248046,12.5381L91.02442479248046,6.48403L90.55222479248047,6.48403L88.33452479248047,15.6437L88.06762479248047,16.390700000000002Q87.90332479248048,16.9214,87.12302479248046,16.9214L86.07582479248046,16.9214Q85.25442479248048,16.8624,85.25442479248048,16.1548Q85.25442479248048,14.543,85.33662479248048,14.0516L84.22772479248047,14.0516Q83.98132479248048,14.0516,83.94032479248047,13.5209L83.91972479248047,11.8698Q83.91972479248047,11.6339,83.96082479248047,11.1622Q84.55632479248047,7.72236,84.63842479248046,7.62408Q84.49472479248047,7.74201,84.20722479248047,7.74201L83.18052479248047,7.74201L83.18052479248047,16.331699999999998Q83.16002479248047,16.9607,82.35912479248047,16.9803ZM95.91152479248046,15.8206L94.94642479248047,15.8206Q94.33042479248047,15.742,94.24832479248047,14.8575L93.87862479248047,6.77887Q93.85812479248047,6.28747,93.85812479248047,4.22359Q93.85812479248047,3.71253,94.37152479248047,3.67322L95.56242479248047,3.67322Q96.13742479248046,3.67322,96.28112479248047,4.28256L96.54812479248048,11.8698Q96.56862479248048,12.9902,96.56862479248048,14.9165Q96.56862479248048,15.7813,95.91152479248046,15.8206ZM113.18052479248047,7.27027L113.18052479248047,6.62162L107.49262479248047,6.62162L107.49262479248047,7.25061L113.18052479248047,7.27027ZM103.73492479248047,7.25061L104.26882479248047,6.62162L102.37972479248047,6.62162L102.37972479248047,7.25061L103.73492479248047,7.25061ZM105.93202479248046,4.36118L105.76782479248047,3.67322L104.20722479248047,3.71253L104.41252479248047,4.36118L105.93202479248046,4.36118ZM109.60762479248046,12.6167L111.25032479248047,11.9484L105.02852479248047,11.9484L104.59732479248046,12.5381L108.84792479248047,12.4988Q109.15592479248046,12.4988,109.60762479248046,12.6167ZM102.72882479248047,15.0541L106.44542479248047,13.855L104.33042479248047,12.9705L102.72882479248047,15.0541ZM111.22982479248047,4.36118L111.51732479248047,3.53563L109.60762479248046,3.57494L109.81292479248047,4.36118L111.22982479248047,4.36118ZM116.09632479248047,16.8821L113.94032479248047,16.8821Q113.24212479248047,16.8821,112.70822479248046,16.685499999999998L109.64872479248046,15.6437L107.06142479248047,16.6462Q106.56862479248046,16.8624,105.82942479248047,16.8624L103.13942479248047,16.8821Q102.52342479248047,16.8821,102.48242479248047,16.1155L102.46182479248047,15.3882L101.94852479248047,15.9779Q101.84582479248047,16.2138,101.37352479248047,16.2531L99.52552479248047,16.2138Q98.97112479248047,16.2138,98.90942479248048,15.6241L98.93002479248047,14.484Q98.93002479248047,14.0516,99.15592479248048,13.7371L102.40022479248047,9.4914L100.22362479248048,9.4914Q99.66922479248046,9.4914,99.66922479248046,9.21622L99.66922479248046,9.01966L98.95052479248048,9.01966Q98.53982479248046,8.94103,98.53982479248046,8.58722L98.53982479248046,4.85258Q98.56042479248046,4.34152,99.11482479248048,4.34152L100.71642479248047,4.34152L100.51112479248047,3.65356L99.40232479248047,3.65356Q98.90942479248048,3.63391,98.88892479248047,3.05405Q98.86842479248047,2.4741999999999997,98.84792479248047,1.8058969999999999Q98.84792479248047,1.373464,99.34072479248047,1.334153Q113.36532479248046,1.117937,116.19902479248047,1.09828Q116.81502479248047,1.137593,116.83552479248047,1.628993L116.83552479248047,2.74939Q116.83552479248047,3.33907,116.21952479248047,3.33907L115.43922479248047,3.37838L115.09022479248047,4.34152L116.32222479248047,4.34152Q116.93822479248047,4.34152,116.93822479248047,4.91155L116.93822479248047,8.70516Q116.93822479248047,9.03931,116.44542479248047,9.03931L115.97312479248046,9.03931L115.97312479248046,9.39312Q115.97312479248046,9.4914,115.43922479248047,9.4914L106.50702479248046,9.4914L105.99362479248047,10.08108L115.54192479248047,10.10074Q116.03472479248047,10.10074,116.03472479248047,10.53317L116.01422479248046,11.9877Q115.99362479248047,12.3219,115.62402479248047,12.5184L113.16002479248047,13.7568L116.21952479248047,14.6216Q116.81502479248047,14.8378,116.81502479248047,15.4275L116.81502479248047,16.1351Q116.81502479248047,16.8428,116.09632479248047,16.8821Z" fill="#4B1D9A" fill-opacity="1"/><path d="M59.094324792480464,1.963145L64.33912479248048,1.981604L64.67952479248046,1.982801Q64.58772479248047,1.81257,64.52162479248047,1.6822439999999999Q64.35092479248047,1.34601,64.35092479248047,1.2751839999999999Q64.35092479248047,1,64.80272479248046,1L68.68362479248047,1Q69.38172479248047,1,69.54602479248047,1.393121L69.87452479248047,1.963145L74.86432479248046,1.963145Q76.01422479248046,1.982801,76.01422479248046,2.9656000000000002L76.03472479248046,8.48894Q76.03472479248046,9.45209,75.00802479248047,9.45209L62.133324792480465,9.47174L61.94852479248047,15.9779Q61.92792479248047,16.9607,60.98342479248047,16.9607L58.41662479248047,16.941000000000003Q57.47212479248047,16.901699999999998,57.47212479248047,15.9189L57.94442479248047,3.18182Q58.00602479248047,1.963145,59.094324792480464,1.963145ZM37.49263979248047,14.543L43.98134479248047,14.543L43.98134479248047,14.0319L43.681344792480466,14.0319L38.62200479248047,14.0319Q38.00598479248047,14.0319,38.00598479248047,13.3833L38.00598479248047,12.145Q38.00598479248047,11.8847,38.15507479248047,11.757Q38.29876479248047,11.6339,38.58093479248047,11.6339L43.98134479248047,11.6339L43.98134479248047,11.1818L41.168204792480466,11.1818Q41.08542479248047,11.2611,41.01599479248047,11.3339Q40.999324792480465,11.3514,40.98339479248047,11.3685Q40.90126479248047,11.457,40.24417479248047,11.457L37.57477479248047,11.457Q37.02036029248047,11.457,37.02036029248047,10.90663L36.999826492480466,10.39558Q36.999826492480466,10.17936,37.30783479248047,9.58968L37.96616479248047,8.513760000000001L38.14972479248047,8.21376L37.821181792480466,8.21376Q37.80974779248047,8.21348,37.798450792480466,8.213059999999999Q37.01977349248047,8.18399,36.97929259248047,7.48649L36.958758692480465,2.02211Q36.958758692480465,1.0196558,38.10865479248047,1.0196558L54.35092479248047,1.0196558Q55.43922479248047,1.0196558,55.43922479248047,2.02211L55.43922479248047,7.2113Q55.43922479248047,8.194099999999999,54.28932479248047,8.194099999999999L49.01212479248047,8.194099999999999L49.01212479248047,8.665849999999999L54.535724792480465,8.665849999999999Q55.15182479248047,8.665849999999999,55.162024792480466,9.28501Q55.17232479248047,9.90418,55.17232479248047,10.53317Q55.17232479248047,11.1818,54.617924792480466,11.1818L49.01212479248047,11.1818L49.01212479248047,11.6339L54.39202479248047,11.6536Q55.00802479248047,11.6536,55.00802479248047,12.3022L55.02852479248047,13.3833Q55.02852479248047,14.0319,54.47412479248047,14.0319L48.991624792480465,14.0319L48.98312479248047,14.243L48.97112479248047,14.543L54.823224792480474,14.543Q55.43922479248047,14.543,55.43922479248047,15.2113L55.480324792480474,16.2727Q55.480324792480474,16.9214,54.90532479248047,16.9214L37.53370779248047,16.9214Q36.93822479248047,16.9214,36.93822479248047,16.2727L36.93822479248047,15.231Q36.93822479248047,14.543,37.49263979248047,14.543ZM79.42282479248047,16.311999999999998L79.44262479248047,8.042010000000001L79.44332479248047,7.74201L78.66302479248047,7.74201Q78.00602479248047,7.74201,78.00602479248047,7.01474L78.00602479248047,4.45946Q78.00602479248047,3.69287,78.66302479248047,3.69287L79.44332479248047,3.69287L79.44332479248047,1.7272729999999998Q79.48442479248047,1.0393127,80.12102479248047,1.0393127L82.48242479248046,1.0393127Q83.20102479248047,1.0393127,83.20102479248047,1.786241L83.18372479248046,3.39287L83.18052479248047,3.69252L83.18052479248047,3.69287L84.39202479248047,3.69287Q84.51292479248048,3.71602,84.60532479248047,3.7817Q84.90532479248047,3.99486,84.90532479248047,4.65602L84.60532479248047,4.65602Q84.60532479248047,4.0651399999999995,84.35782479248047,3.99287L82.87732479248047,3.99287L82.90102479248047,1.786241Q82.90102479248047,1.339313,82.48242479248046,1.339313L80.12102479248047,1.339313Q79.77072479248048,1.339313,79.74332479248048,1.736837L79.74332479248048,3.99287L78.66302479248047,3.99287Q78.47252479248047,3.99287,78.39802479248047,4.07976Q78.30602479248047,4.18715,78.30602479248047,4.45946L78.30602479248047,7.01474Q78.30602479248047,7.44201,78.66302479248047,7.44201L79.74402479248047,7.44201L79.72282479248047,16.3072Q79.73692479248047,16.6607,80.18532479248047,16.6607L82.35662479248046,16.680300000000003Q82.86622479248047,16.6662,82.88052479248047,16.3262L82.88052479248047,7.44201L84.20722479248047,7.44201Q84.38732479248047,7.44201,84.44812479248047,7.39215L84.49582479248048,7.35302Q84.56432479248048,7.25313,84.56432479248048,7.01474L84.56432479248048,7.01007L84.60552479248047,5.68844L85.20532479248047,5.69779Q85.20532479248047,6.18403,85.48032479248047,6.18403L85.92062479248047,6.18403L86.91422479248047,5.36889L86.23292479248047,6.18403L87.77922479248048,6.18403L86.44802479248047,11.2386L85.59232479248047,14.488Q85.55442479248046,15.0499,85.55442479248046,16.1548Q85.55442479248046,16.5791,86.08712479248047,16.6214L87.12302479248046,16.6214Q87.68212479248047,16.6214,87.78102479248047,16.302L87.78292479248047,16.2958L88.04662479248047,15.5578L90.31612479248047,6.18403L91.32442479248047,6.18403L91.32442479248047,12.8381L90.18262479248047,12.8381Q89.62012479248047,12.8381,89.62012479248047,13.2632L89.64072479248047,16.1744Q89.64072479248047,16.641,90.16202479248047,16.641L92.94922479248046,16.641Q93.29122479248048,16.625999999999998,93.29122479248048,15.8201L93.31172479248048,3.73219Q93.31172479248048,2.88621,93.00912479248046,2.87243L90.72442479248048,2.8498799999999997L90.72442479248048,1.628993Q90.72442479248048,1.362462,90.65072479248047,1.339313L88.77792479248046,1.339313Q88.67872479248047,1.350423,88.62332479248047,1.496385L88.32932479248046,2.83317L85.52142479248047,2.83317Q85.20532479248047,2.83317,85.20532479248047,3.20147L85.20532479248047,4.65602L84.90532479248047,4.65602L84.90532479248047,3.20147Q84.90532479248047,2.53317,85.52142479248047,2.53317L88.08812479248047,2.53317L88.33452479248047,1.412777Q88.45772479248046,1.0589685,88.76572479248047,1.0393127L90.67542479248047,1.0393127Q91.02442479248046,1.0786242,91.02442479248046,1.628993L91.02442479248046,2.55283L93.01622479248047,2.57248Q93.61172479248046,2.59214,93.61172479248046,3.73219L93.61152479248047,3.86276L93.60552479248047,7.37324L93.59122479248046,15.8206Q93.59122479248046,16.9214,92.95462479248047,16.941000000000003L90.16202479248047,16.941000000000003Q89.34072479248047,16.941000000000003,89.34072479248047,16.1744L89.32012479248047,13.2654Q89.32012479248047,12.5381,90.18262479248047,12.5381L91.02442479248046,12.5381L91.02442479248046,6.48403L90.55222479248047,6.48403L88.33452479248047,15.6437L88.06762479248047,16.390700000000002Q87.90332479248048,16.9214,87.12302479248046,16.9214L86.07582479248046,16.9214Q85.25442479248048,16.8624,85.25442479248048,16.1548Q85.25442479248048,15.9514,85.25572479248046,15.7658Q85.25652479248046,15.6521,85.25782479248048,15.5458Q85.26712479248047,14.775,85.30192479248046,14.3516Q85.31692479248048,14.1694,85.33662479248048,14.0516L84.22772479248047,14.0516Q83.98132479248048,14.0516,83.94032479248047,13.5209L83.91972479248047,11.8698Q83.91972479248047,11.6339,83.96082479248047,11.1622Q84.37292479248046,8.781659999999999,84.53912479248046,8.00148Q84.61312479248048,7.65434,84.63842479248046,7.62408Q84.52092479248047,7.72046,84.30752479248048,7.73807Q84.25972479248047,7.74201,84.20722479248047,7.74201L83.48052479248047,7.74201L83.18052479248047,7.74201L83.18052479248047,16.331699999999998Q83.16002479248047,16.9607,82.35912479248047,16.9803L80.18262479248047,16.9607Q79.44332479248047,16.9607,79.42282479248047,16.311999999999998ZM113.94032479248047,16.8821Q113.24212479248047,16.8821,112.70822479248046,16.685499999999998L109.64872479248046,15.6437L107.06142479248047,16.6462Q106.56862479248046,16.8624,105.82942479248047,16.8624L103.13942479248047,16.8821Q102.52342479248047,16.8821,102.48242479248047,16.1155L102.47432479248047,15.8307L102.46372479248046,15.4548L102.46182479248047,15.3882L102.38052479248047,15.4816L102.17112479248047,15.7221L101.94852479248047,15.9779Q101.84582479248047,16.2138,101.37352479248047,16.2531L99.52552479248047,16.2138Q98.97112479248047,16.2138,98.90942479248048,15.6241L98.93002479248047,14.484Q98.93002479248047,14.0516,99.15592479248048,13.7371L102.17102479248047,9.7914L102.40022479248047,9.4914L100.22362479248048,9.4914Q99.66922479248046,9.4914,99.66922479248046,9.21622L99.66922479248046,9.01966L98.95052479248048,9.01966Q98.53982479248046,8.94103,98.53982479248046,8.58722L98.53982479248046,4.85258Q98.56042479248046,4.34152,99.11482479248048,4.34152L100.71642479248047,4.34152L100.62692479248047,4.04152L100.51112479248047,3.65356L99.40232479248047,3.65356Q98.90942479248048,3.63391,98.88892479248047,3.05405Q98.86842479248047,2.4741999999999997,98.84792479248047,1.8058969999999999Q98.84792479248047,1.373464,99.34072479248047,1.334153Q113.36532479248046,1.117937,116.19902479248047,1.09828Q116.81502479248047,1.137593,116.83552479248047,1.628993L116.83552479248047,2.74939Q116.83552479248047,3.33907,116.21952479248047,3.33907L115.43922479248047,3.37838L115.19892479248047,4.04152L115.09022479248047,4.34152L116.32222479248047,4.34152Q116.93822479248047,4.34152,116.93822479248047,4.91155L116.93822479248047,8.70516Q116.93822479248047,9.03931,116.44542479248047,9.03931L116.27312479248047,9.03931L115.97312479248046,9.03931L115.97312479248046,9.39312Q115.97312479248046,9.4914,115.43922479248047,9.4914L106.50702479248046,9.4914L106.25432479248047,9.78162L105.99362479248047,10.08108L106.39072479248047,10.0819L115.54192479248047,10.10074Q116.03472479248047,10.10074,116.03472479248047,10.53317L116.01422479248046,11.9877Q115.99362479248047,12.3219,115.62402479248047,12.5184L113.55702479248046,13.5572L113.16002479248047,13.7568L113.58762479248047,13.8776L116.21952479248047,14.6216Q116.81502479248047,14.8378,116.81502479248047,15.4275L116.81502479248047,16.1351Q116.81502479248047,16.8428,116.09632479248047,16.8821L113.94032479248047,16.8821ZM60.98342479248047,16.6607L58.42432479248047,16.6411Q57.774624792480466,16.6115,57.77212479248047,15.9242L58.244224792480466,3.19293Q58.29122479248047,2.26315,59.094324792480464,2.26315L65.18302479248047,2.28458L64.94352479248047,1.840423Q64.71482479248047,1.416121,64.66492479248046,1.309772Q64.71412479248048,1.3,64.80272479248046,1.3L68.68362479248047,1.3Q69.18202479248046,1.3,69.26922479248047,1.5087869999999999L69.27662479248048,1.526396L69.70122479248047,2.26315L74.86432479248046,2.26315Q75.71422479248048,2.27772,75.71422479248048,2.9656000000000002L75.73472479248048,8.49006Q75.73472479248048,8.8406,75.57282479248047,8.99251Q75.40272479248047,9.15209,75.00802479248047,9.15209L61.84172479248047,9.17219L61.64862479248047,15.9694Q61.63412479248047,16.6602,60.98442479248047,16.6607L60.98342479248047,16.6607ZM37.32036079248047,10.90061L37.29988979248047,10.39114Q37.30396879248047,10.24626,37.56907579248047,9.73752L38.68498479248047,7.91376L37.825065792480466,7.91376Q37.308272792480466,7.89966,37.27925679248047,7.47651L37.25875679248047,2.0209900000000003Q37.25875879248047,1.657346,37.44337179248047,1.496404Q37.64611579248047,1.319656,38.10865479248047,1.319656L54.35092479248047,1.319656Q55.13922479248047,1.319656,55.13922479248047,2.02211L55.13922479248047,7.2113Q55.13922479248047,7.8941,54.28932479248047,7.8941L48.712124792480466,7.8941L48.712124792480466,8.96585L54.535724792480465,8.96585Q54.85672479248047,8.96585,54.86212479248047,9.28999Q54.87232479248047,9.90675,54.87232479248047,10.53317Q54.87232479248047,10.88182,54.617924792480466,10.88182L48.712124792480466,10.88182L48.712124792480466,11.9328L54.39092479248047,11.9536Q54.70802479248047,11.9536,54.70802479248047,12.3022L54.728624792480474,13.389Q54.72852479248047,13.7319,54.47412479248047,13.7319L48.70342479248047,13.7319L48.658824792480466,14.843L54.823224792480474,14.843Q55.13922479248047,14.843,55.13922479248047,15.2113L55.13922479248047,15.2171L55.18032479248047,16.278100000000002Q55.178224792480464,16.6214,54.90532479248047,16.6214L37.53370779248047,16.6214Q37.238224792480466,16.6214,37.238224792480466,16.2727L37.238224792480466,15.231Q37.238224792480466,14.9928,37.31041779248047,14.9032Q37.35895879248047,14.843,37.49263979248047,14.843L44.28134479248047,14.843L44.28134479248047,13.7319L38.62200479248047,13.7319Q38.44281479248047,13.7319,38.37752479248047,13.6632Q38.305984792480466,13.5879,38.305984792480466,13.3833L38.305984792480466,12.145Q38.305984792480466,11.9339,38.58093479248047,11.9339L44.28134479248047,11.9339L44.28134479248047,10.88182L41.04776479248047,10.88182L40.96075479248047,10.96511Q40.87433479248047,11.0478,40.80105479248047,11.1246Q40.770594792480466,11.1312,40.721884792480466,11.137Q40.55483479248047,11.157,40.24417479248047,11.157L37.57477479248047,11.157Q37.32036079248047,11.157,37.32036079248047,10.90663L37.32036079248047,10.90061ZM103.13722479248047,16.5821Q102.80902479248047,16.5821,102.78212479248047,16.102899999999998L102.78202479248047,16.0994L102.76112479248047,15.3588L102.82092479248047,15.3396L107.30982479248047,13.8914L104.78712479248047,12.8363L108.85062479248047,12.7988Q109.11732479248047,12.7988,109.53182479248046,12.907L109.62832479248047,12.9322L109.72062479248046,12.8946L112.78382479248047,11.6484L104.87632479248047,11.6484L104.00232479248047,12.8436L104.04992479248047,12.8432L102.31562479248046,15.0993L101.69182479248047,15.8158L101.67342479248047,15.8582Q101.64312479248046,15.9278,101.36382479248047,15.9528L99.53182479248048,15.9138Q99.24902479248047,15.9138,99.20982479248048,15.6095L99.22992479248046,14.4894Q99.23002479248046,14.1506,99.39722479248047,13.9154L103.00702479248046,9.1914L100.22362479248048,9.1914Q100.05042479248047,9.1914,99.96922479248047,9.16508L99.96922479248047,8.719660000000001L98.98222479248047,8.719660000000001Q98.83982479248047,8.68489,98.83982479248047,8.58722L98.83982479248047,4.85945Q98.85172479248047,4.64152,99.11482479248048,4.64152L101.11912479248046,4.64152L100.73462479248047,3.35356L99.40932479248048,3.35356Q99.19932479248047,3.34173,99.18872479248047,3.04344L99.14792479248047,1.8020420000000001Q99.15052479248047,1.65343,99.35572479248046,1.633972L116.19082479248047,1.398424Q116.52272479248047,1.4230209999999999,116.53552479248047,1.636414L116.53552479248047,2.74939Q116.53552479248047,3.03907,116.21952479248047,3.03907L116.21202479248046,3.03907L115.22512479248047,3.08879L114.66232479248048,4.64152L116.32222479248047,4.64152Q116.63822479248047,4.64152,116.63822479248047,4.91155L116.63822479248047,8.70516L116.64662479248047,8.70747Q116.59972479248047,8.73931,116.44542479248047,8.73931L115.67312479248046,8.73931L115.67312479248046,9.18475Q115.57872479248047,9.1914,115.43922479248047,9.1914L106.37042479248046,9.1914L105.33592479248047,10.37973L115.54132479248047,10.40073Q115.73472479248046,10.40074,115.73472479248046,10.53317L115.71432479248047,11.975Q115.70092479248046,12.1356,115.48932479248047,12.2504L115.48312479248047,12.2535L112.33542479248047,13.8354L116.12672479248047,14.9071Q116.51502479248047,15.0527,116.51502479248047,15.4275L116.51502479248047,16.1351Q116.51502479248047,16.555,116.08752479248047,16.5821L113.94032479248047,16.5821Q113.29562479248047,16.5821,112.81192479248047,16.404L112.80842479248047,16.4027L109.64212479248047,15.3246L106.94692479248047,16.3688L106.94092479248047,16.371499999999997Q106.50572479248046,16.5624,105.82942479248047,16.5624L103.13722479248047,16.5821ZM51.01642479248047,3.99287L41.34048479248047,3.99287L41.34048479248047,2.78354L51.01642479248047,2.78354L51.01642479248047,3.99287ZM50.71642479248047,3.69287L50.71642479248047,3.08354L41.64048479248047,3.08354L41.64048479248047,3.69287L50.71642479248047,3.69287ZM111.44302479248047,4.66118L109.58122479248047,4.66118L109.22122479248047,3.28283L111.94252479248047,3.22681L111.51312479248047,4.45984L111.44302479248047,4.66118ZM106.31212479248047,4.66118L104.19282479248047,4.66118L103.80082479248047,3.42267L106.00312479248046,3.3672L106.22382479248047,4.291510000000001L106.31212479248047,4.66118ZM109.81292479248047,4.36118L111.22982479248047,4.36118L111.41202479248047,3.83786L111.51732479248047,3.53563L111.19732479248047,3.54221L109.91602479248047,3.56859L109.60762479248046,3.57494L109.68552479248046,3.8734L109.81292479248047,4.36118ZM93.85812479248047,4.22359Q93.85812479248047,4.05902,93.91132479248047,3.94337Q94.02342479248047,3.69987,94.37152479248047,3.67322L95.56242479248047,3.67322Q96.13742479248046,3.67322,96.28112479248047,4.28256L96.54812479248048,11.8698Q96.56862479248048,12.9902,96.56862479248048,14.9165Q96.56862479248048,15.7813,95.91152479248046,15.8206L94.94642479248047,15.8206Q94.33042479248047,15.742,94.24832479248047,14.8575L93.90552479248046,7.36662L93.87862479248047,6.77887Q93.85812479248047,6.28747,93.85812479248047,4.22359ZM105.86042479248047,4.06118L105.93202479248046,4.36118L104.41252479248047,4.36118L104.30142479248047,4.01025L104.20722479248047,3.71253L104.51942479248046,3.70467L105.76782479248047,3.67322L105.86042479248047,4.06118ZM94.15812479248046,4.22359Q94.15812479248046,3.99544,94.38432479248047,3.97322L95.56242479248047,3.97322Q95.88782479248047,3.97322,95.98242479248046,4.3248L96.24822479248047,11.8803Q96.26862479248047,12.9925,96.26862479248047,14.9165Q96.26862479248047,15.4926,95.90152479248047,15.5206L94.96792479248046,15.5206Q94.60752479248046,15.461,94.54762479248046,14.8366L94.17832479248047,6.76516Q94.15812479248046,6.28116,94.15812479248046,4.22359ZM51.01642479248047,6.15504L41.34048479248047,6.15504L41.34048479248047,4.96536L51.01642479248047,4.96536L51.01642479248047,6.15504ZM71.57082479248047,6.68575L62.10022479248047,6.68575L62.10022479248047,4.96536L71.57082479248047,4.96536L71.57082479248047,6.68575ZM50.71642479248047,5.26536L41.64048479248047,5.26536L41.64048479248047,5.85504L50.71642479248047,5.85504L50.71642479248047,5.26536ZM71.27082479248047,6.38575L71.27082479248047,5.26536L62.40022479248047,5.26536L62.40022479248047,6.38575L70.97082479248047,6.38575L71.27082479248047,6.38575ZM86.49052479248047,8.7213L86.58912479248048,7.99754Q86.56862479248048,7.46683,86.13742479248046,7.46683L85.17372479248047,7.45146L85.10562479248047,7.45037L84.90532479248047,7.44717Q84.80272479248046,7.44717,84.74112479248046,7.5258Q84.83822479248047,7.38627,84.85882479248048,7.14894Q84.86282479248047,7.10192,84.86392479248047,7.05102Q84.86432479248046,7.03307,84.86432479248046,7.01474L84.87812479248046,6.57212L84.90532479248047,5.69779Q84.90532479248047,6.24441,85.18322479248047,6.411Q85.30512479248047,6.48403,85.48032479248047,6.48403L87.38992479248047,6.48403L87.31092479248048,6.78403L86.78532479248047,8.779969999999999L86.15792479248047,11.1622L86.49052479248047,8.7213ZM103.87382479248046,7.55061L102.07972479248046,7.55061L102.07972479248046,6.32162L104.91692479248047,6.32162L103.96362479248047,7.44475L103.87382479248046,7.55061ZM113.48052479248047,7.57131L107.19262479248047,7.54958L107.19262479248047,6.32162L113.48052479248047,6.32162L113.48052479248047,7.57131ZM102.37972479248047,7.25061L103.73492479248047,7.25061L104.01422479248046,6.92162L104.26882479248047,6.62162L102.37972479248047,6.62162L102.37972479248047,7.25061ZM113.18052479248047,7.27027L113.18052479248047,6.62162L107.49262479248047,6.62162L107.49262479248047,7.25061L112.88052479248047,7.26923L113.18052479248047,7.27027ZM84.92902479248048,7.74418L84.96472479248047,7.70153L84.97722479248047,7.71082Q84.95692479248046,7.73675,84.92902479248048,7.74418ZM84.86862479248046,7.81646L84.92622479248047,7.74751L86.13262479248047,7.76679Q86.27252479248047,7.76683,86.28802479248047,7.98515L85.50232479248047,13.7516L84.28512479248047,13.7516Q84.25362479248047,13.6729,84.24012479248047,13.5071L84.21972479248046,11.866Q84.21972479248046,11.6499,84.25862479248048,11.2007Q84.83822479248047,7.85283,84.86862479248046,7.81646ZM44.28134479248047,8.94619L42.10023479248047,8.94619L42.10023479248047,7.91376L44.28134479248047,7.91376L44.28134479248047,8.94619ZM43.98134479248047,8.21376L42.40023479248047,8.21376L42.40023479248047,8.64619L43.681344792480466,8.64619L43.98134479248047,8.64619L43.98134479248047,8.21376ZM63.61172479248047,17Q62.50292479248047,17,62.50292479248047,15.9582L62.48232479248047,11.2015Q62.48232479248047,10.17936,63.46802479248047,10.17936L74.86432479248046,10.17936Q76.01422479248046,10.17936,76.01422479248046,11.1425L76.01422479248046,16.017200000000003Q76.01422479248046,16.9803,75.00802479248047,16.9803L63.61172479248047,17ZM63.61122479248047,16.7L63.61172479248047,16.7L75.00802479248047,16.680300000000003Q75.71422479248048,16.680300000000003,75.71422479248048,16.017200000000003L75.71422479248048,11.1425Q75.71422479248048,10.47936,74.86432479248046,10.47936L63.46802479248047,10.47936Q63.10262479248047,10.47936,62.94472479248047,10.64313Q62.782324792480466,10.8115,62.782324792480466,11.2002L62.80292479248047,15.9582Q62.80292479248047,16.3493,62.98552479248047,16.520899999999997Q63.17602479248047,16.6999,63.61122479248047,16.7ZM108.84792479248047,12.4988Q109.15592479248046,12.4988,109.60762479248046,12.6167L110.51292479248048,12.2484L111.25032479248047,11.9484L105.02852479248047,11.9484L104.81822479248046,12.236L104.59732479248046,12.5381L104.97152479248047,12.5346L108.84792479248047,12.4988ZM71.85832479248046,14.3516L66.53552479248047,14.3516L66.53552479248047,12.6115L71.85832479248046,12.6115L71.85832479248046,14.3516ZM71.55832479248048,14.0516L71.55832479248048,12.9115L66.83552479248047,12.9115L66.83552479248047,14.0516L71.55832479248048,14.0516ZM106.00642479248047,13.9966L103.23192479248047,14.8917L102.75232479248047,15.0465L102.72882479248047,15.0541L102.75172479248047,15.0243L103.05102479248046,14.6349L104.33042479248047,12.9705L106.01992479248047,13.6771L106.44542479248047,13.855L106.00642479248047,13.9966Z" fill-rule="evenodd" fill="#FFFFFF" fill-opacity="1"/></g></g></svg>